%TF.GenerationSoftware,KiCad,Pcbnew,6.0.10-86aedd382b~118~ubuntu20.04.1*%
%TF.CreationDate,2023-01-12T10:33:16+01:00*%
%TF.ProjectId,thrust_controller,74687275-7374-45f6-936f-6e74726f6c6c,rev?*%
%TF.SameCoordinates,Original*%
%TF.FileFunction,Legend,Bot*%
%TF.FilePolarity,Positive*%
%FSLAX46Y46*%
G04 Gerber Fmt 4.6, Leading zero omitted, Abs format (unit mm)*
G04 Created by KiCad (PCBNEW 6.0.10-86aedd382b~118~ubuntu20.04.1) date 2023-01-12 10:33:16*
%MOMM*%
%LPD*%
G01*
G04 APERTURE LIST*
%TA.AperFunction,Profile*%
%ADD10C,0.200000*%
%TD*%
%ADD11C,0.200000*%
%ADD12C,0.150000*%
%ADD13C,0.120000*%
G04 APERTURE END LIST*
D10*
X169350000Y-83700000D02*
G75*
G03*
X169350000Y-83700000I-26180000J0D01*
G01*
D11*
X138082053Y-102454761D02*
X137945148Y-102502380D01*
X137707053Y-102502380D01*
X137605863Y-102454761D01*
X137552291Y-102407142D01*
X137492767Y-102311904D01*
X137480863Y-102216666D01*
X137516577Y-102121428D01*
X137558244Y-102073809D01*
X137647529Y-102026190D01*
X137832053Y-101978571D01*
X137921339Y-101930952D01*
X137963005Y-101883333D01*
X137998720Y-101788095D01*
X137986815Y-101692857D01*
X137927291Y-101597619D01*
X137873720Y-101550000D01*
X137772529Y-101502380D01*
X137534434Y-101502380D01*
X137397529Y-101550000D01*
X136701101Y-102454761D02*
X136802291Y-102502380D01*
X136992767Y-102502380D01*
X137082053Y-102454761D01*
X137117767Y-102359523D01*
X137070148Y-101978571D01*
X137010625Y-101883333D01*
X136909434Y-101835714D01*
X136718958Y-101835714D01*
X136629672Y-101883333D01*
X136593958Y-101978571D01*
X136605863Y-102073809D01*
X137093958Y-102169047D01*
X136147529Y-101835714D02*
X136230863Y-102502380D01*
X136159434Y-101930952D02*
X136105863Y-101883333D01*
X136004672Y-101835714D01*
X135861815Y-101835714D01*
X135772529Y-101883333D01*
X135736815Y-101978571D01*
X135802291Y-102502380D01*
X135367767Y-102454761D02*
X135278482Y-102502380D01*
X135088005Y-102502380D01*
X134986815Y-102454761D01*
X134927291Y-102359523D01*
X134921339Y-102311904D01*
X134957053Y-102216666D01*
X135046339Y-102169047D01*
X135189196Y-102169047D01*
X135278482Y-102121428D01*
X135314196Y-102026190D01*
X135308244Y-101978571D01*
X135248720Y-101883333D01*
X135147529Y-101835714D01*
X135004672Y-101835714D01*
X134915386Y-101883333D01*
X134373720Y-102502380D02*
X134463005Y-102454761D01*
X134504672Y-102407142D01*
X134540386Y-102311904D01*
X134504672Y-102026190D01*
X134445148Y-101930952D01*
X134391577Y-101883333D01*
X134290386Y-101835714D01*
X134147529Y-101835714D01*
X134058244Y-101883333D01*
X134016577Y-101930952D01*
X133980863Y-102026190D01*
X134016577Y-102311904D01*
X134076101Y-102407142D01*
X134129672Y-102454761D01*
X134230863Y-102502380D01*
X134373720Y-102502380D01*
X133611815Y-102502380D02*
X133528482Y-101835714D01*
X133552291Y-102026190D02*
X133492767Y-101930952D01*
X133439196Y-101883333D01*
X133338005Y-101835714D01*
X133242767Y-101835714D01*
D12*
%TO.C,C13*%
X140774285Y-80535714D02*
X140812380Y-80573809D01*
X140926666Y-80611904D01*
X141002857Y-80611904D01*
X141117142Y-80573809D01*
X141193333Y-80497619D01*
X141231428Y-80421428D01*
X141269523Y-80269047D01*
X141269523Y-80154761D01*
X141231428Y-80002380D01*
X141193333Y-79926190D01*
X141117142Y-79850000D01*
X141002857Y-79811904D01*
X140926666Y-79811904D01*
X140812380Y-79850000D01*
X140774285Y-79888095D01*
X140012380Y-80611904D02*
X140469523Y-80611904D01*
X140240952Y-80611904D02*
X140240952Y-79811904D01*
X140317142Y-79926190D01*
X140393333Y-80002380D01*
X140469523Y-80040476D01*
X139745714Y-79811904D02*
X139250476Y-79811904D01*
X139517142Y-80116666D01*
X139402857Y-80116666D01*
X139326666Y-80154761D01*
X139288571Y-80192857D01*
X139250476Y-80269047D01*
X139250476Y-80459523D01*
X139288571Y-80535714D01*
X139326666Y-80573809D01*
X139402857Y-80611904D01*
X139631428Y-80611904D01*
X139707619Y-80573809D01*
X139745714Y-80535714D01*
%TO.C,C14*%
X148774285Y-83835714D02*
X148812380Y-83873809D01*
X148926666Y-83911904D01*
X149002857Y-83911904D01*
X149117142Y-83873809D01*
X149193333Y-83797619D01*
X149231428Y-83721428D01*
X149269523Y-83569047D01*
X149269523Y-83454761D01*
X149231428Y-83302380D01*
X149193333Y-83226190D01*
X149117142Y-83150000D01*
X149002857Y-83111904D01*
X148926666Y-83111904D01*
X148812380Y-83150000D01*
X148774285Y-83188095D01*
X148012380Y-83911904D02*
X148469523Y-83911904D01*
X148240952Y-83911904D02*
X148240952Y-83111904D01*
X148317142Y-83226190D01*
X148393333Y-83302380D01*
X148469523Y-83340476D01*
X147326666Y-83378571D02*
X147326666Y-83911904D01*
X147517142Y-83073809D02*
X147707619Y-83645238D01*
X147212380Y-83645238D01*
%TO.C,J2*%
X140402857Y-94711904D02*
X140136191Y-95511904D01*
X139869524Y-94711904D01*
X139640953Y-95283333D02*
X139260000Y-95283333D01*
X139717143Y-95511904D02*
X139450476Y-94711904D01*
X139183810Y-95511904D01*
%TO.C,J8*%
X152726666Y-82574504D02*
X152726666Y-83145933D01*
X152764761Y-83260219D01*
X152840952Y-83336409D01*
X152955238Y-83374504D01*
X153031428Y-83374504D01*
X152231428Y-82917361D02*
X152307619Y-82879266D01*
X152345714Y-82841171D01*
X152383809Y-82764980D01*
X152383809Y-82726885D01*
X152345714Y-82650695D01*
X152307619Y-82612600D01*
X152231428Y-82574504D01*
X152079047Y-82574504D01*
X152002857Y-82612600D01*
X151964761Y-82650695D01*
X151926666Y-82726885D01*
X151926666Y-82764980D01*
X151964761Y-82841171D01*
X152002857Y-82879266D01*
X152079047Y-82917361D01*
X152231428Y-82917361D01*
X152307619Y-82955457D01*
X152345714Y-82993552D01*
X152383809Y-83069742D01*
X152383809Y-83222123D01*
X152345714Y-83298314D01*
X152307619Y-83336409D01*
X152231428Y-83374504D01*
X152079047Y-83374504D01*
X152002857Y-83336409D01*
X151964761Y-83298314D01*
X151926666Y-83222123D01*
X151926666Y-83069742D01*
X151964761Y-82993552D01*
X152002857Y-82955457D01*
X152079047Y-82917361D01*
X150214761Y-69887142D02*
X149605238Y-69887142D01*
X154761428Y-69466190D02*
X154875714Y-69428095D01*
X155066190Y-69428095D01*
X155142380Y-69466190D01*
X155180476Y-69504285D01*
X155218571Y-69580476D01*
X155218571Y-69656666D01*
X155180476Y-69732857D01*
X155142380Y-69770952D01*
X155066190Y-69809047D01*
X154913809Y-69847142D01*
X154837619Y-69885238D01*
X154799523Y-69923333D01*
X154761428Y-69999523D01*
X154761428Y-70075714D01*
X154799523Y-70151904D01*
X154837619Y-70190000D01*
X154913809Y-70228095D01*
X155104285Y-70228095D01*
X155218571Y-70190000D01*
D11*
X153659672Y-67838571D02*
X153326339Y-67838571D01*
X153248958Y-68362380D02*
X153725148Y-68362380D01*
X153600148Y-67362380D01*
X153123958Y-67362380D01*
X152862053Y-68314761D02*
X152725148Y-68362380D01*
X152487053Y-68362380D01*
X152385863Y-68314761D01*
X152332291Y-68267142D01*
X152272767Y-68171904D01*
X152260863Y-68076666D01*
X152296577Y-67981428D01*
X152338244Y-67933809D01*
X152427529Y-67886190D01*
X152612053Y-67838571D01*
X152701339Y-67790952D01*
X152743005Y-67743333D01*
X152778720Y-67648095D01*
X152766815Y-67552857D01*
X152707291Y-67457619D01*
X152653720Y-67410000D01*
X152552529Y-67362380D01*
X152314434Y-67362380D01*
X152177529Y-67410000D01*
X151284672Y-68267142D02*
X151338244Y-68314761D01*
X151487053Y-68362380D01*
X151582291Y-68362380D01*
X151719196Y-68314761D01*
X151802529Y-68219523D01*
X151838244Y-68124285D01*
X151862053Y-67933809D01*
X151844196Y-67790952D01*
X151772767Y-67600476D01*
X151713244Y-67505238D01*
X151606101Y-67410000D01*
X151457291Y-67362380D01*
X151362053Y-67362380D01*
X151225148Y-67410000D01*
X151183482Y-67457619D01*
D12*
%TO.C,TP6*%
X130560476Y-101220000D02*
X130655714Y-101172380D01*
X130798571Y-101172380D01*
X130941428Y-101220000D01*
X131036666Y-101315238D01*
X131084285Y-101410476D01*
X131131904Y-101600952D01*
X131131904Y-101743809D01*
X131084285Y-101934285D01*
X131036666Y-102029523D01*
X130941428Y-102124761D01*
X130798571Y-102172380D01*
X130703333Y-102172380D01*
X130560476Y-102124761D01*
X130512857Y-102077142D01*
X130512857Y-101743809D01*
X130703333Y-101743809D01*
X130084285Y-102172380D02*
X130084285Y-101172380D01*
X129512857Y-102172380D01*
X129512857Y-101172380D01*
X129036666Y-102172380D02*
X129036666Y-101172380D01*
X128798571Y-101172380D01*
X128655714Y-101220000D01*
X128560476Y-101315238D01*
X128512857Y-101410476D01*
X128465238Y-101600952D01*
X128465238Y-101743809D01*
X128512857Y-101934285D01*
X128560476Y-102029523D01*
X128655714Y-102124761D01*
X128798571Y-102172380D01*
X129036666Y-102172380D01*
X128084285Y-101886666D02*
X127608095Y-101886666D01*
X128179523Y-102172380D02*
X127846190Y-101172380D01*
X127512857Y-102172380D01*
%TO.C,J5*%
X132745714Y-94750000D02*
X132821905Y-94711904D01*
X132936191Y-94711904D01*
X133050476Y-94750000D01*
X133126667Y-94826190D01*
X133164762Y-94902380D01*
X133202857Y-95054761D01*
X133202857Y-95169047D01*
X133164762Y-95321428D01*
X133126667Y-95397619D01*
X133050476Y-95473809D01*
X132936191Y-95511904D01*
X132860000Y-95511904D01*
X132745714Y-95473809D01*
X132707619Y-95435714D01*
X132707619Y-95169047D01*
X132860000Y-95169047D01*
X132364762Y-95511904D02*
X132364762Y-94711904D01*
X131907619Y-95511904D01*
X131907619Y-94711904D01*
X131526667Y-95511904D02*
X131526667Y-94711904D01*
X131336191Y-94711904D01*
X131221905Y-94750000D01*
X131145714Y-94826190D01*
X131107619Y-94902380D01*
X131069524Y-95054761D01*
X131069524Y-95169047D01*
X131107619Y-95321428D01*
X131145714Y-95397619D01*
X131221905Y-95473809D01*
X131336191Y-95511904D01*
X131526667Y-95511904D01*
X130764762Y-95283333D02*
X130383810Y-95283333D01*
X130840953Y-95511904D02*
X130574286Y-94711904D01*
X130307619Y-95511904D01*
%TO.C,U1*%
X145569523Y-87411904D02*
X145569523Y-88059523D01*
X145531428Y-88135714D01*
X145493333Y-88173809D01*
X145417142Y-88211904D01*
X145264761Y-88211904D01*
X145188571Y-88173809D01*
X145150476Y-88135714D01*
X145112380Y-88059523D01*
X145112380Y-87411904D01*
X144312380Y-88211904D02*
X144769523Y-88211904D01*
X144540952Y-88211904D02*
X144540952Y-87411904D01*
X144617142Y-87526190D01*
X144693333Y-87602380D01*
X144769523Y-87640476D01*
X142902380Y-88960000D02*
X143140476Y-88960000D01*
X143045238Y-88721904D02*
X143140476Y-88960000D01*
X143045238Y-89198095D01*
X143330952Y-88817142D02*
X143140476Y-88960000D01*
X143330952Y-89102857D01*
%TO.C,TP1*%
X139331904Y-105072380D02*
X138998571Y-106072380D01*
X138665238Y-105072380D01*
X138379523Y-105786666D02*
X137903333Y-105786666D01*
X138474761Y-106072380D02*
X138141428Y-105072380D01*
X137808095Y-106072380D01*
%TO.C,TP7*%
X148579523Y-62237142D02*
X148627142Y-62284761D01*
X148770000Y-62332380D01*
X148865238Y-62332380D01*
X149008095Y-62284761D01*
X149103333Y-62189523D01*
X149150952Y-62094285D01*
X149198571Y-61903809D01*
X149198571Y-61760952D01*
X149150952Y-61570476D01*
X149103333Y-61475238D01*
X149008095Y-61380000D01*
X148865238Y-61332380D01*
X148770000Y-61332380D01*
X148627142Y-61380000D01*
X148579523Y-61427619D01*
X148150952Y-62332380D02*
X148150952Y-61665714D01*
X148150952Y-61760952D02*
X148103333Y-61713333D01*
X148008095Y-61665714D01*
X147865238Y-61665714D01*
X147770000Y-61713333D01*
X147722380Y-61808571D01*
X147722380Y-62332380D01*
X147722380Y-61808571D02*
X147674761Y-61713333D01*
X147579523Y-61665714D01*
X147436666Y-61665714D01*
X147341428Y-61713333D01*
X147293809Y-61808571D01*
X147293809Y-62332380D01*
X146389047Y-62332380D02*
X146389047Y-61332380D01*
X146389047Y-62284761D02*
X146484285Y-62332380D01*
X146674761Y-62332380D01*
X146770000Y-62284761D01*
X146817619Y-62237142D01*
X146865238Y-62141904D01*
X146865238Y-61856190D01*
X146817619Y-61760952D01*
X146770000Y-61713333D01*
X146674761Y-61665714D01*
X146484285Y-61665714D01*
X146389047Y-61713333D01*
%TO.C,C4*%
X145093333Y-94435714D02*
X145131428Y-94473809D01*
X145245714Y-94511904D01*
X145321904Y-94511904D01*
X145436190Y-94473809D01*
X145512380Y-94397619D01*
X145550476Y-94321428D01*
X145588571Y-94169047D01*
X145588571Y-94054761D01*
X145550476Y-93902380D01*
X145512380Y-93826190D01*
X145436190Y-93750000D01*
X145321904Y-93711904D01*
X145245714Y-93711904D01*
X145131428Y-93750000D01*
X145093333Y-93788095D01*
X144407619Y-93978571D02*
X144407619Y-94511904D01*
X144598095Y-93673809D02*
X144788571Y-94245238D01*
X144293333Y-94245238D01*
%TO.C,J1*%
X134066666Y-82574504D02*
X134066666Y-83145933D01*
X134104761Y-83260219D01*
X134180952Y-83336409D01*
X134295238Y-83374504D01*
X134371428Y-83374504D01*
X133266666Y-83374504D02*
X133723809Y-83374504D01*
X133495238Y-83374504D02*
X133495238Y-82574504D01*
X133571428Y-82688790D01*
X133647619Y-82764980D01*
X133723809Y-82803076D01*
D11*
X135158958Y-68362380D02*
X135033958Y-67362380D01*
X134653005Y-67362380D01*
X134563720Y-67410000D01*
X134522053Y-67457619D01*
X134486339Y-67552857D01*
X134504196Y-67695714D01*
X134563720Y-67790952D01*
X134617291Y-67838571D01*
X134718482Y-67886190D01*
X135099434Y-67886190D01*
X134129196Y-67362380D02*
X133587529Y-68362380D01*
X133462529Y-67362380D02*
X134254196Y-68362380D01*
X132694672Y-67695714D02*
X132778005Y-68362380D01*
X132885148Y-67314761D02*
X133212529Y-68029047D01*
X132593482Y-68029047D01*
D12*
X131513571Y-70248809D02*
X131399285Y-70286904D01*
X131208809Y-70286904D01*
X131132619Y-70248809D01*
X131094523Y-70210714D01*
X131056428Y-70134523D01*
X131056428Y-70058333D01*
X131094523Y-69982142D01*
X131132619Y-69944047D01*
X131208809Y-69905952D01*
X131361190Y-69867857D01*
X131437380Y-69829761D01*
X131475476Y-69791666D01*
X131513571Y-69715476D01*
X131513571Y-69639285D01*
X131475476Y-69563095D01*
X131437380Y-69525000D01*
X131361190Y-69486904D01*
X131170714Y-69486904D01*
X131056428Y-69525000D01*
X136689761Y-69922142D02*
X136080238Y-69922142D01*
X133827142Y-69615238D02*
X133827142Y-70224761D01*
X134131904Y-69920000D02*
X133522380Y-69920000D01*
%TO.C,J6*%
X140026666Y-75211904D02*
X140026666Y-75783333D01*
X140064761Y-75897619D01*
X140140952Y-75973809D01*
X140255238Y-76011904D01*
X140331428Y-76011904D01*
X139302857Y-75211904D02*
X139455238Y-75211904D01*
X139531428Y-75250000D01*
X139569523Y-75288095D01*
X139645714Y-75402380D01*
X139683809Y-75554761D01*
X139683809Y-75859523D01*
X139645714Y-75935714D01*
X139607619Y-75973809D01*
X139531428Y-76011904D01*
X139379047Y-76011904D01*
X139302857Y-75973809D01*
X139264761Y-75935714D01*
X139226666Y-75859523D01*
X139226666Y-75669047D01*
X139264761Y-75592857D01*
X139302857Y-75554761D01*
X139379047Y-75516666D01*
X139531428Y-75516666D01*
X139607619Y-75554761D01*
X139645714Y-75592857D01*
X139683809Y-75669047D01*
D11*
X145302291Y-69902380D02*
X145177291Y-68902380D01*
X144939196Y-68902380D01*
X144802291Y-68950000D01*
X144718958Y-69045238D01*
X144683244Y-69140476D01*
X144659434Y-69330952D01*
X144677291Y-69473809D01*
X144748720Y-69664285D01*
X144808244Y-69759523D01*
X144915386Y-69854761D01*
X145064196Y-69902380D01*
X145302291Y-69902380D01*
X143915386Y-69854761D02*
X144016577Y-69902380D01*
X144207053Y-69902380D01*
X144296339Y-69854761D01*
X144332053Y-69759523D01*
X144284434Y-69378571D01*
X144224910Y-69283333D01*
X144123720Y-69235714D01*
X143933244Y-69235714D01*
X143843958Y-69283333D01*
X143808244Y-69378571D01*
X143820148Y-69473809D01*
X144308244Y-69569047D01*
X143445148Y-69902380D02*
X143320148Y-68902380D01*
X143367767Y-69283333D02*
X143266577Y-69235714D01*
X143076101Y-69235714D01*
X142986815Y-69283333D01*
X142945148Y-69330952D01*
X142909434Y-69426190D01*
X142945148Y-69711904D01*
X143004672Y-69807142D01*
X143058244Y-69854761D01*
X143159434Y-69902380D01*
X143349910Y-69902380D01*
X143439196Y-69854761D01*
X142028482Y-69235714D02*
X142111815Y-69902380D01*
X142457053Y-69235714D02*
X142522529Y-69759523D01*
X142486815Y-69854761D01*
X142397529Y-69902380D01*
X142254672Y-69902380D01*
X142153482Y-69854761D01*
X142099910Y-69807142D01*
X141123720Y-69235714D02*
X141224910Y-70045238D01*
X141284434Y-70140476D01*
X141338005Y-70188095D01*
X141439196Y-70235714D01*
X141582053Y-70235714D01*
X141671339Y-70188095D01*
X141201101Y-69854761D02*
X141302291Y-69902380D01*
X141492767Y-69902380D01*
X141582053Y-69854761D01*
X141623720Y-69807142D01*
X141659434Y-69711904D01*
X141623720Y-69426190D01*
X141564196Y-69330952D01*
X141510625Y-69283333D01*
X141409434Y-69235714D01*
X141218958Y-69235714D01*
X141129672Y-69283333D01*
D12*
%TO.C,U4*%
X145069523Y-79811904D02*
X145069523Y-80459523D01*
X145031428Y-80535714D01*
X144993333Y-80573809D01*
X144917142Y-80611904D01*
X144764761Y-80611904D01*
X144688571Y-80573809D01*
X144650476Y-80535714D01*
X144612380Y-80459523D01*
X144612380Y-79811904D01*
X143888571Y-80078571D02*
X143888571Y-80611904D01*
X144079047Y-79773809D02*
X144269523Y-80345238D01*
X143774285Y-80345238D01*
X142750000Y-83832380D02*
X142750000Y-84070476D01*
X142988095Y-83975238D02*
X142750000Y-84070476D01*
X142511904Y-83975238D01*
X142892857Y-84260952D02*
X142750000Y-84070476D01*
X142607142Y-84260952D01*
%TO.C,J3*%
X137817143Y-95473809D02*
X137702857Y-95511904D01*
X137512381Y-95511904D01*
X137436191Y-95473809D01*
X137398095Y-95435714D01*
X137360000Y-95359523D01*
X137360000Y-95283333D01*
X137398095Y-95207142D01*
X137436191Y-95169047D01*
X137512381Y-95130952D01*
X137664762Y-95092857D01*
X137740953Y-95054761D01*
X137779048Y-95016666D01*
X137817143Y-94940476D01*
X137817143Y-94864285D01*
X137779048Y-94788095D01*
X137740953Y-94750000D01*
X137664762Y-94711904D01*
X137474286Y-94711904D01*
X137360000Y-94750000D01*
X137017143Y-95207142D02*
X136407619Y-95207142D01*
X136712381Y-95511904D02*
X136712381Y-94902380D01*
%TO.C,TP5*%
X139903333Y-61332380D02*
X139570000Y-62332380D01*
X139236666Y-61332380D01*
X138903333Y-62332380D02*
X138903333Y-61332380D01*
X138665238Y-61332380D01*
X138522380Y-61380000D01*
X138427142Y-61475238D01*
X138379523Y-61570476D01*
X138331904Y-61760952D01*
X138331904Y-61903809D01*
X138379523Y-62094285D01*
X138427142Y-62189523D01*
X138522380Y-62284761D01*
X138665238Y-62332380D01*
X138903333Y-62332380D01*
X137903333Y-62332380D02*
X137903333Y-61332380D01*
X137665238Y-61332380D01*
X137522380Y-61380000D01*
X137427142Y-61475238D01*
X137379523Y-61570476D01*
X137331904Y-61760952D01*
X137331904Y-61903809D01*
X137379523Y-62094285D01*
X137427142Y-62189523D01*
X137522380Y-62284761D01*
X137665238Y-62332380D01*
X137903333Y-62332380D01*
%TO.C,J7*%
X135726666Y-90911904D02*
X135726666Y-91483333D01*
X135764761Y-91597619D01*
X135840952Y-91673809D01*
X135955238Y-91711904D01*
X136031428Y-91711904D01*
X135421904Y-90911904D02*
X134888571Y-90911904D01*
X135231428Y-91711904D01*
D11*
X128992380Y-86590089D02*
X128516190Y-86316279D01*
X128992380Y-86018660D02*
X127992380Y-86143660D01*
X127992380Y-86524613D01*
X128040000Y-86613898D01*
X128087619Y-86655565D01*
X128182857Y-86691279D01*
X128325714Y-86673422D01*
X128420952Y-86613898D01*
X128468571Y-86560327D01*
X128516190Y-86459136D01*
X128516190Y-86078184D01*
X128944761Y-86976994D02*
X128992380Y-87113898D01*
X128992380Y-87351994D01*
X128944761Y-87453184D01*
X128897142Y-87506755D01*
X128801904Y-87566279D01*
X128706666Y-87578184D01*
X128611428Y-87542470D01*
X128563809Y-87500803D01*
X128516190Y-87411517D01*
X128468571Y-87226994D01*
X128420952Y-87137708D01*
X128373333Y-87096041D01*
X128278095Y-87060327D01*
X128182857Y-87072232D01*
X128087619Y-87131755D01*
X128040000Y-87185327D01*
X127992380Y-87286517D01*
X127992380Y-87524613D01*
X128040000Y-87661517D01*
X128325714Y-88482946D02*
X128992380Y-88399613D01*
X127944761Y-88292470D02*
X128659047Y-87965089D01*
X128659047Y-88584136D01*
X128420952Y-89137708D02*
X128373333Y-89048422D01*
X128325714Y-89006755D01*
X128230476Y-88971041D01*
X128182857Y-88976994D01*
X128087619Y-89036517D01*
X128040000Y-89090089D01*
X127992380Y-89191279D01*
X127992380Y-89381755D01*
X128040000Y-89471041D01*
X128087619Y-89512708D01*
X128182857Y-89548422D01*
X128230476Y-89542470D01*
X128325714Y-89482946D01*
X128373333Y-89429375D01*
X128420952Y-89328184D01*
X128420952Y-89137708D01*
X128468571Y-89036517D01*
X128516190Y-88982946D01*
X128611428Y-88923422D01*
X128801904Y-88899613D01*
X128897142Y-88935327D01*
X128944761Y-88976994D01*
X128992380Y-89066279D01*
X128992380Y-89256755D01*
X128944761Y-89357946D01*
X128897142Y-89411517D01*
X128801904Y-89471041D01*
X128611428Y-89494851D01*
X128516190Y-89459136D01*
X128468571Y-89417470D01*
X128420952Y-89328184D01*
X127992380Y-90476994D02*
X127992380Y-90000803D01*
X128468571Y-89893660D01*
X128420952Y-89947232D01*
X128373333Y-90048422D01*
X128373333Y-90286517D01*
X128420952Y-90375803D01*
X128468571Y-90417470D01*
X128563809Y-90453184D01*
X128801904Y-90423422D01*
X128897142Y-90363898D01*
X128944761Y-90310327D01*
X128992380Y-90209136D01*
X128992380Y-89971041D01*
X128944761Y-89881755D01*
X128897142Y-89840089D01*
D12*
%TO.C,TP4*%
X157374761Y-102172380D02*
X157708095Y-101696190D01*
X157946190Y-102172380D02*
X157946190Y-101172380D01*
X157565238Y-101172380D01*
X157470000Y-101220000D01*
X157422380Y-101267619D01*
X157374761Y-101362857D01*
X157374761Y-101505714D01*
X157422380Y-101600952D01*
X157470000Y-101648571D01*
X157565238Y-101696190D01*
X157946190Y-101696190D01*
X156565238Y-102124761D02*
X156660476Y-102172380D01*
X156850952Y-102172380D01*
X156946190Y-102124761D01*
X156993809Y-102029523D01*
X156993809Y-101648571D01*
X156946190Y-101553333D01*
X156850952Y-101505714D01*
X156660476Y-101505714D01*
X156565238Y-101553333D01*
X156517619Y-101648571D01*
X156517619Y-101743809D01*
X156993809Y-101839047D01*
X156231904Y-101505714D02*
X155850952Y-101505714D01*
X156089047Y-102172380D02*
X156089047Y-101315238D01*
X156041428Y-101220000D01*
X155946190Y-101172380D01*
X155850952Y-101172380D01*
%TO.C,J9*%
X151126666Y-84811904D02*
X151126666Y-85383333D01*
X151164761Y-85497619D01*
X151240952Y-85573809D01*
X151355238Y-85611904D01*
X151431428Y-85611904D01*
X150707619Y-85611904D02*
X150555238Y-85611904D01*
X150479047Y-85573809D01*
X150440952Y-85535714D01*
X150364761Y-85421428D01*
X150326666Y-85269047D01*
X150326666Y-84964285D01*
X150364761Y-84888095D01*
X150402857Y-84850000D01*
X150479047Y-84811904D01*
X150631428Y-84811904D01*
X150707619Y-84850000D01*
X150745714Y-84888095D01*
X150783809Y-84964285D01*
X150783809Y-85154761D01*
X150745714Y-85230952D01*
X150707619Y-85269047D01*
X150631428Y-85307142D01*
X150479047Y-85307142D01*
X150402857Y-85269047D01*
X150364761Y-85230952D01*
X150326666Y-85154761D01*
D11*
X157327619Y-89939910D02*
X157803809Y-90213720D01*
X157327619Y-90511339D02*
X158327619Y-90386339D01*
X158327619Y-90005386D01*
X158280000Y-89916101D01*
X158232380Y-89874434D01*
X158137142Y-89838720D01*
X157994285Y-89856577D01*
X157899047Y-89916101D01*
X157851428Y-89969672D01*
X157803809Y-90070863D01*
X157803809Y-90451815D01*
X157375238Y-89553005D02*
X157327619Y-89416101D01*
X157327619Y-89178005D01*
X157375238Y-89076815D01*
X157422857Y-89023244D01*
X157518095Y-88963720D01*
X157613333Y-88951815D01*
X157708571Y-88987529D01*
X157756190Y-89029196D01*
X157803809Y-89118482D01*
X157851428Y-89303005D01*
X157899047Y-89392291D01*
X157946666Y-89433958D01*
X158041904Y-89469672D01*
X158137142Y-89457767D01*
X158232380Y-89398244D01*
X158280000Y-89344672D01*
X158327619Y-89243482D01*
X158327619Y-89005386D01*
X158280000Y-88868482D01*
X157994285Y-88047053D02*
X157327619Y-88130386D01*
X158375238Y-88237529D02*
X157660952Y-88564910D01*
X157660952Y-87945863D01*
X157899047Y-87392291D02*
X157946666Y-87481577D01*
X157994285Y-87523244D01*
X158089523Y-87558958D01*
X158137142Y-87553005D01*
X158232380Y-87493482D01*
X158280000Y-87439910D01*
X158327619Y-87338720D01*
X158327619Y-87148244D01*
X158280000Y-87058958D01*
X158232380Y-87017291D01*
X158137142Y-86981577D01*
X158089523Y-86987529D01*
X157994285Y-87047053D01*
X157946666Y-87100625D01*
X157899047Y-87201815D01*
X157899047Y-87392291D01*
X157851428Y-87493482D01*
X157803809Y-87547053D01*
X157708571Y-87606577D01*
X157518095Y-87630386D01*
X157422857Y-87594672D01*
X157375238Y-87553005D01*
X157327619Y-87463720D01*
X157327619Y-87273244D01*
X157375238Y-87172053D01*
X157422857Y-87118482D01*
X157518095Y-87058958D01*
X157708571Y-87035148D01*
X157803809Y-87070863D01*
X157851428Y-87112529D01*
X157899047Y-87201815D01*
X158327619Y-86053005D02*
X158327619Y-86529196D01*
X157851428Y-86636339D01*
X157899047Y-86582767D01*
X157946666Y-86481577D01*
X157946666Y-86243482D01*
X157899047Y-86154196D01*
X157851428Y-86112529D01*
X157756190Y-86076815D01*
X157518095Y-86106577D01*
X157422857Y-86166101D01*
X157375238Y-86219672D01*
X157327619Y-86320863D01*
X157327619Y-86558958D01*
X157375238Y-86648244D01*
X157422857Y-86689910D01*
D12*
%TO.C,C3*%
X144393333Y-85235714D02*
X144431428Y-85273809D01*
X144545714Y-85311904D01*
X144621904Y-85311904D01*
X144736190Y-85273809D01*
X144812380Y-85197619D01*
X144850476Y-85121428D01*
X144888571Y-84969047D01*
X144888571Y-84854761D01*
X144850476Y-84702380D01*
X144812380Y-84626190D01*
X144736190Y-84550000D01*
X144621904Y-84511904D01*
X144545714Y-84511904D01*
X144431428Y-84550000D01*
X144393333Y-84588095D01*
X144126666Y-84511904D02*
X143631428Y-84511904D01*
X143898095Y-84816666D01*
X143783809Y-84816666D01*
X143707619Y-84854761D01*
X143669523Y-84892857D01*
X143631428Y-84969047D01*
X143631428Y-85159523D01*
X143669523Y-85235714D01*
X143707619Y-85273809D01*
X143783809Y-85311904D01*
X144012380Y-85311904D01*
X144088571Y-85273809D01*
X144126666Y-85235714D01*
%TO.C,TP3*%
X149389047Y-106072380D02*
X149389047Y-105072380D01*
X149055714Y-105786666D01*
X148722380Y-105072380D01*
X148722380Y-106072380D01*
X147865238Y-106024761D02*
X147960476Y-106072380D01*
X148150952Y-106072380D01*
X148246190Y-106024761D01*
X148293809Y-105929523D01*
X148293809Y-105548571D01*
X148246190Y-105453333D01*
X148150952Y-105405714D01*
X147960476Y-105405714D01*
X147865238Y-105453333D01*
X147817619Y-105548571D01*
X147817619Y-105643809D01*
X148293809Y-105739047D01*
X146960476Y-106072380D02*
X146960476Y-105548571D01*
X147008095Y-105453333D01*
X147103333Y-105405714D01*
X147293809Y-105405714D01*
X147389047Y-105453333D01*
X146960476Y-106024761D02*
X147055714Y-106072380D01*
X147293809Y-106072380D01*
X147389047Y-106024761D01*
X147436666Y-105929523D01*
X147436666Y-105834285D01*
X147389047Y-105739047D01*
X147293809Y-105691428D01*
X147055714Y-105691428D01*
X146960476Y-105643809D01*
X146531904Y-106024761D02*
X146436666Y-106072380D01*
X146246190Y-106072380D01*
X146150952Y-106024761D01*
X146103333Y-105929523D01*
X146103333Y-105881904D01*
X146150952Y-105786666D01*
X146246190Y-105739047D01*
X146389047Y-105739047D01*
X146484285Y-105691428D01*
X146531904Y-105596190D01*
X146531904Y-105548571D01*
X146484285Y-105453333D01*
X146389047Y-105405714D01*
X146246190Y-105405714D01*
X146150952Y-105453333D01*
%TO.C,C7*%
X139693333Y-86635714D02*
X139731428Y-86673809D01*
X139845714Y-86711904D01*
X139921904Y-86711904D01*
X140036190Y-86673809D01*
X140112380Y-86597619D01*
X140150476Y-86521428D01*
X140188571Y-86369047D01*
X140188571Y-86254761D01*
X140150476Y-86102380D01*
X140112380Y-86026190D01*
X140036190Y-85950000D01*
X139921904Y-85911904D01*
X139845714Y-85911904D01*
X139731428Y-85950000D01*
X139693333Y-85988095D01*
X139426666Y-85911904D02*
X138893333Y-85911904D01*
X139236190Y-86711904D01*
%TO.C,C5*%
X139093333Y-91535714D02*
X139131428Y-91573809D01*
X139245714Y-91611904D01*
X139321904Y-91611904D01*
X139436190Y-91573809D01*
X139512380Y-91497619D01*
X139550476Y-91421428D01*
X139588571Y-91269047D01*
X139588571Y-91154761D01*
X139550476Y-91002380D01*
X139512380Y-90926190D01*
X139436190Y-90850000D01*
X139321904Y-90811904D01*
X139245714Y-90811904D01*
X139131428Y-90850000D01*
X139093333Y-90888095D01*
X138369523Y-90811904D02*
X138750476Y-90811904D01*
X138788571Y-91192857D01*
X138750476Y-91154761D01*
X138674285Y-91116666D01*
X138483809Y-91116666D01*
X138407619Y-91154761D01*
X138369523Y-91192857D01*
X138331428Y-91269047D01*
X138331428Y-91459523D01*
X138369523Y-91535714D01*
X138407619Y-91573809D01*
X138483809Y-91611904D01*
X138674285Y-91611904D01*
X138750476Y-91573809D01*
X138788571Y-91535714D01*
%TO.C,J4*%
X135183809Y-95473809D02*
X135069523Y-95511904D01*
X134879047Y-95511904D01*
X134802857Y-95473809D01*
X134764761Y-95435714D01*
X134726666Y-95359523D01*
X134726666Y-95283333D01*
X134764761Y-95207142D01*
X134802857Y-95169047D01*
X134879047Y-95130952D01*
X135031428Y-95092857D01*
X135107619Y-95054761D01*
X135145714Y-95016666D01*
X135183809Y-94940476D01*
X135183809Y-94864285D01*
X135145714Y-94788095D01*
X135107619Y-94750000D01*
X135031428Y-94711904D01*
X134840952Y-94711904D01*
X134726666Y-94750000D01*
X134383809Y-95207142D02*
X133774285Y-95207142D01*
%TO.C,TP2*%
X158065238Y-66232380D02*
X158065238Y-65232380D01*
X157827142Y-65232380D01*
X157684285Y-65280000D01*
X157589047Y-65375238D01*
X157541428Y-65470476D01*
X157493809Y-65660952D01*
X157493809Y-65803809D01*
X157541428Y-65994285D01*
X157589047Y-66089523D01*
X157684285Y-66184761D01*
X157827142Y-66232380D01*
X158065238Y-66232380D01*
X156684285Y-66184761D02*
X156779523Y-66232380D01*
X156970000Y-66232380D01*
X157065238Y-66184761D01*
X157112857Y-66089523D01*
X157112857Y-65708571D01*
X157065238Y-65613333D01*
X156970000Y-65565714D01*
X156779523Y-65565714D01*
X156684285Y-65613333D01*
X156636666Y-65708571D01*
X156636666Y-65803809D01*
X157112857Y-65899047D01*
X156255714Y-66184761D02*
X156160476Y-66232380D01*
X155970000Y-66232380D01*
X155874761Y-66184761D01*
X155827142Y-66089523D01*
X155827142Y-66041904D01*
X155874761Y-65946666D01*
X155970000Y-65899047D01*
X156112857Y-65899047D01*
X156208095Y-65851428D01*
X156255714Y-65756190D01*
X156255714Y-65708571D01*
X156208095Y-65613333D01*
X156112857Y-65565714D01*
X155970000Y-65565714D01*
X155874761Y-65613333D01*
%TO.C,C16*%
X144774285Y-77435714D02*
X144812380Y-77473809D01*
X144926666Y-77511904D01*
X145002857Y-77511904D01*
X145117142Y-77473809D01*
X145193333Y-77397619D01*
X145231428Y-77321428D01*
X145269523Y-77169047D01*
X145269523Y-77054761D01*
X145231428Y-76902380D01*
X145193333Y-76826190D01*
X145117142Y-76750000D01*
X145002857Y-76711904D01*
X144926666Y-76711904D01*
X144812380Y-76750000D01*
X144774285Y-76788095D01*
X144012380Y-77511904D02*
X144469523Y-77511904D01*
X144240952Y-77511904D02*
X144240952Y-76711904D01*
X144317142Y-76826190D01*
X144393333Y-76902380D01*
X144469523Y-76940476D01*
X143326666Y-76711904D02*
X143479047Y-76711904D01*
X143555238Y-76750000D01*
X143593333Y-76788095D01*
X143669523Y-76902380D01*
X143707619Y-77054761D01*
X143707619Y-77359523D01*
X143669523Y-77435714D01*
X143631428Y-77473809D01*
X143555238Y-77511904D01*
X143402857Y-77511904D01*
X143326666Y-77473809D01*
X143288571Y-77435714D01*
X143250476Y-77359523D01*
X143250476Y-77169047D01*
X143288571Y-77092857D01*
X143326666Y-77054761D01*
X143402857Y-77016666D01*
X143555238Y-77016666D01*
X143631428Y-77054761D01*
X143669523Y-77092857D01*
X143707619Y-77169047D01*
%TO.C,TP8*%
X130631904Y-65270000D02*
X130727142Y-65222380D01*
X130870000Y-65222380D01*
X131012857Y-65270000D01*
X131108095Y-65365238D01*
X131155714Y-65460476D01*
X131203333Y-65650952D01*
X131203333Y-65793809D01*
X131155714Y-65984285D01*
X131108095Y-66079523D01*
X131012857Y-66174761D01*
X130870000Y-66222380D01*
X130774761Y-66222380D01*
X130631904Y-66174761D01*
X130584285Y-66127142D01*
X130584285Y-65793809D01*
X130774761Y-65793809D01*
X130155714Y-66222380D02*
X130155714Y-65222380D01*
X129584285Y-66222380D01*
X129584285Y-65222380D01*
X129108095Y-66222380D02*
X129108095Y-65222380D01*
X128870000Y-65222380D01*
X128727142Y-65270000D01*
X128631904Y-65365238D01*
X128584285Y-65460476D01*
X128536666Y-65650952D01*
X128536666Y-65793809D01*
X128584285Y-65984285D01*
X128631904Y-66079523D01*
X128727142Y-66174761D01*
X128870000Y-66222380D01*
X129108095Y-66222380D01*
X128108095Y-66222380D02*
X128108095Y-65222380D01*
X127870000Y-65222380D01*
X127727142Y-65270000D01*
X127631904Y-65365238D01*
X127584285Y-65460476D01*
X127536666Y-65650952D01*
X127536666Y-65793809D01*
X127584285Y-65984285D01*
X127631904Y-66079523D01*
X127727142Y-66174761D01*
X127870000Y-66222380D01*
X128108095Y-66222380D01*
%TO.C,C9*%
X149126666Y-92607142D02*
X149174285Y-92654761D01*
X149317142Y-92702380D01*
X149412380Y-92702380D01*
X149555238Y-92654761D01*
X149650476Y-92559523D01*
X149698095Y-92464285D01*
X149745714Y-92273809D01*
X149745714Y-92130952D01*
X149698095Y-91940476D01*
X149650476Y-91845238D01*
X149555238Y-91750000D01*
X149412380Y-91702380D01*
X149317142Y-91702380D01*
X149174285Y-91750000D01*
X149126666Y-91797619D01*
X148650476Y-92702380D02*
X148460000Y-92702380D01*
X148364761Y-92654761D01*
X148317142Y-92607142D01*
X148221904Y-92464285D01*
X148174285Y-92273809D01*
X148174285Y-91892857D01*
X148221904Y-91797619D01*
X148269523Y-91750000D01*
X148364761Y-91702380D01*
X148555238Y-91702380D01*
X148650476Y-91750000D01*
X148698095Y-91797619D01*
X148745714Y-91892857D01*
X148745714Y-92130952D01*
X148698095Y-92226190D01*
X148650476Y-92273809D01*
X148555238Y-92321428D01*
X148364761Y-92321428D01*
X148269523Y-92273809D01*
X148221904Y-92226190D01*
X148174285Y-92130952D01*
D13*
%TO.C,C13*%
X140995000Y-82811252D02*
X140995000Y-82288748D01*
X139525000Y-82811252D02*
X139525000Y-82288748D01*
%TO.C,C14*%
X148995000Y-85588748D02*
X148995000Y-86111252D01*
X147525000Y-85588748D02*
X147525000Y-86111252D01*
%TO.C,J8*%
X156315000Y-79185000D02*
X148575000Y-79185000D01*
X154985000Y-81895000D02*
X156255000Y-81895000D01*
X149525000Y-70525000D02*
X149525000Y-76525000D01*
X154605000Y-79515000D02*
X154605000Y-79185000D01*
X148575000Y-79185000D02*
X148575000Y-76525000D01*
X152825000Y-76525000D02*
X152825000Y-70525000D01*
X150285000Y-76525000D02*
X150285000Y-70525000D01*
X152065000Y-79582071D02*
X152065000Y-79185000D01*
X155365000Y-76525000D02*
X155365000Y-70525000D01*
X148575000Y-76525000D02*
X156315000Y-76525000D01*
X150285000Y-79582071D02*
X150285000Y-79185000D01*
X151175000Y-79185000D02*
X151175000Y-76525000D01*
X154605000Y-70525000D02*
X154605000Y-76525000D01*
X156315000Y-76525000D02*
X156315000Y-79185000D01*
X152825000Y-79582071D02*
X152825000Y-79185000D01*
X149525000Y-79582071D02*
X149525000Y-79185000D01*
X153715000Y-79185000D02*
X153715000Y-76525000D01*
X152825000Y-70525000D02*
X152065000Y-70525000D01*
X155365000Y-70525000D02*
X154605000Y-70525000D01*
X150285000Y-70525000D02*
X149525000Y-70525000D01*
X155365000Y-79515000D02*
X155365000Y-79185000D01*
X156255000Y-81895000D02*
X156255000Y-80625000D01*
X152065000Y-70525000D02*
X152065000Y-76525000D01*
%TO.C,TP6*%
X130570000Y-103560000D02*
G75*
G03*
X130570000Y-103560000I-1200000J0D01*
G01*
%TO.C,U1*%
X145323261Y-91553300D02*
X144596739Y-91553300D01*
X143309000Y-91553300D02*
X143309000Y-89546700D01*
X146611000Y-89546700D02*
X146611000Y-91553300D01*
%TO.C,TP1*%
X139770000Y-107440000D02*
G75*
G03*
X139770000Y-107440000I-1200000J0D01*
G01*
%TO.C,TP7*%
X148970000Y-59960000D02*
G75*
G03*
X148970000Y-59960000I-1200000J0D01*
G01*
%TO.C,C4*%
X144698748Y-94815000D02*
X145221252Y-94815000D01*
X144698748Y-96285000D02*
X145221252Y-96285000D01*
%TO.C,J1*%
X133465000Y-79582071D02*
X133465000Y-79185000D01*
X136765000Y-79515000D02*
X136765000Y-79185000D01*
X135115000Y-79185000D02*
X135115000Y-76525000D01*
X137715000Y-79185000D02*
X129975000Y-79185000D01*
X136385000Y-81895000D02*
X137655000Y-81895000D01*
X134225000Y-79582071D02*
X134225000Y-79185000D01*
X132575000Y-79185000D02*
X132575000Y-76525000D01*
X131685000Y-79582071D02*
X131685000Y-79185000D01*
X131685000Y-76525000D02*
X131685000Y-70525000D01*
X136765000Y-70525000D02*
X136005000Y-70525000D01*
X137715000Y-76525000D02*
X137715000Y-79185000D01*
X130925000Y-79582071D02*
X130925000Y-79185000D01*
X134225000Y-70525000D02*
X133465000Y-70525000D01*
X129975000Y-76525000D02*
X137715000Y-76525000D01*
X136005000Y-70525000D02*
X136005000Y-76525000D01*
X129975000Y-79185000D02*
X129975000Y-76525000D01*
X136765000Y-76525000D02*
X136765000Y-70525000D01*
X136005000Y-79515000D02*
X136005000Y-79185000D01*
X131685000Y-70525000D02*
X130925000Y-70525000D01*
X130925000Y-70525000D02*
X130925000Y-76525000D01*
X134225000Y-76525000D02*
X134225000Y-70525000D01*
X137655000Y-81895000D02*
X137655000Y-80625000D01*
X133465000Y-70525000D02*
X133465000Y-76525000D01*
%TO.C,J6*%
X138925000Y-74960000D02*
X140725000Y-74960000D01*
X147395000Y-74960000D02*
X145595000Y-74960000D01*
X138925000Y-73510000D02*
X138925000Y-74960000D01*
X140195000Y-70690000D02*
X146125000Y-70690000D01*
X140725000Y-74960000D02*
X140725000Y-75950000D01*
X147395000Y-73510000D02*
X147395000Y-74960000D01*
%TO.C,U4*%
X143456700Y-80799000D02*
X145463300Y-80799000D01*
X145463300Y-84101000D02*
X143456700Y-84101000D01*
X145463300Y-82086739D02*
X145463300Y-82813261D01*
%TO.C,TP5*%
X139770000Y-59960000D02*
G75*
G03*
X139770000Y-59960000I-1200000J0D01*
G01*
%TO.C,J7*%
X133020000Y-92485000D02*
X134470000Y-92485000D01*
X134470000Y-84015000D02*
X134470000Y-85815000D01*
X130200000Y-91215000D02*
X130200000Y-85285000D01*
X134470000Y-90685000D02*
X135460000Y-90685000D01*
X134470000Y-92485000D02*
X134470000Y-90685000D01*
X133020000Y-84015000D02*
X134470000Y-84015000D01*
%TO.C,TP4*%
X158170000Y-103560000D02*
G75*
G03*
X158170000Y-103560000I-1200000J0D01*
G01*
%TO.C,J9*%
X156120000Y-85285000D02*
X156120000Y-91215000D01*
X151850000Y-84015000D02*
X151850000Y-85815000D01*
X153300000Y-92485000D02*
X151850000Y-92485000D01*
X151850000Y-85815000D02*
X150860000Y-85815000D01*
X151850000Y-92485000D02*
X151850000Y-90685000D01*
X153300000Y-84015000D02*
X151850000Y-84015000D01*
%TO.C,C3*%
X143998748Y-85615000D02*
X144521252Y-85615000D01*
X143998748Y-87085000D02*
X144521252Y-87085000D01*
%TO.C,TP3*%
X148970000Y-107440000D02*
G75*
G03*
X148970000Y-107440000I-1200000J0D01*
G01*
%TO.C,C7*%
X140295000Y-88388748D02*
X140295000Y-88911252D01*
X138825000Y-88388748D02*
X138825000Y-88911252D01*
%TO.C,C5*%
X139221252Y-91915000D02*
X138698748Y-91915000D01*
X139221252Y-93385000D02*
X138698748Y-93385000D01*
%TO.C,TP2*%
X158170000Y-63840000D02*
G75*
G03*
X158170000Y-63840000I-1200000J0D01*
G01*
%TO.C,C16*%
X144521252Y-79285000D02*
X143998748Y-79285000D01*
X144521252Y-77815000D02*
X143998748Y-77815000D01*
%TO.C,TP8*%
X130570000Y-63840000D02*
G75*
G03*
X130570000Y-63840000I-1200000J0D01*
G01*
%TO.C,C9*%
X148225000Y-94388748D02*
X148225000Y-94911252D01*
X149695000Y-94388748D02*
X149695000Y-94911252D01*
%TD*%
M02*
