%TF.GenerationSoftware,KiCad,Pcbnew,6.0.10-86aedd382b~118~ubuntu20.04.1*%
%TF.CreationDate,2023-01-12T10:33:16+01:00*%
%TF.ProjectId,thrust_controller,74687275-7374-45f6-936f-6e74726f6c6c,rev?*%
%TF.SameCoordinates,Original*%
%TF.FileFunction,Soldermask,Bot*%
%TF.FilePolarity,Negative*%
%FSLAX46Y46*%
G04 Gerber Fmt 4.6, Leading zero omitted, Abs format (unit mm)*
G04 Created by KiCad (PCBNEW 6.0.10-86aedd382b~118~ubuntu20.04.1) date 2023-01-12 10:33:16*
%MOMM*%
%LPD*%
G01*
G04 APERTURE LIST*
G04 Aperture macros list*
%AMRoundRect*
0 Rectangle with rounded corners*
0 $1 Rounding radius*
0 $2 $3 $4 $5 $6 $7 $8 $9 X,Y pos of 4 corners*
0 Add a 4 corners polygon primitive as box body*
4,1,4,$2,$3,$4,$5,$6,$7,$8,$9,$2,$3,0*
0 Add four circle primitives for the rounded corners*
1,1,$1+$1,$2,$3*
1,1,$1+$1,$4,$5*
1,1,$1+$1,$6,$7*
1,1,$1+$1,$8,$9*
0 Add four rect primitives between the rounded corners*
20,1,$1+$1,$2,$3,$4,$5,0*
20,1,$1+$1,$4,$5,$6,$7,0*
20,1,$1+$1,$6,$7,$8,$9,0*
20,1,$1+$1,$8,$9,$2,$3,0*%
G04 Aperture macros list end*
%TA.AperFunction,Profile*%
%ADD10C,0.200000*%
%TD*%
%ADD11C,6.400000*%
%ADD12C,1.400000*%
%ADD13O,1.400000X1.400000*%
%ADD14RoundRect,0.250000X0.475000X-0.337500X0.475000X0.337500X-0.475000X0.337500X-0.475000X-0.337500X0*%
%ADD15RoundRect,0.250000X-0.475000X0.337500X-0.475000X-0.337500X0.475000X-0.337500X0.475000X0.337500X0*%
%ADD16RoundRect,0.500000X-0.500000X-1.500000X0.500000X-1.500000X0.500000X1.500000X-0.500000X1.500000X0*%
%ADD17RoundRect,0.425000X0.425000X-1.325000X0.425000X1.325000X-0.425000X1.325000X-0.425000X-1.325000X0*%
%ADD18C,2.000000*%
%ADD19RoundRect,0.500000X0.500000X1.500000X-0.500000X1.500000X-0.500000X-1.500000X0.500000X-1.500000X0*%
%ADD20RoundRect,0.127000X-0.127000X0.623000X-0.127000X-0.623000X0.127000X-0.623000X0.127000X0.623000X0*%
%ADD21RoundRect,0.250000X-0.337500X-0.475000X0.337500X-0.475000X0.337500X0.475000X-0.337500X0.475000X0*%
%ADD22RoundRect,0.150000X-0.150000X-1.200000X0.150000X-1.200000X0.150000X1.200000X-0.150000X1.200000X0*%
%ADD23RoundRect,0.500000X-0.500000X-0.850000X0.500000X-0.850000X0.500000X0.850000X-0.500000X0.850000X0*%
%ADD24RoundRect,0.127000X-0.623000X-0.127000X0.623000X-0.127000X0.623000X0.127000X-0.623000X0.127000X0*%
%ADD25RoundRect,0.150000X1.200000X-0.150000X1.200000X0.150000X-1.200000X0.150000X-1.200000X-0.150000X0*%
%ADD26RoundRect,0.500000X0.850000X-0.500000X0.850000X0.500000X-0.850000X0.500000X-0.850000X-0.500000X0*%
%ADD27RoundRect,0.150000X-1.200000X0.150000X-1.200000X-0.150000X1.200000X-0.150000X1.200000X0.150000X0*%
%ADD28RoundRect,0.500000X-0.850000X0.500000X-0.850000X-0.500000X0.850000X-0.500000X0.850000X0.500000X0*%
%ADD29RoundRect,0.250000X0.337500X0.475000X-0.337500X0.475000X-0.337500X-0.475000X0.337500X-0.475000X0*%
G04 APERTURE END LIST*
D10*
X169350000Y-83700000D02*
G75*
G03*
X169350000Y-83700000I-26180000J0D01*
G01*
D11*
%TO.C,H2*%
X163300000Y-75700000D03*
%TD*%
D12*
%TO.C,R6*%
X137020000Y-89850000D03*
D13*
X142100000Y-89850000D03*
%TD*%
D11*
%TO.C,H1*%
X123040000Y-75700000D03*
%TD*%
D14*
%TO.C,C13*%
X140260000Y-83587500D03*
X140260000Y-81512500D03*
%TD*%
D15*
%TO.C,C14*%
X148260000Y-84812500D03*
X148260000Y-86887500D03*
%TD*%
D16*
%TO.C,J2*%
X139793334Y-97850000D03*
%TD*%
D17*
%TO.C,J8*%
X154985000Y-80625000D03*
X152445000Y-80625000D03*
X149905000Y-80625000D03*
%TD*%
D18*
%TO.C,TP6*%
X129370000Y-103560000D03*
%TD*%
D19*
%TO.C,J5*%
X131793334Y-97850000D03*
%TD*%
D20*
%TO.C,U1*%
X144009999Y-89187549D03*
X144960000Y-89187549D03*
X145910001Y-89187549D03*
X145910001Y-91912451D03*
X144009999Y-91912451D03*
%TD*%
D18*
%TO.C,TP1*%
X138570000Y-107440000D03*
%TD*%
%TO.C,TP7*%
X147770000Y-59960000D03*
%TD*%
D21*
%TO.C,C4*%
X143922500Y-95550000D03*
X145997500Y-95550000D03*
%TD*%
D17*
%TO.C,J1*%
X136385000Y-80625000D03*
X133845000Y-80625000D03*
X131305000Y-80625000D03*
%TD*%
D22*
%TO.C,J6*%
X141285000Y-75100000D03*
X142535000Y-75100000D03*
X143785000Y-75100000D03*
X145035000Y-75100000D03*
D23*
X139435000Y-71900000D03*
X146885000Y-71900000D03*
%TD*%
D24*
%TO.C,U4*%
X143097549Y-83400001D03*
X143097549Y-82450000D03*
X143097549Y-81499999D03*
X145822451Y-81499999D03*
X145822451Y-83400001D03*
%TD*%
D19*
%TO.C,J3*%
X137126666Y-97850000D03*
%TD*%
D18*
%TO.C,TP5*%
X138570000Y-59960000D03*
%TD*%
D25*
%TO.C,J7*%
X134610000Y-90125000D03*
X134610000Y-88875000D03*
X134610000Y-87625000D03*
X134610000Y-86375000D03*
D26*
X131410000Y-84525000D03*
X131410000Y-91975000D03*
%TD*%
D18*
%TO.C,TP4*%
X156970000Y-103560000D03*
%TD*%
D27*
%TO.C,J9*%
X151710000Y-86375000D03*
X151710000Y-87625000D03*
X151710000Y-88875000D03*
X151710000Y-90125000D03*
D28*
X154910000Y-84525000D03*
X154910000Y-91975000D03*
%TD*%
D21*
%TO.C,C3*%
X143222500Y-86350000D03*
X145297500Y-86350000D03*
%TD*%
D18*
%TO.C,TP3*%
X147770000Y-107440000D03*
%TD*%
D15*
%TO.C,C7*%
X139560000Y-87612500D03*
X139560000Y-89687500D03*
%TD*%
D29*
%TO.C,C5*%
X139997500Y-92650000D03*
X137922500Y-92650000D03*
%TD*%
D19*
%TO.C,J4*%
X134460000Y-97850000D03*
%TD*%
D18*
%TO.C,TP2*%
X156970000Y-63840000D03*
%TD*%
D29*
%TO.C,C16*%
X145297500Y-78550000D03*
X143222500Y-78550000D03*
%TD*%
D18*
%TO.C,TP8*%
X129370000Y-63840000D03*
%TD*%
D15*
%TO.C,C9*%
X148960000Y-93612500D03*
X148960000Y-95687500D03*
%TD*%
M02*
