%TF.GenerationSoftware,KiCad,Pcbnew,6.0.10-86aedd382b~118~ubuntu20.04.1*%
%TF.CreationDate,2023-01-12T10:33:16+01:00*%
%TF.ProjectId,thrust_controller,74687275-7374-45f6-936f-6e74726f6c6c,rev?*%
%TF.SameCoordinates,Original*%
%TF.FileFunction,Legend,Top*%
%TF.FilePolarity,Positive*%
%FSLAX46Y46*%
G04 Gerber Fmt 4.6, Leading zero omitted, Abs format (unit mm)*
G04 Created by KiCad (PCBNEW 6.0.10-86aedd382b~118~ubuntu20.04.1) date 2023-01-12 10:33:16*
%MOMM*%
%LPD*%
G01*
G04 APERTURE LIST*
%TA.AperFunction,Profile*%
%ADD10C,0.200000*%
%TD*%
%ADD11C,0.150000*%
%ADD12C,0.120000*%
G04 APERTURE END LIST*
D10*
X169350000Y-83700000D02*
G75*
G03*
X169350000Y-83700000I-26180000J0D01*
G01*
D11*
%TO.C,D1*%
X131869523Y-73211904D02*
X131869523Y-72411904D01*
X132060000Y-72411904D01*
X132174285Y-72450000D01*
X132250476Y-72526190D01*
X132288571Y-72602380D01*
X132326666Y-72754761D01*
X132326666Y-72869047D01*
X132288571Y-73021428D01*
X132250476Y-73097619D01*
X132174285Y-73173809D01*
X132060000Y-73211904D01*
X131869523Y-73211904D01*
X133088571Y-73211904D02*
X132631428Y-73211904D01*
X132860000Y-73211904D02*
X132860000Y-72411904D01*
X132783809Y-72526190D01*
X132707619Y-72602380D01*
X132631428Y-72640476D01*
%TO.C,C21*%
X127845714Y-74935714D02*
X127807619Y-74973809D01*
X127693333Y-75011904D01*
X127617142Y-75011904D01*
X127502857Y-74973809D01*
X127426666Y-74897619D01*
X127388571Y-74821428D01*
X127350476Y-74669047D01*
X127350476Y-74554761D01*
X127388571Y-74402380D01*
X127426666Y-74326190D01*
X127502857Y-74250000D01*
X127617142Y-74211904D01*
X127693333Y-74211904D01*
X127807619Y-74250000D01*
X127845714Y-74288095D01*
X128150476Y-74288095D02*
X128188571Y-74250000D01*
X128264761Y-74211904D01*
X128455238Y-74211904D01*
X128531428Y-74250000D01*
X128569523Y-74288095D01*
X128607619Y-74364285D01*
X128607619Y-74440476D01*
X128569523Y-74554761D01*
X128112380Y-75011904D01*
X128607619Y-75011904D01*
X129369523Y-75011904D02*
X128912380Y-75011904D01*
X129140952Y-75011904D02*
X129140952Y-74211904D01*
X129064761Y-74326190D01*
X128988571Y-74402380D01*
X128912380Y-74440476D01*
%TO.C,C11*%
X127845714Y-93535714D02*
X127807619Y-93573809D01*
X127693333Y-93611904D01*
X127617142Y-93611904D01*
X127502857Y-93573809D01*
X127426666Y-93497619D01*
X127388571Y-93421428D01*
X127350476Y-93269047D01*
X127350476Y-93154761D01*
X127388571Y-93002380D01*
X127426666Y-92926190D01*
X127502857Y-92850000D01*
X127617142Y-92811904D01*
X127693333Y-92811904D01*
X127807619Y-92850000D01*
X127845714Y-92888095D01*
X128607619Y-93611904D02*
X128150476Y-93611904D01*
X128379047Y-93611904D02*
X128379047Y-92811904D01*
X128302857Y-92926190D01*
X128226666Y-93002380D01*
X128150476Y-93040476D01*
X129369523Y-93611904D02*
X128912380Y-93611904D01*
X129140952Y-93611904D02*
X129140952Y-92811904D01*
X129064761Y-92926190D01*
X128988571Y-93002380D01*
X128912380Y-93040476D01*
%TO.C,R1*%
X148326666Y-88711904D02*
X148060000Y-88330952D01*
X147869523Y-88711904D02*
X147869523Y-87911904D01*
X148174285Y-87911904D01*
X148250476Y-87950000D01*
X148288571Y-87988095D01*
X148326666Y-88064285D01*
X148326666Y-88178571D01*
X148288571Y-88254761D01*
X148250476Y-88292857D01*
X148174285Y-88330952D01*
X147869523Y-88330952D01*
X149088571Y-88711904D02*
X148631428Y-88711904D01*
X148860000Y-88711904D02*
X148860000Y-87911904D01*
X148783809Y-88026190D01*
X148707619Y-88102380D01*
X148631428Y-88140476D01*
%TO.C,C6*%
X128626666Y-81135714D02*
X128588571Y-81173809D01*
X128474285Y-81211904D01*
X128398095Y-81211904D01*
X128283809Y-81173809D01*
X128207619Y-81097619D01*
X128169523Y-81021428D01*
X128131428Y-80869047D01*
X128131428Y-80754761D01*
X128169523Y-80602380D01*
X128207619Y-80526190D01*
X128283809Y-80450000D01*
X128398095Y-80411904D01*
X128474285Y-80411904D01*
X128588571Y-80450000D01*
X128626666Y-80488095D01*
X129312380Y-80411904D02*
X129160000Y-80411904D01*
X129083809Y-80450000D01*
X129045714Y-80488095D01*
X128969523Y-80602380D01*
X128931428Y-80754761D01*
X128931428Y-81059523D01*
X128969523Y-81135714D01*
X129007619Y-81173809D01*
X129083809Y-81211904D01*
X129236190Y-81211904D01*
X129312380Y-81173809D01*
X129350476Y-81135714D01*
X129388571Y-81059523D01*
X129388571Y-80869047D01*
X129350476Y-80792857D01*
X129312380Y-80754761D01*
X129236190Y-80716666D01*
X129083809Y-80716666D01*
X129007619Y-80754761D01*
X128969523Y-80792857D01*
X128931428Y-80869047D01*
%TO.C,C19*%
X147745714Y-78935714D02*
X147707619Y-78973809D01*
X147593333Y-79011904D01*
X147517142Y-79011904D01*
X147402857Y-78973809D01*
X147326666Y-78897619D01*
X147288571Y-78821428D01*
X147250476Y-78669047D01*
X147250476Y-78554761D01*
X147288571Y-78402380D01*
X147326666Y-78326190D01*
X147402857Y-78250000D01*
X147517142Y-78211904D01*
X147593333Y-78211904D01*
X147707619Y-78250000D01*
X147745714Y-78288095D01*
X148507619Y-79011904D02*
X148050476Y-79011904D01*
X148279047Y-79011904D02*
X148279047Y-78211904D01*
X148202857Y-78326190D01*
X148126666Y-78402380D01*
X148050476Y-78440476D01*
X148888571Y-79011904D02*
X149040952Y-79011904D01*
X149117142Y-78973809D01*
X149155238Y-78935714D01*
X149231428Y-78821428D01*
X149269523Y-78669047D01*
X149269523Y-78364285D01*
X149231428Y-78288095D01*
X149193333Y-78250000D01*
X149117142Y-78211904D01*
X148964761Y-78211904D01*
X148888571Y-78250000D01*
X148850476Y-78288095D01*
X148812380Y-78364285D01*
X148812380Y-78554761D01*
X148850476Y-78630952D01*
X148888571Y-78669047D01*
X148964761Y-78707142D01*
X149117142Y-78707142D01*
X149193333Y-78669047D01*
X149231428Y-78630952D01*
X149269523Y-78554761D01*
%TO.C,C15*%
X147745714Y-83835714D02*
X147707619Y-83873809D01*
X147593333Y-83911904D01*
X147517142Y-83911904D01*
X147402857Y-83873809D01*
X147326666Y-83797619D01*
X147288571Y-83721428D01*
X147250476Y-83569047D01*
X147250476Y-83454761D01*
X147288571Y-83302380D01*
X147326666Y-83226190D01*
X147402857Y-83150000D01*
X147517142Y-83111904D01*
X147593333Y-83111904D01*
X147707619Y-83150000D01*
X147745714Y-83188095D01*
X148507619Y-83911904D02*
X148050476Y-83911904D01*
X148279047Y-83911904D02*
X148279047Y-83111904D01*
X148202857Y-83226190D01*
X148126666Y-83302380D01*
X148050476Y-83340476D01*
X149231428Y-83111904D02*
X148850476Y-83111904D01*
X148812380Y-83492857D01*
X148850476Y-83454761D01*
X148926666Y-83416666D01*
X149117142Y-83416666D01*
X149193333Y-83454761D01*
X149231428Y-83492857D01*
X149269523Y-83569047D01*
X149269523Y-83759523D01*
X149231428Y-83835714D01*
X149193333Y-83873809D01*
X149117142Y-83911904D01*
X148926666Y-83911904D01*
X148850476Y-83873809D01*
X148812380Y-83835714D01*
%TO.C,C1*%
X143826666Y-90935714D02*
X143788571Y-90973809D01*
X143674285Y-91011904D01*
X143598095Y-91011904D01*
X143483809Y-90973809D01*
X143407619Y-90897619D01*
X143369523Y-90821428D01*
X143331428Y-90669047D01*
X143331428Y-90554761D01*
X143369523Y-90402380D01*
X143407619Y-90326190D01*
X143483809Y-90250000D01*
X143598095Y-90211904D01*
X143674285Y-90211904D01*
X143788571Y-90250000D01*
X143826666Y-90288095D01*
X144588571Y-91011904D02*
X144131428Y-91011904D01*
X144360000Y-91011904D02*
X144360000Y-90211904D01*
X144283809Y-90326190D01*
X144207619Y-90402380D01*
X144131428Y-90440476D01*
%TO.C,U6*%
X139700476Y-79594404D02*
X139700476Y-80242023D01*
X139738571Y-80318214D01*
X139776666Y-80356309D01*
X139852857Y-80394404D01*
X140005238Y-80394404D01*
X140081428Y-80356309D01*
X140119523Y-80318214D01*
X140157619Y-80242023D01*
X140157619Y-79594404D01*
X140881428Y-79594404D02*
X140729047Y-79594404D01*
X140652857Y-79632500D01*
X140614761Y-79670595D01*
X140538571Y-79784880D01*
X140500476Y-79937261D01*
X140500476Y-80242023D01*
X140538571Y-80318214D01*
X140576666Y-80356309D01*
X140652857Y-80394404D01*
X140805238Y-80394404D01*
X140881428Y-80356309D01*
X140919523Y-80318214D01*
X140957619Y-80242023D01*
X140957619Y-80051547D01*
X140919523Y-79975357D01*
X140881428Y-79937261D01*
X140805238Y-79899166D01*
X140652857Y-79899166D01*
X140576666Y-79937261D01*
X140538571Y-79975357D01*
X140500476Y-80051547D01*
%TO.C,C17*%
X153945714Y-78935714D02*
X153907619Y-78973809D01*
X153793333Y-79011904D01*
X153717142Y-79011904D01*
X153602857Y-78973809D01*
X153526666Y-78897619D01*
X153488571Y-78821428D01*
X153450476Y-78669047D01*
X153450476Y-78554761D01*
X153488571Y-78402380D01*
X153526666Y-78326190D01*
X153602857Y-78250000D01*
X153717142Y-78211904D01*
X153793333Y-78211904D01*
X153907619Y-78250000D01*
X153945714Y-78288095D01*
X154707619Y-79011904D02*
X154250476Y-79011904D01*
X154479047Y-79011904D02*
X154479047Y-78211904D01*
X154402857Y-78326190D01*
X154326666Y-78402380D01*
X154250476Y-78440476D01*
X154974285Y-78211904D02*
X155507619Y-78211904D01*
X155164761Y-79011904D01*
%TO.C,C2*%
X147126666Y-91835714D02*
X147088571Y-91873809D01*
X146974285Y-91911904D01*
X146898095Y-91911904D01*
X146783809Y-91873809D01*
X146707619Y-91797619D01*
X146669523Y-91721428D01*
X146631428Y-91569047D01*
X146631428Y-91454761D01*
X146669523Y-91302380D01*
X146707619Y-91226190D01*
X146783809Y-91150000D01*
X146898095Y-91111904D01*
X146974285Y-91111904D01*
X147088571Y-91150000D01*
X147126666Y-91188095D01*
X147431428Y-91188095D02*
X147469523Y-91150000D01*
X147545714Y-91111904D01*
X147736190Y-91111904D01*
X147812380Y-91150000D01*
X147850476Y-91188095D01*
X147888571Y-91264285D01*
X147888571Y-91340476D01*
X147850476Y-91454761D01*
X147393333Y-91911904D01*
X147888571Y-91911904D01*
%TO.C,U2*%
X152450476Y-97681904D02*
X152450476Y-98329523D01*
X152488571Y-98405714D01*
X152526666Y-98443809D01*
X152602857Y-98481904D01*
X152755238Y-98481904D01*
X152831428Y-98443809D01*
X152869523Y-98405714D01*
X152907619Y-98329523D01*
X152907619Y-97681904D01*
X153250476Y-97758095D02*
X153288571Y-97720000D01*
X153364761Y-97681904D01*
X153555238Y-97681904D01*
X153631428Y-97720000D01*
X153669523Y-97758095D01*
X153707619Y-97834285D01*
X153707619Y-97910476D01*
X153669523Y-98024761D01*
X153212380Y-98481904D01*
X153707619Y-98481904D01*
X155770000Y-97142380D02*
X155770000Y-97380476D01*
X155531904Y-97285238D02*
X155770000Y-97380476D01*
X156008095Y-97285238D01*
X155627142Y-97570952D02*
X155770000Y-97380476D01*
X155912857Y-97570952D01*
%TO.C,C18*%
X150845714Y-78935714D02*
X150807619Y-78973809D01*
X150693333Y-79011904D01*
X150617142Y-79011904D01*
X150502857Y-78973809D01*
X150426666Y-78897619D01*
X150388571Y-78821428D01*
X150350476Y-78669047D01*
X150350476Y-78554761D01*
X150388571Y-78402380D01*
X150426666Y-78326190D01*
X150502857Y-78250000D01*
X150617142Y-78211904D01*
X150693333Y-78211904D01*
X150807619Y-78250000D01*
X150845714Y-78288095D01*
X151607619Y-79011904D02*
X151150476Y-79011904D01*
X151379047Y-79011904D02*
X151379047Y-78211904D01*
X151302857Y-78326190D01*
X151226666Y-78402380D01*
X151150476Y-78440476D01*
X152064761Y-78554761D02*
X151988571Y-78516666D01*
X151950476Y-78478571D01*
X151912380Y-78402380D01*
X151912380Y-78364285D01*
X151950476Y-78288095D01*
X151988571Y-78250000D01*
X152064761Y-78211904D01*
X152217142Y-78211904D01*
X152293333Y-78250000D01*
X152331428Y-78288095D01*
X152369523Y-78364285D01*
X152369523Y-78402380D01*
X152331428Y-78478571D01*
X152293333Y-78516666D01*
X152217142Y-78554761D01*
X152064761Y-78554761D01*
X151988571Y-78592857D01*
X151950476Y-78630952D01*
X151912380Y-78707142D01*
X151912380Y-78859523D01*
X151950476Y-78935714D01*
X151988571Y-78973809D01*
X152064761Y-79011904D01*
X152217142Y-79011904D01*
X152293333Y-78973809D01*
X152331428Y-78935714D01*
X152369523Y-78859523D01*
X152369523Y-78707142D01*
X152331428Y-78630952D01*
X152293333Y-78592857D01*
X152217142Y-78554761D01*
%TO.C,R5*%
X134826666Y-73211904D02*
X134560000Y-72830952D01*
X134369523Y-73211904D02*
X134369523Y-72411904D01*
X134674285Y-72411904D01*
X134750476Y-72450000D01*
X134788571Y-72488095D01*
X134826666Y-72564285D01*
X134826666Y-72678571D01*
X134788571Y-72754761D01*
X134750476Y-72792857D01*
X134674285Y-72830952D01*
X134369523Y-72830952D01*
X135550476Y-72411904D02*
X135169523Y-72411904D01*
X135131428Y-72792857D01*
X135169523Y-72754761D01*
X135245714Y-72716666D01*
X135436190Y-72716666D01*
X135512380Y-72754761D01*
X135550476Y-72792857D01*
X135588571Y-72869047D01*
X135588571Y-73059523D01*
X135550476Y-73135714D01*
X135512380Y-73173809D01*
X135436190Y-73211904D01*
X135245714Y-73211904D01*
X135169523Y-73173809D01*
X135131428Y-73135714D01*
%TO.C,R6*%
X139426666Y-88711904D02*
X139160000Y-88330952D01*
X138969523Y-88711904D02*
X138969523Y-87911904D01*
X139274285Y-87911904D01*
X139350476Y-87950000D01*
X139388571Y-87988095D01*
X139426666Y-88064285D01*
X139426666Y-88178571D01*
X139388571Y-88254761D01*
X139350476Y-88292857D01*
X139274285Y-88330952D01*
X138969523Y-88330952D01*
X140112380Y-87911904D02*
X139960000Y-87911904D01*
X139883809Y-87950000D01*
X139845714Y-87988095D01*
X139769523Y-88102380D01*
X139731428Y-88254761D01*
X139731428Y-88559523D01*
X139769523Y-88635714D01*
X139807619Y-88673809D01*
X139883809Y-88711904D01*
X140036190Y-88711904D01*
X140112380Y-88673809D01*
X140150476Y-88635714D01*
X140188571Y-88559523D01*
X140188571Y-88369047D01*
X140150476Y-88292857D01*
X140112380Y-88254761D01*
X140036190Y-88216666D01*
X139883809Y-88216666D01*
X139807619Y-88254761D01*
X139769523Y-88292857D01*
X139731428Y-88369047D01*
%TO.C,R4*%
X154826666Y-88711904D02*
X154560000Y-88330952D01*
X154369523Y-88711904D02*
X154369523Y-87911904D01*
X154674285Y-87911904D01*
X154750476Y-87950000D01*
X154788571Y-87988095D01*
X154826666Y-88064285D01*
X154826666Y-88178571D01*
X154788571Y-88254761D01*
X154750476Y-88292857D01*
X154674285Y-88330952D01*
X154369523Y-88330952D01*
X155512380Y-88178571D02*
X155512380Y-88711904D01*
X155321904Y-87873809D02*
X155131428Y-88445238D01*
X155626666Y-88445238D01*
%TO.C,C20*%
X127845714Y-87335714D02*
X127807619Y-87373809D01*
X127693333Y-87411904D01*
X127617142Y-87411904D01*
X127502857Y-87373809D01*
X127426666Y-87297619D01*
X127388571Y-87221428D01*
X127350476Y-87069047D01*
X127350476Y-86954761D01*
X127388571Y-86802380D01*
X127426666Y-86726190D01*
X127502857Y-86650000D01*
X127617142Y-86611904D01*
X127693333Y-86611904D01*
X127807619Y-86650000D01*
X127845714Y-86688095D01*
X128150476Y-86688095D02*
X128188571Y-86650000D01*
X128264761Y-86611904D01*
X128455238Y-86611904D01*
X128531428Y-86650000D01*
X128569523Y-86688095D01*
X128607619Y-86764285D01*
X128607619Y-86840476D01*
X128569523Y-86954761D01*
X128112380Y-87411904D01*
X128607619Y-87411904D01*
X129102857Y-86611904D02*
X129179047Y-86611904D01*
X129255238Y-86650000D01*
X129293333Y-86688095D01*
X129331428Y-86764285D01*
X129369523Y-86916666D01*
X129369523Y-87107142D01*
X129331428Y-87259523D01*
X129293333Y-87335714D01*
X129255238Y-87373809D01*
X129179047Y-87411904D01*
X129102857Y-87411904D01*
X129026666Y-87373809D01*
X128988571Y-87335714D01*
X128950476Y-87259523D01*
X128912380Y-87107142D01*
X128912380Y-86916666D01*
X128950476Y-86764285D01*
X128988571Y-86688095D01*
X129026666Y-86650000D01*
X129102857Y-86611904D01*
%TO.C,C8*%
X128626666Y-78035714D02*
X128588571Y-78073809D01*
X128474285Y-78111904D01*
X128398095Y-78111904D01*
X128283809Y-78073809D01*
X128207619Y-77997619D01*
X128169523Y-77921428D01*
X128131428Y-77769047D01*
X128131428Y-77654761D01*
X128169523Y-77502380D01*
X128207619Y-77426190D01*
X128283809Y-77350000D01*
X128398095Y-77311904D01*
X128474285Y-77311904D01*
X128588571Y-77350000D01*
X128626666Y-77388095D01*
X129083809Y-77654761D02*
X129007619Y-77616666D01*
X128969523Y-77578571D01*
X128931428Y-77502380D01*
X128931428Y-77464285D01*
X128969523Y-77388095D01*
X129007619Y-77350000D01*
X129083809Y-77311904D01*
X129236190Y-77311904D01*
X129312380Y-77350000D01*
X129350476Y-77388095D01*
X129388571Y-77464285D01*
X129388571Y-77502380D01*
X129350476Y-77578571D01*
X129312380Y-77616666D01*
X129236190Y-77654761D01*
X129083809Y-77654761D01*
X129007619Y-77692857D01*
X128969523Y-77730952D01*
X128931428Y-77807142D01*
X128931428Y-77959523D01*
X128969523Y-78035714D01*
X129007619Y-78073809D01*
X129083809Y-78111904D01*
X129236190Y-78111904D01*
X129312380Y-78073809D01*
X129350476Y-78035714D01*
X129388571Y-77959523D01*
X129388571Y-77807142D01*
X129350476Y-77730952D01*
X129312380Y-77692857D01*
X129236190Y-77654761D01*
%TO.C,C12*%
X127845714Y-90435714D02*
X127807619Y-90473809D01*
X127693333Y-90511904D01*
X127617142Y-90511904D01*
X127502857Y-90473809D01*
X127426666Y-90397619D01*
X127388571Y-90321428D01*
X127350476Y-90169047D01*
X127350476Y-90054761D01*
X127388571Y-89902380D01*
X127426666Y-89826190D01*
X127502857Y-89750000D01*
X127617142Y-89711904D01*
X127693333Y-89711904D01*
X127807619Y-89750000D01*
X127845714Y-89788095D01*
X128607619Y-90511904D02*
X128150476Y-90511904D01*
X128379047Y-90511904D02*
X128379047Y-89711904D01*
X128302857Y-89826190D01*
X128226666Y-89902380D01*
X128150476Y-89940476D01*
X128912380Y-89788095D02*
X128950476Y-89750000D01*
X129026666Y-89711904D01*
X129217142Y-89711904D01*
X129293333Y-89750000D01*
X129331428Y-89788095D01*
X129369523Y-89864285D01*
X129369523Y-89940476D01*
X129331428Y-90054761D01*
X128874285Y-90511904D01*
X129369523Y-90511904D01*
%TO.C,C10*%
X127845714Y-96635714D02*
X127807619Y-96673809D01*
X127693333Y-96711904D01*
X127617142Y-96711904D01*
X127502857Y-96673809D01*
X127426666Y-96597619D01*
X127388571Y-96521428D01*
X127350476Y-96369047D01*
X127350476Y-96254761D01*
X127388571Y-96102380D01*
X127426666Y-96026190D01*
X127502857Y-95950000D01*
X127617142Y-95911904D01*
X127693333Y-95911904D01*
X127807619Y-95950000D01*
X127845714Y-95988095D01*
X128607619Y-96711904D02*
X128150476Y-96711904D01*
X128379047Y-96711904D02*
X128379047Y-95911904D01*
X128302857Y-96026190D01*
X128226666Y-96102380D01*
X128150476Y-96140476D01*
X129102857Y-95911904D02*
X129179047Y-95911904D01*
X129255238Y-95950000D01*
X129293333Y-95988095D01*
X129331428Y-96064285D01*
X129369523Y-96216666D01*
X129369523Y-96407142D01*
X129331428Y-96559523D01*
X129293333Y-96635714D01*
X129255238Y-96673809D01*
X129179047Y-96711904D01*
X129102857Y-96711904D01*
X129026666Y-96673809D01*
X128988571Y-96635714D01*
X128950476Y-96559523D01*
X128912380Y-96407142D01*
X128912380Y-96216666D01*
X128950476Y-96064285D01*
X128988571Y-95988095D01*
X129026666Y-95950000D01*
X129102857Y-95911904D01*
%TO.C,R3*%
X139426666Y-91811904D02*
X139160000Y-91430952D01*
X138969523Y-91811904D02*
X138969523Y-91011904D01*
X139274285Y-91011904D01*
X139350476Y-91050000D01*
X139388571Y-91088095D01*
X139426666Y-91164285D01*
X139426666Y-91278571D01*
X139388571Y-91354761D01*
X139350476Y-91392857D01*
X139274285Y-91430952D01*
X138969523Y-91430952D01*
X139693333Y-91011904D02*
X140188571Y-91011904D01*
X139921904Y-91316666D01*
X140036190Y-91316666D01*
X140112380Y-91354761D01*
X140150476Y-91392857D01*
X140188571Y-91469047D01*
X140188571Y-91659523D01*
X140150476Y-91735714D01*
X140112380Y-91773809D01*
X140036190Y-91811904D01*
X139807619Y-91811904D01*
X139731428Y-91773809D01*
X139693333Y-91735714D01*
%TO.C,C22*%
X127845714Y-84235714D02*
X127807619Y-84273809D01*
X127693333Y-84311904D01*
X127617142Y-84311904D01*
X127502857Y-84273809D01*
X127426666Y-84197619D01*
X127388571Y-84121428D01*
X127350476Y-83969047D01*
X127350476Y-83854761D01*
X127388571Y-83702380D01*
X127426666Y-83626190D01*
X127502857Y-83550000D01*
X127617142Y-83511904D01*
X127693333Y-83511904D01*
X127807619Y-83550000D01*
X127845714Y-83588095D01*
X128150476Y-83588095D02*
X128188571Y-83550000D01*
X128264761Y-83511904D01*
X128455238Y-83511904D01*
X128531428Y-83550000D01*
X128569523Y-83588095D01*
X128607619Y-83664285D01*
X128607619Y-83740476D01*
X128569523Y-83854761D01*
X128112380Y-84311904D01*
X128607619Y-84311904D01*
X128912380Y-83588095D02*
X128950476Y-83550000D01*
X129026666Y-83511904D01*
X129217142Y-83511904D01*
X129293333Y-83550000D01*
X129331428Y-83588095D01*
X129369523Y-83664285D01*
X129369523Y-83740476D01*
X129331428Y-83854761D01*
X128874285Y-84311904D01*
X129369523Y-84311904D01*
%TO.C,D2*%
X153169523Y-73211904D02*
X153169523Y-72411904D01*
X153360000Y-72411904D01*
X153474285Y-72450000D01*
X153550476Y-72526190D01*
X153588571Y-72602380D01*
X153626666Y-72754761D01*
X153626666Y-72869047D01*
X153588571Y-73021428D01*
X153550476Y-73097619D01*
X153474285Y-73173809D01*
X153360000Y-73211904D01*
X153169523Y-73211904D01*
X153931428Y-72488095D02*
X153969523Y-72450000D01*
X154045714Y-72411904D01*
X154236190Y-72411904D01*
X154312380Y-72450000D01*
X154350476Y-72488095D01*
X154388571Y-72564285D01*
X154388571Y-72640476D01*
X154350476Y-72754761D01*
X153893333Y-73211904D01*
X154388571Y-73211904D01*
%TO.C,U5*%
X137550476Y-72021904D02*
X137550476Y-72669523D01*
X137588571Y-72745714D01*
X137626666Y-72783809D01*
X137702857Y-72821904D01*
X137855238Y-72821904D01*
X137931428Y-72783809D01*
X137969523Y-72745714D01*
X138007619Y-72669523D01*
X138007619Y-72021904D01*
X138769523Y-72021904D02*
X138388571Y-72021904D01*
X138350476Y-72402857D01*
X138388571Y-72364761D01*
X138464761Y-72326666D01*
X138655238Y-72326666D01*
X138731428Y-72364761D01*
X138769523Y-72402857D01*
X138807619Y-72479047D01*
X138807619Y-72669523D01*
X138769523Y-72745714D01*
X138731428Y-72783809D01*
X138655238Y-72821904D01*
X138464761Y-72821904D01*
X138388571Y-72783809D01*
X138350476Y-72745714D01*
X140810000Y-78432380D02*
X140810000Y-78670476D01*
X140571904Y-78575238D02*
X140810000Y-78670476D01*
X141048095Y-78575238D01*
X140667142Y-78860952D02*
X140810000Y-78670476D01*
X140952857Y-78860952D01*
%TO.C,U3*%
X137550476Y-97681904D02*
X137550476Y-98329523D01*
X137588571Y-98405714D01*
X137626666Y-98443809D01*
X137702857Y-98481904D01*
X137855238Y-98481904D01*
X137931428Y-98443809D01*
X137969523Y-98405714D01*
X138007619Y-98329523D01*
X138007619Y-97681904D01*
X138312380Y-97681904D02*
X138807619Y-97681904D01*
X138540952Y-97986666D01*
X138655238Y-97986666D01*
X138731428Y-98024761D01*
X138769523Y-98062857D01*
X138807619Y-98139047D01*
X138807619Y-98329523D01*
X138769523Y-98405714D01*
X138731428Y-98443809D01*
X138655238Y-98481904D01*
X138426666Y-98481904D01*
X138350476Y-98443809D01*
X138312380Y-98405714D01*
%TO.C,R2*%
X151126666Y-73211904D02*
X150860000Y-72830952D01*
X150669523Y-73211904D02*
X150669523Y-72411904D01*
X150974285Y-72411904D01*
X151050476Y-72450000D01*
X151088571Y-72488095D01*
X151126666Y-72564285D01*
X151126666Y-72678571D01*
X151088571Y-72754761D01*
X151050476Y-72792857D01*
X150974285Y-72830952D01*
X150669523Y-72830952D01*
X151431428Y-72488095D02*
X151469523Y-72450000D01*
X151545714Y-72411904D01*
X151736190Y-72411904D01*
X151812380Y-72450000D01*
X151850476Y-72488095D01*
X151888571Y-72564285D01*
X151888571Y-72640476D01*
X151850476Y-72754761D01*
X151393333Y-73211904D01*
X151888571Y-73211904D01*
D12*
%TO.C,D1*%
X129600000Y-70090000D02*
X129600000Y-72010000D01*
X129600000Y-72010000D02*
X132460000Y-72010000D01*
X132460000Y-70090000D02*
X129600000Y-70090000D01*
%TO.C,C21*%
X131721252Y-73915000D02*
X131198748Y-73915000D01*
X131721252Y-75385000D02*
X131198748Y-75385000D01*
%TO.C,C11*%
X131198748Y-93985000D02*
X131721252Y-93985000D01*
X131198748Y-92515000D02*
X131721252Y-92515000D01*
%TO.C,R1*%
X148232936Y-90485000D02*
X148687064Y-90485000D01*
X148232936Y-89015000D02*
X148687064Y-89015000D01*
%TO.C,C6*%
X131721252Y-80115000D02*
X131198748Y-80115000D01*
X131721252Y-81585000D02*
X131198748Y-81585000D01*
%TO.C,C19*%
X148995000Y-81211252D02*
X148995000Y-80688748D01*
X147525000Y-81211252D02*
X147525000Y-80688748D01*
%TO.C,C15*%
X147525000Y-85588748D02*
X147525000Y-86111252D01*
X148995000Y-85588748D02*
X148995000Y-86111252D01*
%TO.C,C1*%
X144695000Y-93211252D02*
X144695000Y-92688748D01*
X143225000Y-93211252D02*
X143225000Y-92688748D01*
%TO.C,U6*%
X140310000Y-87535000D02*
X138110000Y-87535000D01*
X140310000Y-87535000D02*
X142510000Y-87535000D01*
X140310000Y-80765000D02*
X136710000Y-80765000D01*
X140310000Y-80765000D02*
X142510000Y-80765000D01*
%TO.C,C17*%
X155195000Y-81211252D02*
X155195000Y-80688748D01*
X153725000Y-81211252D02*
X153725000Y-80688748D01*
%TO.C,C2*%
X146525000Y-94211252D02*
X146525000Y-93688748D01*
X147995000Y-94211252D02*
X147995000Y-93688748D01*
%TO.C,U2*%
X155180900Y-91921100D02*
X150939100Y-91921100D01*
X150939100Y-97178900D02*
X155180900Y-97178900D01*
%TO.C,C18*%
X150625000Y-81211252D02*
X150625000Y-80688748D01*
X152095000Y-81211252D02*
X152095000Y-80688748D01*
%TO.C,R5*%
X136032936Y-71785000D02*
X136487064Y-71785000D01*
X136032936Y-70315000D02*
X136487064Y-70315000D01*
%TO.C,R6*%
X137640000Y-90770000D02*
X141480000Y-90770000D01*
X137640000Y-88930000D02*
X141480000Y-88930000D01*
%TO.C,R4*%
X154732936Y-89015000D02*
X155187064Y-89015000D01*
X154732936Y-90485000D02*
X155187064Y-90485000D01*
%TO.C,C20*%
X131721252Y-87785000D02*
X131198748Y-87785000D01*
X131721252Y-86315000D02*
X131198748Y-86315000D01*
%TO.C,C8*%
X131721252Y-77015000D02*
X131198748Y-77015000D01*
X131721252Y-78485000D02*
X131198748Y-78485000D01*
%TO.C,C12*%
X131721252Y-90885000D02*
X131198748Y-90885000D01*
X131721252Y-89415000D02*
X131198748Y-89415000D01*
%TO.C,C10*%
X131198748Y-95615000D02*
X131721252Y-95615000D01*
X131198748Y-97085000D02*
X131721252Y-97085000D01*
%TO.C,R3*%
X139332936Y-90585000D02*
X139787064Y-90585000D01*
X139332936Y-89115000D02*
X139787064Y-89115000D01*
%TO.C,C22*%
X131721252Y-84685000D02*
X131198748Y-84685000D01*
X131721252Y-83215000D02*
X131198748Y-83215000D01*
%TO.C,D2*%
X156820000Y-72010000D02*
X156820000Y-70090000D01*
X153960000Y-72010000D02*
X156820000Y-72010000D01*
X156820000Y-70090000D02*
X153960000Y-70090000D01*
%TO.C,U5*%
X136039100Y-78478900D02*
X140280900Y-78478900D01*
X140280900Y-73221100D02*
X136039100Y-73221100D01*
%TO.C,U3*%
X138160000Y-92090000D02*
X140110000Y-92090000D01*
X138160000Y-97210000D02*
X136210000Y-97210000D01*
X138160000Y-97210000D02*
X140110000Y-97210000D01*
X138160000Y-92090000D02*
X134710000Y-92090000D01*
%TO.C,R2*%
X149932936Y-70315000D02*
X150387064Y-70315000D01*
X149932936Y-71785000D02*
X150387064Y-71785000D01*
%TD*%
M02*
