M48
; DRILL file {KiCad 6.0.10-86aedd382b~118~ubuntu20.04.1} date jue 12 ene 2023 10:33:15
; FORMAT={-:-/ absolute / metric / decimal}
; #@! TF.CreationDate,2023-01-12T10:33:15+01:00
; #@! TF.GenerationSoftware,Kicad,Pcbnew,6.0.10-86aedd382b~118~ubuntu20.04.1
; #@! TF.FileFunction,Plated,1,4,PTH
FMAT,2
METRIC
; #@! TA.AperFunction,Plated,PTH,ViaDrill
T1C0.200
; #@! TA.AperFunction,Plated,PTH,ViaDrill
T2C0.400
; #@! TA.AperFunction,Plated,PTH,ComponentDrill
T3C0.700
; #@! TA.AperFunction,Plated,PTH,ComponentDrill
T4C1.000
; #@! TA.AperFunction,Plated,PTH,ComponentDrill
T5C3.200
%
G90
G05
T1
X127.86Y-89.15
X129.01Y-89.9
X135.685Y-94.015
X135.685Y-95.285
X139.369Y-69.75
X140.86Y-68.75
X142.535Y-71.85
X143.785Y-71.85
T2
X130.28Y-74.65
X130.28Y-76.2
X130.28Y-77.75
X130.28Y-82.91
X130.422Y-86.85
X130.422Y-90.15
X130.422Y-95.05
X130.435Y-71.05
X132.498Y-99.31
X132.5Y-98.16
X132.736Y-74.15
X132.76Y-75.15
X132.76Y-76.15
X132.76Y-77.15
X132.76Y-78.15
X133.76Y-78.15
X133.76Y-79.15
X133.76Y-80.15
X133.76Y-81.15
X134.61Y-86.375
X134.66Y-91.45
X136.01Y-73.945
X137.452Y-75.753
X137.452Y-77.119
X137.452Y-78.484
X137.452Y-79.85
X137.48Y-87.924
X137.922Y-92.65
X139.06Y-78.484
X140.635Y-93.987
X140.635Y-99.02
X142.06Y-91.78
X142.297Y-93.987
X142.297Y-99.02
X143.96Y-93.987
X143.96Y-99.02
X145.31Y-89.609
X145.329Y-86.381
X145.76Y-83.62
X146.0Y-96.57
X146.76Y-84.62
X146.934Y-74.92
X147.26Y-92.912
X147.26Y-94.55
X147.345Y-96.57
X147.46Y-89.75
X147.76Y-83.62
X148.26Y-78.44
X148.26Y-79.912
X148.26Y-86.888
X148.689Y-96.57
X148.76Y-84.62
X149.76Y-78.44
X149.76Y-79.912
X149.76Y-83.62
X149.91Y-86.66
X150.76Y-84.62
X151.71Y-86.375
X154.96Y-86.45
X155.985Y-71.05
X157.85Y-89.75
X157.85Y-90.93
X157.85Y-92.11
T3
X137.02Y-89.85
X142.1Y-89.85
T4
X129.37Y-63.84
X129.37Y-103.56
X138.57Y-59.96
X138.57Y-107.44
X147.77Y-59.96
X147.77Y-107.44
X156.97Y-63.84
X156.97Y-103.56
T5
X123.04Y-75.7
X163.3Y-75.7
T0
M30
