%TF.GenerationSoftware,KiCad,Pcbnew,6.0.10-86aedd382b~118~ubuntu20.04.1*%
%TF.CreationDate,2023-01-12T10:33:16+01:00*%
%TF.ProjectId,thrust_controller,74687275-7374-45f6-936f-6e74726f6c6c,rev?*%
%TF.SameCoordinates,Original*%
%TF.FileFunction,Copper,L2,Inr*%
%TF.FilePolarity,Positive*%
%FSLAX46Y46*%
G04 Gerber Fmt 4.6, Leading zero omitted, Abs format (unit mm)*
G04 Created by KiCad (PCBNEW 6.0.10-86aedd382b~118~ubuntu20.04.1) date 2023-01-12 10:33:16*
%MOMM*%
%LPD*%
G01*
G04 APERTURE LIST*
%TA.AperFunction,Profile*%
%ADD10C,0.200000*%
%TD*%
%TA.AperFunction,ComponentPad*%
%ADD11C,6.400000*%
%TD*%
%TA.AperFunction,ComponentPad*%
%ADD12C,1.400000*%
%TD*%
%TA.AperFunction,ComponentPad*%
%ADD13O,1.400000X1.400000*%
%TD*%
%TA.AperFunction,ComponentPad*%
%ADD14C,2.000000*%
%TD*%
%TA.AperFunction,ViaPad*%
%ADD15C,0.800000*%
%TD*%
%TA.AperFunction,ViaPad*%
%ADD16C,0.400000*%
%TD*%
%TA.AperFunction,Conductor*%
%ADD17C,0.400000*%
%TD*%
G04 APERTURE END LIST*
D10*
X169350000Y-83700000D02*
G75*
G03*
X169350000Y-83700000I-26180000J0D01*
G01*
D11*
%TO.N,N/C*%
%TO.C,H2*%
X163300000Y-75700000D03*
%TD*%
D12*
%TO.N,Net-(R3-Pad1)*%
%TO.C,R6*%
X137020000Y-89850000D03*
D13*
%TO.N,Net-(R3-Pad2)*%
X142100000Y-89850000D03*
%TD*%
D11*
%TO.N,N/C*%
%TO.C,H1*%
X123040000Y-75700000D03*
%TD*%
D14*
%TO.N,GNDA*%
%TO.C,TP6*%
X129370000Y-103560000D03*
%TD*%
%TO.N,+3.3VA*%
%TO.C,TP1*%
X138570000Y-107440000D03*
%TD*%
%TO.N,Cmd*%
%TO.C,TP7*%
X147770000Y-59960000D03*
%TD*%
%TO.N,+3.3V*%
%TO.C,TP5*%
X138570000Y-59960000D03*
%TD*%
%TO.N,Ref*%
%TO.C,TP4*%
X156970000Y-103560000D03*
%TD*%
%TO.N,Meas*%
%TO.C,TP3*%
X147770000Y-107440000D03*
%TD*%
%TO.N,Des*%
%TO.C,TP2*%
X156970000Y-63840000D03*
%TD*%
%TO.N,GNDA*%
%TO.C,TP8*%
X129370000Y-63840000D03*
%TD*%
D15*
%TO.N,+3.3VA*%
X142297500Y-93987500D03*
X142297500Y-99020000D03*
X130422500Y-95050000D03*
X147460000Y-89750000D03*
X134660000Y-91450000D03*
X143960000Y-93987500D03*
X140635000Y-99020000D03*
X140635000Y-93987500D03*
X143960000Y-99020000D03*
X147260000Y-94550000D03*
%TO.N,GNDA*%
X147260000Y-92912500D03*
X155985000Y-71050000D03*
X137451979Y-77118887D03*
X145310000Y-89609500D03*
X130422500Y-86850500D03*
X149760000Y-79912500D03*
X146000000Y-96570000D03*
X142060000Y-91780000D03*
X137451979Y-75753331D03*
X130279985Y-74650000D03*
X157850000Y-92110000D03*
X145329310Y-86381241D03*
X137451979Y-78484443D03*
X139060000Y-78484443D03*
X130279985Y-76200000D03*
X132500000Y-98160000D03*
X130279985Y-77750000D03*
X151710000Y-86375000D03*
X130279985Y-82910126D03*
X132497500Y-99310000D03*
X137922500Y-92650000D03*
X147344576Y-96570000D03*
X148689152Y-96570000D03*
X149910000Y-86660000D03*
X148260000Y-86887500D03*
X130435000Y-71050000D03*
X157850000Y-89750000D03*
X157850000Y-90930000D03*
X130422500Y-90150000D03*
X149760000Y-78440000D03*
X148260000Y-78440000D03*
X148260000Y-79912500D03*
X137451979Y-79850000D03*
X137480000Y-87924500D03*
X136010000Y-73945000D03*
%TO.N,+5V*%
X132760000Y-78150000D03*
X132760000Y-76150000D03*
X132735500Y-74150000D03*
X133760000Y-80150000D03*
X133760000Y-81150000D03*
X132760000Y-75150000D03*
X133760000Y-79150000D03*
X133760000Y-78150000D03*
X132760000Y-77150000D03*
D16*
%TO.N,S+*%
X135685000Y-95285000D03*
%TO.N,S-*%
X135685000Y-94015000D03*
D15*
%TO.N,+3.3V*%
X148760000Y-84620000D03*
X147760000Y-83620000D03*
X150760000Y-84620000D03*
X134610000Y-86375000D03*
X146934500Y-74920000D03*
X146760000Y-84620000D03*
X145760000Y-83620000D03*
X154960000Y-86450000D03*
X149760000Y-83620000D03*
D16*
%TO.N,Des*%
X140860000Y-68750000D03*
%TO.N,Cmd*%
X139369500Y-69750000D03*
%TO.N,B*%
X129010000Y-89900000D03*
%TO.N,A*%
X127860000Y-89150000D03*
%TO.N,SWDIO*%
X142535000Y-71850000D03*
%TO.N,SWCLK*%
X143785000Y-71850000D03*
%TD*%
D17*
%TO.N,GNDA*%
X136060000Y-70530000D02*
X136060000Y-70550000D01*
X129370000Y-103560000D02*
X136360000Y-96570000D01*
X144913499Y-87996501D02*
X145760000Y-87150000D01*
X129370000Y-63840000D02*
X136060000Y-70530000D01*
X144913499Y-89500000D02*
X144913499Y-87996501D01*
%TD*%
%TA.AperFunction,Conductor*%
%TO.N,GNDA*%
G36*
X136186783Y-88770002D02*
G01*
X136233276Y-88823658D01*
X136243380Y-88893932D01*
X136213886Y-88958512D01*
X136201746Y-88970726D01*
X136145457Y-89020090D01*
X136008863Y-89193360D01*
X135906131Y-89388620D01*
X135840703Y-89599333D01*
X135814770Y-89818440D01*
X135829200Y-90038604D01*
X135830621Y-90044200D01*
X135830622Y-90044205D01*
X135876961Y-90226660D01*
X135883511Y-90252452D01*
X135885928Y-90257694D01*
X135885928Y-90257695D01*
X135924046Y-90340379D01*
X135975883Y-90452821D01*
X136103222Y-90633002D01*
X136261264Y-90786961D01*
X136266060Y-90790166D01*
X136266063Y-90790168D01*
X136350261Y-90846427D01*
X136444717Y-90909540D01*
X136450020Y-90911818D01*
X136450023Y-90911820D01*
X136575989Y-90965939D01*
X136647436Y-90996635D01*
X136727088Y-91014658D01*
X136856995Y-91044054D01*
X136857001Y-91044055D01*
X136862632Y-91045329D01*
X136868403Y-91045556D01*
X136868405Y-91045556D01*
X136936211Y-91048220D01*
X137083098Y-91053991D01*
X137192275Y-91038161D01*
X137295738Y-91023160D01*
X137295743Y-91023159D01*
X137301452Y-91022331D01*
X137306916Y-91020476D01*
X137306921Y-91020475D01*
X137504907Y-90953268D01*
X137504912Y-90953266D01*
X137510379Y-90951410D01*
X137702884Y-90843602D01*
X137872518Y-90702518D01*
X137947372Y-90612517D01*
X138009908Y-90537326D01*
X138009910Y-90537323D01*
X138013602Y-90532884D01*
X138103998Y-90371470D01*
X138118586Y-90345422D01*
X138118587Y-90345420D01*
X138121410Y-90340379D01*
X138123266Y-90334912D01*
X138123268Y-90334907D01*
X138190475Y-90136921D01*
X138190476Y-90136916D01*
X138192331Y-90131452D01*
X138193159Y-90125743D01*
X138193160Y-90125738D01*
X138223458Y-89916772D01*
X138223991Y-89913098D01*
X138225643Y-89850000D01*
X138205454Y-89630289D01*
X138200038Y-89611083D01*
X138147134Y-89423500D01*
X138145565Y-89417936D01*
X138047980Y-89220053D01*
X138034328Y-89201770D01*
X137919420Y-89047891D01*
X137919420Y-89047890D01*
X137915967Y-89043267D01*
X137911729Y-89039349D01*
X137911725Y-89039345D01*
X137835112Y-88968524D01*
X137798667Y-88907596D01*
X137800948Y-88836636D01*
X137841230Y-88778174D01*
X137906725Y-88750771D01*
X137920641Y-88750000D01*
X141198662Y-88750000D01*
X141266783Y-88770002D01*
X141313276Y-88823658D01*
X141323380Y-88893932D01*
X141293886Y-88958512D01*
X141281746Y-88970726D01*
X141225457Y-89020090D01*
X141088863Y-89193360D01*
X140986131Y-89388620D01*
X140920703Y-89599333D01*
X140894770Y-89818440D01*
X140909200Y-90038604D01*
X140910621Y-90044200D01*
X140910622Y-90044205D01*
X140956961Y-90226660D01*
X140963511Y-90252452D01*
X140965928Y-90257694D01*
X140965928Y-90257695D01*
X141004046Y-90340379D01*
X141055883Y-90452821D01*
X141183222Y-90633002D01*
X141341264Y-90786961D01*
X141346060Y-90790166D01*
X141346063Y-90790168D01*
X141430261Y-90846427D01*
X141524717Y-90909540D01*
X141530020Y-90911818D01*
X141530023Y-90911820D01*
X141655989Y-90965939D01*
X141727436Y-90996635D01*
X141807088Y-91014658D01*
X141936995Y-91044054D01*
X141937001Y-91044055D01*
X141942632Y-91045329D01*
X141948403Y-91045556D01*
X141948405Y-91045556D01*
X142016211Y-91048220D01*
X142163098Y-91053991D01*
X142272275Y-91038161D01*
X142375738Y-91023160D01*
X142375743Y-91023159D01*
X142381452Y-91022331D01*
X142386916Y-91020476D01*
X142386921Y-91020475D01*
X142584907Y-90953268D01*
X142584912Y-90953266D01*
X142590379Y-90951410D01*
X142782884Y-90843602D01*
X142952518Y-90702518D01*
X143027372Y-90612517D01*
X143089908Y-90537326D01*
X143089910Y-90537323D01*
X143093602Y-90532884D01*
X143183998Y-90371470D01*
X143198586Y-90345422D01*
X143198587Y-90345420D01*
X143201410Y-90340379D01*
X143203266Y-90334912D01*
X143203268Y-90334907D01*
X143270475Y-90136921D01*
X143270476Y-90136916D01*
X143272331Y-90131452D01*
X143273159Y-90125743D01*
X143273160Y-90125738D01*
X143303458Y-89916772D01*
X143303991Y-89913098D01*
X143305643Y-89850000D01*
X143285454Y-89630289D01*
X143280038Y-89611083D01*
X143227134Y-89423500D01*
X143225565Y-89417936D01*
X143127980Y-89220053D01*
X143114328Y-89201770D01*
X142999420Y-89047891D01*
X142999420Y-89047890D01*
X142995967Y-89043267D01*
X142991729Y-89039349D01*
X142991725Y-89039345D01*
X142915112Y-88968524D01*
X142878667Y-88907596D01*
X142880948Y-88836636D01*
X142921230Y-88778174D01*
X142986725Y-88750771D01*
X143000641Y-88750000D01*
X146916573Y-88750000D01*
X146984694Y-88770002D01*
X147031187Y-88823658D01*
X147041291Y-88893932D01*
X147011797Y-88958512D01*
X146990636Y-88977935D01*
X146854129Y-89077112D01*
X146849716Y-89082014D01*
X146849714Y-89082015D01*
X146744857Y-89198470D01*
X146727467Y-89217784D01*
X146724164Y-89223505D01*
X146665213Y-89325612D01*
X146632821Y-89381716D01*
X146574326Y-89561744D01*
X146573636Y-89568305D01*
X146573636Y-89568307D01*
X146567267Y-89628904D01*
X146554540Y-89750000D01*
X146555230Y-89756565D01*
X146572288Y-89918862D01*
X146574326Y-89938256D01*
X146632821Y-90118284D01*
X146636124Y-90124006D01*
X146636125Y-90124007D01*
X146710283Y-90252452D01*
X146727467Y-90282216D01*
X146854129Y-90422888D01*
X147007270Y-90534151D01*
X147180197Y-90611144D01*
X147278212Y-90631978D01*
X147358897Y-90649128D01*
X147358901Y-90649128D01*
X147365354Y-90650500D01*
X147554646Y-90650500D01*
X147561099Y-90649128D01*
X147561103Y-90649128D01*
X147641788Y-90631978D01*
X147739803Y-90611144D01*
X147912730Y-90534151D01*
X148065871Y-90422888D01*
X148192533Y-90282216D01*
X148209717Y-90252452D01*
X148283875Y-90124007D01*
X148283876Y-90124006D01*
X148287179Y-90118284D01*
X148345674Y-89938256D01*
X148347713Y-89918862D01*
X148364770Y-89756565D01*
X148365460Y-89750000D01*
X148352733Y-89628904D01*
X148346364Y-89568307D01*
X148346364Y-89568305D01*
X148345674Y-89561744D01*
X148287179Y-89381716D01*
X148254788Y-89325612D01*
X148195836Y-89223505D01*
X148192533Y-89217784D01*
X148175143Y-89198470D01*
X148070286Y-89082015D01*
X148070284Y-89082014D01*
X148065871Y-89077112D01*
X147929365Y-88977935D01*
X147886012Y-88921714D01*
X147879937Y-88850978D01*
X147913068Y-88788186D01*
X147974888Y-88753275D01*
X148003427Y-88750000D01*
X158934000Y-88750000D01*
X159002121Y-88770002D01*
X159048614Y-88823658D01*
X159060000Y-88876000D01*
X159060000Y-99524000D01*
X159039998Y-99592121D01*
X158986342Y-99638614D01*
X158934000Y-99650000D01*
X144854315Y-99650000D01*
X144786194Y-99629998D01*
X144739701Y-99576342D01*
X144729597Y-99506068D01*
X144745196Y-99461000D01*
X144783875Y-99394007D01*
X144783876Y-99394006D01*
X144787179Y-99388284D01*
X144845674Y-99208256D01*
X144865460Y-99020000D01*
X144845674Y-98831744D01*
X144787179Y-98651716D01*
X144692533Y-98487784D01*
X144565871Y-98347112D01*
X144412730Y-98235849D01*
X144239803Y-98158856D01*
X144141788Y-98138022D01*
X144061103Y-98120872D01*
X144061099Y-98120872D01*
X144054646Y-98119500D01*
X143865354Y-98119500D01*
X143858901Y-98120872D01*
X143858897Y-98120872D01*
X143778212Y-98138022D01*
X143680197Y-98158856D01*
X143507270Y-98235849D01*
X143354129Y-98347112D01*
X143227467Y-98487784D01*
X143227003Y-98487366D01*
X143174469Y-98527880D01*
X143103733Y-98533958D01*
X143040940Y-98500829D01*
X143030826Y-98489157D01*
X143030033Y-98487784D01*
X142903371Y-98347112D01*
X142750230Y-98235849D01*
X142577303Y-98158856D01*
X142479288Y-98138022D01*
X142398603Y-98120872D01*
X142398599Y-98120872D01*
X142392146Y-98119500D01*
X142202854Y-98119500D01*
X142196401Y-98120872D01*
X142196397Y-98120872D01*
X142115712Y-98138022D01*
X142017697Y-98158856D01*
X141844770Y-98235849D01*
X141691629Y-98347112D01*
X141564967Y-98487784D01*
X141564503Y-98487366D01*
X141511969Y-98527880D01*
X141441233Y-98533958D01*
X141378440Y-98500829D01*
X141368326Y-98489157D01*
X141367533Y-98487784D01*
X141240871Y-98347112D01*
X141087730Y-98235849D01*
X140914803Y-98158856D01*
X140816788Y-98138022D01*
X140736103Y-98120872D01*
X140736099Y-98120872D01*
X140729646Y-98119500D01*
X140540354Y-98119500D01*
X140533901Y-98120872D01*
X140533897Y-98120872D01*
X140453212Y-98138022D01*
X140355197Y-98158856D01*
X140182270Y-98235849D01*
X140029129Y-98347112D01*
X139902467Y-98487784D01*
X139807821Y-98651716D01*
X139749326Y-98831744D01*
X139729540Y-99020000D01*
X139749326Y-99208256D01*
X139807821Y-99388284D01*
X139811124Y-99394006D01*
X139811125Y-99394007D01*
X139849804Y-99461000D01*
X139866542Y-99529995D01*
X139843322Y-99597087D01*
X139787515Y-99640974D01*
X139740685Y-99650000D01*
X127186000Y-99650000D01*
X127117879Y-99629998D01*
X127071386Y-99576342D01*
X127060000Y-99524000D01*
X127060000Y-95050000D01*
X129517040Y-95050000D01*
X129517730Y-95056565D01*
X129536004Y-95230432D01*
X129536826Y-95238256D01*
X129595321Y-95418284D01*
X129689967Y-95582216D01*
X129694385Y-95587123D01*
X129694386Y-95587124D01*
X129716479Y-95611660D01*
X129816629Y-95722888D01*
X129969770Y-95834151D01*
X130142697Y-95911144D01*
X130240712Y-95931978D01*
X130321397Y-95949128D01*
X130321401Y-95949128D01*
X130327854Y-95950500D01*
X130517146Y-95950500D01*
X130523599Y-95949128D01*
X130523603Y-95949128D01*
X130604288Y-95931978D01*
X130702303Y-95911144D01*
X130875230Y-95834151D01*
X131028371Y-95722888D01*
X131128522Y-95611660D01*
X131150614Y-95587124D01*
X131150615Y-95587123D01*
X131155033Y-95582216D01*
X131249679Y-95418284D01*
X131295387Y-95277611D01*
X134979394Y-95277611D01*
X134997999Y-95446135D01*
X135056266Y-95605356D01*
X135060502Y-95611659D01*
X135060502Y-95611660D01*
X135073574Y-95631113D01*
X135150830Y-95746083D01*
X135156442Y-95751190D01*
X135156445Y-95751193D01*
X135270612Y-95855077D01*
X135270616Y-95855080D01*
X135276233Y-95860191D01*
X135282906Y-95863814D01*
X135282910Y-95863817D01*
X135418558Y-95937467D01*
X135418560Y-95937468D01*
X135425235Y-95941092D01*
X135432584Y-95943020D01*
X135581883Y-95982188D01*
X135581885Y-95982188D01*
X135589233Y-95984116D01*
X135675609Y-95985473D01*
X135751161Y-95986660D01*
X135751164Y-95986660D01*
X135758760Y-95986779D01*
X135766165Y-95985083D01*
X135766166Y-95985083D01*
X135826586Y-95971245D01*
X135924029Y-95948928D01*
X136075498Y-95872747D01*
X136204423Y-95762634D01*
X136303361Y-95624947D01*
X136311237Y-95605356D01*
X136363766Y-95474687D01*
X136363767Y-95474685D01*
X136366601Y-95467634D01*
X136385598Y-95334151D01*
X136389909Y-95303862D01*
X136389909Y-95303859D01*
X136390490Y-95299778D01*
X136390645Y-95285000D01*
X136389836Y-95278310D01*
X136384194Y-95231693D01*
X136370276Y-95116680D01*
X136310345Y-94958077D01*
X136261239Y-94886628D01*
X136218614Y-94824608D01*
X136218613Y-94824607D01*
X136214312Y-94818349D01*
X136203448Y-94808669D01*
X136130663Y-94743820D01*
X136093107Y-94683570D01*
X136094088Y-94612580D01*
X136132652Y-94553933D01*
X136198648Y-94497567D01*
X136198651Y-94497564D01*
X136204423Y-94492634D01*
X136303361Y-94354947D01*
X136311237Y-94335356D01*
X136363766Y-94204687D01*
X136363767Y-94204685D01*
X136366601Y-94197634D01*
X136390490Y-94029778D01*
X136390645Y-94015000D01*
X136388840Y-94000080D01*
X136387318Y-93987500D01*
X139729540Y-93987500D01*
X139730230Y-93994065D01*
X139746711Y-94150872D01*
X139749326Y-94175756D01*
X139807821Y-94355784D01*
X139811124Y-94361506D01*
X139811125Y-94361507D01*
X139879318Y-94479620D01*
X139902467Y-94519716D01*
X139906885Y-94524623D01*
X139906886Y-94524624D01*
X140020138Y-94650402D01*
X140029129Y-94660388D01*
X140034468Y-94664267D01*
X140146037Y-94745326D01*
X140182270Y-94771651D01*
X140355197Y-94848644D01*
X140447705Y-94868307D01*
X140533897Y-94886628D01*
X140533901Y-94886628D01*
X140540354Y-94888000D01*
X140729646Y-94888000D01*
X140736099Y-94886628D01*
X140736103Y-94886628D01*
X140822295Y-94868307D01*
X140914803Y-94848644D01*
X141087730Y-94771651D01*
X141123964Y-94745326D01*
X141235532Y-94664267D01*
X141240871Y-94660388D01*
X141249863Y-94650402D01*
X141363114Y-94524624D01*
X141363115Y-94524623D01*
X141367533Y-94519716D01*
X141367997Y-94520134D01*
X141420531Y-94479620D01*
X141491267Y-94473542D01*
X141554060Y-94506671D01*
X141564174Y-94518343D01*
X141564967Y-94519716D01*
X141569385Y-94524623D01*
X141569386Y-94524624D01*
X141682638Y-94650402D01*
X141691629Y-94660388D01*
X141696968Y-94664267D01*
X141808537Y-94745326D01*
X141844770Y-94771651D01*
X142017697Y-94848644D01*
X142110205Y-94868307D01*
X142196397Y-94886628D01*
X142196401Y-94886628D01*
X142202854Y-94888000D01*
X142392146Y-94888000D01*
X142398599Y-94886628D01*
X142398603Y-94886628D01*
X142484795Y-94868307D01*
X142577303Y-94848644D01*
X142750230Y-94771651D01*
X142786464Y-94745326D01*
X142898032Y-94664267D01*
X142903371Y-94660388D01*
X142912363Y-94650402D01*
X143025614Y-94524624D01*
X143025615Y-94524623D01*
X143030033Y-94519716D01*
X143030497Y-94520134D01*
X143083031Y-94479620D01*
X143153767Y-94473542D01*
X143216560Y-94506671D01*
X143226674Y-94518343D01*
X143227467Y-94519716D01*
X143231885Y-94524623D01*
X143231886Y-94524624D01*
X143345138Y-94650402D01*
X143354129Y-94660388D01*
X143359468Y-94664267D01*
X143471037Y-94745326D01*
X143507270Y-94771651D01*
X143680197Y-94848644D01*
X143772705Y-94868307D01*
X143858897Y-94886628D01*
X143858901Y-94886628D01*
X143865354Y-94888000D01*
X144054646Y-94888000D01*
X144061099Y-94886628D01*
X144061103Y-94886628D01*
X144147295Y-94868307D01*
X144239803Y-94848644D01*
X144412730Y-94771651D01*
X144448964Y-94745326D01*
X144560532Y-94664267D01*
X144565871Y-94660388D01*
X144574863Y-94650402D01*
X144665265Y-94550000D01*
X146354540Y-94550000D01*
X146355230Y-94556565D01*
X146370890Y-94705560D01*
X146374326Y-94738256D01*
X146432821Y-94918284D01*
X146527467Y-95082216D01*
X146531885Y-95087123D01*
X146531886Y-95087124D01*
X146565288Y-95124220D01*
X146654129Y-95222888D01*
X146659468Y-95226767D01*
X146765581Y-95303862D01*
X146807270Y-95334151D01*
X146980197Y-95411144D01*
X147078212Y-95431978D01*
X147158897Y-95449128D01*
X147158901Y-95449128D01*
X147165354Y-95450500D01*
X147354646Y-95450500D01*
X147361099Y-95449128D01*
X147361103Y-95449128D01*
X147441788Y-95431978D01*
X147539803Y-95411144D01*
X147712730Y-95334151D01*
X147754420Y-95303862D01*
X147860532Y-95226767D01*
X147865871Y-95222888D01*
X147954713Y-95124220D01*
X147988114Y-95087124D01*
X147988115Y-95087123D01*
X147992533Y-95082216D01*
X148087179Y-94918284D01*
X148145674Y-94738256D01*
X148149111Y-94705560D01*
X148164770Y-94556565D01*
X148165460Y-94550000D01*
X148157029Y-94469783D01*
X148146364Y-94368307D01*
X148146364Y-94368305D01*
X148145674Y-94361744D01*
X148087179Y-94181716D01*
X148079599Y-94168586D01*
X147995836Y-94023505D01*
X147992533Y-94017784D01*
X147988114Y-94012876D01*
X147870286Y-93882015D01*
X147870284Y-93882014D01*
X147865871Y-93877112D01*
X147767728Y-93805807D01*
X147718072Y-93769730D01*
X147718071Y-93769729D01*
X147712730Y-93765849D01*
X147539803Y-93688856D01*
X147441788Y-93668022D01*
X147361103Y-93650872D01*
X147361099Y-93650872D01*
X147354646Y-93649500D01*
X147165354Y-93649500D01*
X147158901Y-93650872D01*
X147158897Y-93650872D01*
X147078212Y-93668022D01*
X146980197Y-93688856D01*
X146807270Y-93765849D01*
X146801929Y-93769729D01*
X146801928Y-93769730D01*
X146752272Y-93805807D01*
X146654129Y-93877112D01*
X146649716Y-93882014D01*
X146649714Y-93882015D01*
X146531886Y-94012876D01*
X146527467Y-94017784D01*
X146524164Y-94023505D01*
X146440402Y-94168586D01*
X146432821Y-94181716D01*
X146374326Y-94361744D01*
X146373636Y-94368305D01*
X146373636Y-94368307D01*
X146362971Y-94469783D01*
X146354540Y-94550000D01*
X144665265Y-94550000D01*
X144688114Y-94524624D01*
X144688115Y-94524623D01*
X144692533Y-94519716D01*
X144715682Y-94479620D01*
X144783875Y-94361507D01*
X144783876Y-94361506D01*
X144787179Y-94355784D01*
X144845674Y-94175756D01*
X144848290Y-94150872D01*
X144864770Y-93994065D01*
X144865460Y-93987500D01*
X144849913Y-93839577D01*
X144846364Y-93805807D01*
X144846364Y-93805805D01*
X144845674Y-93799244D01*
X144787179Y-93619216D01*
X144692533Y-93455284D01*
X144675501Y-93436368D01*
X144570286Y-93319515D01*
X144570284Y-93319514D01*
X144565871Y-93314612D01*
X144412730Y-93203349D01*
X144239803Y-93126356D01*
X144141788Y-93105522D01*
X144061103Y-93088372D01*
X144061099Y-93088372D01*
X144054646Y-93087000D01*
X143865354Y-93087000D01*
X143858901Y-93088372D01*
X143858897Y-93088372D01*
X143778212Y-93105522D01*
X143680197Y-93126356D01*
X143507270Y-93203349D01*
X143354129Y-93314612D01*
X143349716Y-93319514D01*
X143349714Y-93319515D01*
X143244499Y-93436368D01*
X143227467Y-93455284D01*
X143227003Y-93454866D01*
X143174469Y-93495380D01*
X143103733Y-93501458D01*
X143040940Y-93468329D01*
X143030826Y-93456657D01*
X143030033Y-93455284D01*
X143013001Y-93436368D01*
X142907786Y-93319515D01*
X142907784Y-93319514D01*
X142903371Y-93314612D01*
X142750230Y-93203349D01*
X142577303Y-93126356D01*
X142479288Y-93105522D01*
X142398603Y-93088372D01*
X142398599Y-93088372D01*
X142392146Y-93087000D01*
X142202854Y-93087000D01*
X142196401Y-93088372D01*
X142196397Y-93088372D01*
X142115712Y-93105522D01*
X142017697Y-93126356D01*
X141844770Y-93203349D01*
X141691629Y-93314612D01*
X141687216Y-93319514D01*
X141687214Y-93319515D01*
X141581999Y-93436368D01*
X141564967Y-93455284D01*
X141564503Y-93454866D01*
X141511969Y-93495380D01*
X141441233Y-93501458D01*
X141378440Y-93468329D01*
X141368326Y-93456657D01*
X141367533Y-93455284D01*
X141350501Y-93436368D01*
X141245286Y-93319515D01*
X141245284Y-93319514D01*
X141240871Y-93314612D01*
X141087730Y-93203349D01*
X140914803Y-93126356D01*
X140816788Y-93105522D01*
X140736103Y-93088372D01*
X140736099Y-93088372D01*
X140729646Y-93087000D01*
X140540354Y-93087000D01*
X140533901Y-93088372D01*
X140533897Y-93088372D01*
X140453212Y-93105522D01*
X140355197Y-93126356D01*
X140182270Y-93203349D01*
X140029129Y-93314612D01*
X140024716Y-93319514D01*
X140024714Y-93319515D01*
X139919499Y-93436368D01*
X139902467Y-93455284D01*
X139807821Y-93619216D01*
X139749326Y-93799244D01*
X139748636Y-93805805D01*
X139748636Y-93805807D01*
X139745087Y-93839577D01*
X139729540Y-93987500D01*
X136387318Y-93987500D01*
X136374552Y-93882015D01*
X136370276Y-93846680D01*
X136310345Y-93688077D01*
X136271629Y-93631745D01*
X136218614Y-93554608D01*
X136218613Y-93554607D01*
X136214312Y-93548349D01*
X136161683Y-93501458D01*
X136093392Y-93440612D01*
X136093388Y-93440610D01*
X136087721Y-93435560D01*
X135937881Y-93356224D01*
X135773441Y-93314919D01*
X135765843Y-93314879D01*
X135765841Y-93314879D01*
X135688668Y-93314475D01*
X135603895Y-93314031D01*
X135596508Y-93315805D01*
X135596504Y-93315805D01*
X135453498Y-93350139D01*
X135439032Y-93353612D01*
X135432288Y-93357093D01*
X135432285Y-93357094D01*
X135427089Y-93359776D01*
X135288369Y-93431375D01*
X135282647Y-93436367D01*
X135282645Y-93436368D01*
X135226098Y-93485697D01*
X135160604Y-93542831D01*
X135156237Y-93549045D01*
X135084672Y-93650872D01*
X135063113Y-93681547D01*
X135001524Y-93839513D01*
X135000532Y-93847046D01*
X135000532Y-93847047D01*
X134982042Y-93987500D01*
X134979394Y-94007611D01*
X134997999Y-94176135D01*
X135056266Y-94335356D01*
X135060502Y-94341659D01*
X135060502Y-94341660D01*
X135069779Y-94355466D01*
X135150830Y-94476083D01*
X135156446Y-94481193D01*
X135239958Y-94557184D01*
X135276880Y-94617824D01*
X135275157Y-94688800D01*
X135237987Y-94745326D01*
X135160604Y-94812831D01*
X135156237Y-94819045D01*
X135086491Y-94918284D01*
X135063113Y-94951547D01*
X135001524Y-95109513D01*
X135000532Y-95117046D01*
X135000532Y-95117047D01*
X134983749Y-95244534D01*
X134979394Y-95277611D01*
X131295387Y-95277611D01*
X131308174Y-95238256D01*
X131308997Y-95230432D01*
X131327270Y-95056565D01*
X131327960Y-95050000D01*
X131317641Y-94951819D01*
X131308864Y-94868307D01*
X131308864Y-94868305D01*
X131308174Y-94861744D01*
X131249679Y-94681716D01*
X131155033Y-94517784D01*
X131145027Y-94506671D01*
X131032786Y-94382015D01*
X131032784Y-94382014D01*
X131028371Y-94377112D01*
X131007219Y-94361744D01*
X130880572Y-94269730D01*
X130880571Y-94269729D01*
X130875230Y-94265849D01*
X130702303Y-94188856D01*
X130604288Y-94168022D01*
X130523603Y-94150872D01*
X130523599Y-94150872D01*
X130517146Y-94149500D01*
X130327854Y-94149500D01*
X130321401Y-94150872D01*
X130321397Y-94150872D01*
X130240712Y-94168022D01*
X130142697Y-94188856D01*
X129969770Y-94265849D01*
X129964429Y-94269729D01*
X129964428Y-94269730D01*
X129837781Y-94361744D01*
X129816629Y-94377112D01*
X129812216Y-94382014D01*
X129812214Y-94382015D01*
X129699973Y-94506671D01*
X129689967Y-94517784D01*
X129595321Y-94681716D01*
X129536826Y-94861744D01*
X129536136Y-94868305D01*
X129536136Y-94868307D01*
X129527359Y-94951819D01*
X129517040Y-95050000D01*
X127060000Y-95050000D01*
X127060000Y-91450000D01*
X133754540Y-91450000D01*
X133774326Y-91638256D01*
X133832821Y-91818284D01*
X133927467Y-91982216D01*
X133931885Y-91987123D01*
X133931886Y-91987124D01*
X133997889Y-92060427D01*
X134054129Y-92122888D01*
X134207270Y-92234151D01*
X134380197Y-92311144D01*
X134478212Y-92331978D01*
X134558897Y-92349128D01*
X134558901Y-92349128D01*
X134565354Y-92350500D01*
X134754646Y-92350500D01*
X134761099Y-92349128D01*
X134761103Y-92349128D01*
X134841788Y-92331978D01*
X134939803Y-92311144D01*
X135112730Y-92234151D01*
X135265871Y-92122888D01*
X135322112Y-92060427D01*
X135388114Y-91987124D01*
X135388115Y-91987123D01*
X135392533Y-91982216D01*
X135487179Y-91818284D01*
X135545674Y-91638256D01*
X135565460Y-91450000D01*
X135545674Y-91261744D01*
X135487179Y-91081716D01*
X135470694Y-91053162D01*
X135395836Y-90923505D01*
X135392533Y-90917784D01*
X135265871Y-90777112D01*
X135112730Y-90665849D01*
X134939803Y-90588856D01*
X134841788Y-90568022D01*
X134761103Y-90550872D01*
X134761099Y-90550872D01*
X134754646Y-90549500D01*
X134565354Y-90549500D01*
X134558901Y-90550872D01*
X134558897Y-90550872D01*
X134478212Y-90568022D01*
X134380197Y-90588856D01*
X134207270Y-90665849D01*
X134054129Y-90777112D01*
X133927467Y-90917784D01*
X133924164Y-90923505D01*
X133849307Y-91053162D01*
X133832821Y-91081716D01*
X133774326Y-91261744D01*
X133754540Y-91450000D01*
X127060000Y-91450000D01*
X127060000Y-89628904D01*
X127080002Y-89560783D01*
X127133658Y-89514290D01*
X127203932Y-89504186D01*
X127268512Y-89533680D01*
X127290582Y-89558629D01*
X127321594Y-89604780D01*
X127321597Y-89604783D01*
X127325830Y-89611083D01*
X127331442Y-89616190D01*
X127331445Y-89616193D01*
X127445612Y-89720077D01*
X127445616Y-89720080D01*
X127451233Y-89725191D01*
X127457906Y-89728814D01*
X127457910Y-89728817D01*
X127593558Y-89802467D01*
X127593560Y-89802468D01*
X127600235Y-89806092D01*
X127607584Y-89808020D01*
X127756883Y-89847188D01*
X127756885Y-89847188D01*
X127764233Y-89849116D01*
X127850609Y-89850473D01*
X127926161Y-89851660D01*
X127926164Y-89851660D01*
X127933760Y-89851779D01*
X127941165Y-89850083D01*
X127941166Y-89850083D01*
X128001586Y-89836245D01*
X128099029Y-89813928D01*
X128105810Y-89810518D01*
X128105817Y-89810515D01*
X128123403Y-89801670D01*
X128193248Y-89788932D01*
X128258891Y-89815977D01*
X128299493Y-89874218D01*
X128305255Y-89900408D01*
X128322999Y-90061135D01*
X128348732Y-90131452D01*
X128363942Y-90173015D01*
X128381266Y-90220356D01*
X128385502Y-90226659D01*
X128385502Y-90226660D01*
X128398574Y-90246113D01*
X128475830Y-90361083D01*
X128481442Y-90366190D01*
X128481445Y-90366193D01*
X128595612Y-90470077D01*
X128595616Y-90470080D01*
X128601233Y-90475191D01*
X128607906Y-90478814D01*
X128607910Y-90478817D01*
X128743558Y-90552467D01*
X128743560Y-90552468D01*
X128750235Y-90556092D01*
X128757584Y-90558020D01*
X128906883Y-90597188D01*
X128906885Y-90597188D01*
X128914233Y-90599116D01*
X129000609Y-90600473D01*
X129076161Y-90601660D01*
X129076164Y-90601660D01*
X129083760Y-90601779D01*
X129091165Y-90600083D01*
X129091166Y-90600083D01*
X129151586Y-90586245D01*
X129249029Y-90563928D01*
X129400498Y-90487747D01*
X129529423Y-90377634D01*
X129628361Y-90239947D01*
X129636237Y-90220356D01*
X129688766Y-90089687D01*
X129688767Y-90089685D01*
X129691601Y-90082634D01*
X129715490Y-89914778D01*
X129715645Y-89900000D01*
X129695276Y-89731680D01*
X129635345Y-89573077D01*
X129587997Y-89504186D01*
X129543614Y-89439608D01*
X129543613Y-89439607D01*
X129539312Y-89433349D01*
X129516196Y-89412753D01*
X129418392Y-89325612D01*
X129418388Y-89325610D01*
X129412721Y-89320560D01*
X129394921Y-89311135D01*
X129345080Y-89284746D01*
X129262881Y-89241224D01*
X129098441Y-89199919D01*
X129090843Y-89199879D01*
X129090841Y-89199879D01*
X129013668Y-89199475D01*
X128928895Y-89199031D01*
X128921508Y-89200805D01*
X128921504Y-89200805D01*
X128819754Y-89225234D01*
X128764032Y-89238612D01*
X128748499Y-89246629D01*
X128678793Y-89260099D01*
X128612869Y-89233745D01*
X128571658Y-89175933D01*
X128565621Y-89149801D01*
X128557418Y-89082015D01*
X128545276Y-88981680D01*
X128522172Y-88920537D01*
X128516804Y-88849745D01*
X128550561Y-88787288D01*
X128612727Y-88752996D01*
X128640038Y-88750000D01*
X136118662Y-88750000D01*
X136186783Y-88770002D01*
G37*
%TD.AperFunction*%
%TD*%
%TA.AperFunction,Conductor*%
%TO.N,GNDA*%
G36*
X138619976Y-69770002D02*
G01*
X138666469Y-69823658D01*
X138677094Y-69862172D01*
X138682499Y-69911135D01*
X138740766Y-70070356D01*
X138745002Y-70076659D01*
X138745002Y-70076660D01*
X138758074Y-70096113D01*
X138835330Y-70211083D01*
X138840942Y-70216190D01*
X138840945Y-70216193D01*
X138955112Y-70320077D01*
X138955116Y-70320080D01*
X138960733Y-70325191D01*
X138967406Y-70328814D01*
X138967410Y-70328817D01*
X139103058Y-70402467D01*
X139103060Y-70402468D01*
X139109735Y-70406092D01*
X139117084Y-70408020D01*
X139266383Y-70447188D01*
X139266385Y-70447188D01*
X139273733Y-70449116D01*
X139360109Y-70450473D01*
X139435661Y-70451660D01*
X139435664Y-70451660D01*
X139443260Y-70451779D01*
X139450665Y-70450083D01*
X139450666Y-70450083D01*
X139511086Y-70436245D01*
X139608529Y-70413928D01*
X139759998Y-70337747D01*
X139888923Y-70227634D01*
X139987861Y-70089947D01*
X139995737Y-70070356D01*
X140048266Y-69939687D01*
X140048267Y-69939685D01*
X140051101Y-69932634D01*
X140059161Y-69876000D01*
X140061688Y-69858246D01*
X140091089Y-69793623D01*
X140150760Y-69755155D01*
X140186431Y-69750000D01*
X158934000Y-69750000D01*
X159002121Y-69770002D01*
X159048614Y-69823658D01*
X159060000Y-69876000D01*
X159060000Y-88024000D01*
X159039998Y-88092121D01*
X158986342Y-88138614D01*
X158934000Y-88150000D01*
X127186000Y-88150000D01*
X127117879Y-88129998D01*
X127071386Y-88076342D01*
X127060000Y-88024000D01*
X127060000Y-86375000D01*
X133704540Y-86375000D01*
X133724326Y-86563256D01*
X133782821Y-86743284D01*
X133786124Y-86749006D01*
X133786125Y-86749007D01*
X133826122Y-86818284D01*
X133877467Y-86907216D01*
X133881885Y-86912123D01*
X133881886Y-86912124D01*
X133949417Y-86987124D01*
X134004129Y-87047888D01*
X134009468Y-87051767D01*
X134100610Y-87117985D01*
X134157270Y-87159151D01*
X134330197Y-87236144D01*
X134428212Y-87256978D01*
X134508897Y-87274128D01*
X134508901Y-87274128D01*
X134515354Y-87275500D01*
X134704646Y-87275500D01*
X134711099Y-87274128D01*
X134711103Y-87274128D01*
X134791788Y-87256978D01*
X134889803Y-87236144D01*
X135062730Y-87159151D01*
X135119391Y-87117985D01*
X135210532Y-87051767D01*
X135215871Y-87047888D01*
X135270584Y-86987124D01*
X135338114Y-86912124D01*
X135338115Y-86912123D01*
X135342533Y-86907216D01*
X135393878Y-86818284D01*
X135433875Y-86749007D01*
X135433876Y-86749006D01*
X135437179Y-86743284D01*
X135495674Y-86563256D01*
X135507577Y-86450000D01*
X154054540Y-86450000D01*
X154055230Y-86456565D01*
X154065754Y-86556693D01*
X154074326Y-86638256D01*
X154132821Y-86818284D01*
X154227467Y-86982216D01*
X154231885Y-86987123D01*
X154231886Y-86987124D01*
X154286599Y-87047888D01*
X154354129Y-87122888D01*
X154507270Y-87234151D01*
X154680197Y-87311144D01*
X154778212Y-87331978D01*
X154858897Y-87349128D01*
X154858901Y-87349128D01*
X154865354Y-87350500D01*
X155054646Y-87350500D01*
X155061099Y-87349128D01*
X155061103Y-87349128D01*
X155141788Y-87331978D01*
X155239803Y-87311144D01*
X155412730Y-87234151D01*
X155565871Y-87122888D01*
X155633402Y-87047888D01*
X155688114Y-86987124D01*
X155688115Y-86987123D01*
X155692533Y-86982216D01*
X155787179Y-86818284D01*
X155845674Y-86638256D01*
X155854247Y-86556693D01*
X155864770Y-86456565D01*
X155865460Y-86450000D01*
X155845674Y-86261744D01*
X155787179Y-86081716D01*
X155747507Y-86013001D01*
X155695836Y-85923505D01*
X155692533Y-85917784D01*
X155625003Y-85842784D01*
X155570286Y-85782015D01*
X155570284Y-85782014D01*
X155565871Y-85777112D01*
X155560532Y-85773233D01*
X155418072Y-85669730D01*
X155418071Y-85669729D01*
X155412730Y-85665849D01*
X155239803Y-85588856D01*
X155141788Y-85568022D01*
X155061103Y-85550872D01*
X155061099Y-85550872D01*
X155054646Y-85549500D01*
X154865354Y-85549500D01*
X154858901Y-85550872D01*
X154858897Y-85550872D01*
X154778212Y-85568022D01*
X154680197Y-85588856D01*
X154507270Y-85665849D01*
X154501929Y-85669729D01*
X154501928Y-85669730D01*
X154359468Y-85773233D01*
X154354129Y-85777112D01*
X154349716Y-85782014D01*
X154349714Y-85782015D01*
X154294997Y-85842784D01*
X154227467Y-85917784D01*
X154224164Y-85923505D01*
X154172494Y-86013001D01*
X154132821Y-86081716D01*
X154074326Y-86261744D01*
X154054540Y-86450000D01*
X135507577Y-86450000D01*
X135515460Y-86375000D01*
X135507060Y-86295075D01*
X135496364Y-86193307D01*
X135496364Y-86193305D01*
X135495674Y-86186744D01*
X135437179Y-86006716D01*
X135342533Y-85842784D01*
X135287816Y-85782015D01*
X135220286Y-85707015D01*
X135220284Y-85707014D01*
X135215871Y-85702112D01*
X135062730Y-85590849D01*
X134889803Y-85513856D01*
X134791788Y-85493022D01*
X134711103Y-85475872D01*
X134711099Y-85475872D01*
X134704646Y-85474500D01*
X134515354Y-85474500D01*
X134508901Y-85475872D01*
X134508897Y-85475872D01*
X134428212Y-85493022D01*
X134330197Y-85513856D01*
X134157270Y-85590849D01*
X134004129Y-85702112D01*
X133999716Y-85707014D01*
X133999714Y-85707015D01*
X133932184Y-85782015D01*
X133877467Y-85842784D01*
X133782821Y-86006716D01*
X133724326Y-86186744D01*
X133723636Y-86193305D01*
X133723636Y-86193307D01*
X133712940Y-86295075D01*
X133704540Y-86375000D01*
X127060000Y-86375000D01*
X127060000Y-83620000D01*
X144854540Y-83620000D01*
X144855230Y-83626565D01*
X144869417Y-83761545D01*
X144874326Y-83808256D01*
X144932821Y-83988284D01*
X145027467Y-84152216D01*
X145031885Y-84157123D01*
X145031886Y-84157124D01*
X145122717Y-84258001D01*
X145154129Y-84292888D01*
X145307270Y-84404151D01*
X145480197Y-84481144D01*
X145578212Y-84501978D01*
X145658897Y-84519128D01*
X145658901Y-84519128D01*
X145665354Y-84520500D01*
X145730631Y-84520500D01*
X145798752Y-84540502D01*
X145845245Y-84594158D01*
X145855941Y-84633330D01*
X145868316Y-84751069D01*
X145874326Y-84808256D01*
X145932821Y-84988284D01*
X146027467Y-85152216D01*
X146154129Y-85292888D01*
X146307270Y-85404151D01*
X146480197Y-85481144D01*
X146578212Y-85501978D01*
X146658897Y-85519128D01*
X146658901Y-85519128D01*
X146665354Y-85520500D01*
X146854646Y-85520500D01*
X146861099Y-85519128D01*
X146861103Y-85519128D01*
X146941788Y-85501978D01*
X147039803Y-85481144D01*
X147212730Y-85404151D01*
X147365871Y-85292888D01*
X147492533Y-85152216D01*
X147587179Y-84988284D01*
X147618589Y-84891613D01*
X147640167Y-84825205D01*
X147680241Y-84766599D01*
X147745637Y-84738962D01*
X147815594Y-84751069D01*
X147867900Y-84799075D01*
X147879833Y-84825205D01*
X147901411Y-84891613D01*
X147932821Y-84988284D01*
X148027467Y-85152216D01*
X148154129Y-85292888D01*
X148307270Y-85404151D01*
X148480197Y-85481144D01*
X148578212Y-85501978D01*
X148658897Y-85519128D01*
X148658901Y-85519128D01*
X148665354Y-85520500D01*
X148854646Y-85520500D01*
X148861099Y-85519128D01*
X148861103Y-85519128D01*
X148941788Y-85501978D01*
X149039803Y-85481144D01*
X149212730Y-85404151D01*
X149365871Y-85292888D01*
X149492533Y-85152216D01*
X149587179Y-84988284D01*
X149618589Y-84891613D01*
X149640167Y-84825205D01*
X149680241Y-84766599D01*
X149745637Y-84738962D01*
X149815594Y-84751069D01*
X149867900Y-84799075D01*
X149879833Y-84825205D01*
X149901411Y-84891613D01*
X149932821Y-84988284D01*
X150027467Y-85152216D01*
X150154129Y-85292888D01*
X150307270Y-85404151D01*
X150480197Y-85481144D01*
X150578212Y-85501978D01*
X150658897Y-85519128D01*
X150658901Y-85519128D01*
X150665354Y-85520500D01*
X150854646Y-85520500D01*
X150861099Y-85519128D01*
X150861103Y-85519128D01*
X150941788Y-85501978D01*
X151039803Y-85481144D01*
X151212730Y-85404151D01*
X151365871Y-85292888D01*
X151492533Y-85152216D01*
X151587179Y-84988284D01*
X151645674Y-84808256D01*
X151651685Y-84751069D01*
X151664770Y-84626565D01*
X151665460Y-84620000D01*
X151657105Y-84540502D01*
X151646364Y-84438307D01*
X151646364Y-84438305D01*
X151645674Y-84431744D01*
X151587179Y-84251716D01*
X151492533Y-84087784D01*
X151402943Y-83988284D01*
X151370286Y-83952015D01*
X151370284Y-83952014D01*
X151365871Y-83947112D01*
X151212730Y-83835849D01*
X151039803Y-83758856D01*
X150941788Y-83738022D01*
X150861103Y-83720872D01*
X150861099Y-83720872D01*
X150854646Y-83719500D01*
X150789369Y-83719500D01*
X150721248Y-83699498D01*
X150674755Y-83645842D01*
X150664059Y-83606670D01*
X150646364Y-83438307D01*
X150646364Y-83438305D01*
X150645674Y-83431744D01*
X150587179Y-83251716D01*
X150492533Y-83087784D01*
X150365871Y-82947112D01*
X150212730Y-82835849D01*
X150039803Y-82758856D01*
X149941788Y-82738022D01*
X149861103Y-82720872D01*
X149861099Y-82720872D01*
X149854646Y-82719500D01*
X149665354Y-82719500D01*
X149658901Y-82720872D01*
X149658897Y-82720872D01*
X149578212Y-82738022D01*
X149480197Y-82758856D01*
X149307270Y-82835849D01*
X149154129Y-82947112D01*
X149027467Y-83087784D01*
X148932821Y-83251716D01*
X148930779Y-83258001D01*
X148879833Y-83414795D01*
X148839759Y-83473401D01*
X148774363Y-83501038D01*
X148704406Y-83488931D01*
X148652100Y-83440925D01*
X148640167Y-83414795D01*
X148589221Y-83258001D01*
X148587179Y-83251716D01*
X148492533Y-83087784D01*
X148365871Y-82947112D01*
X148212730Y-82835849D01*
X148039803Y-82758856D01*
X147941788Y-82738022D01*
X147861103Y-82720872D01*
X147861099Y-82720872D01*
X147854646Y-82719500D01*
X147665354Y-82719500D01*
X147658901Y-82720872D01*
X147658897Y-82720872D01*
X147578212Y-82738022D01*
X147480197Y-82758856D01*
X147307270Y-82835849D01*
X147154129Y-82947112D01*
X147027467Y-83087784D01*
X146932821Y-83251716D01*
X146930779Y-83258001D01*
X146879833Y-83414795D01*
X146839759Y-83473401D01*
X146774363Y-83501038D01*
X146704406Y-83488931D01*
X146652100Y-83440925D01*
X146640167Y-83414795D01*
X146589221Y-83258001D01*
X146587179Y-83251716D01*
X146492533Y-83087784D01*
X146365871Y-82947112D01*
X146212730Y-82835849D01*
X146039803Y-82758856D01*
X145941788Y-82738022D01*
X145861103Y-82720872D01*
X145861099Y-82720872D01*
X145854646Y-82719500D01*
X145665354Y-82719500D01*
X145658901Y-82720872D01*
X145658897Y-82720872D01*
X145578212Y-82738022D01*
X145480197Y-82758856D01*
X145307270Y-82835849D01*
X145154129Y-82947112D01*
X145027467Y-83087784D01*
X144932821Y-83251716D01*
X144874326Y-83431744D01*
X144873636Y-83438305D01*
X144873636Y-83438307D01*
X144867043Y-83501038D01*
X144854540Y-83620000D01*
X127060000Y-83620000D01*
X127060000Y-74150000D01*
X131830040Y-74150000D01*
X131849826Y-74338256D01*
X131908321Y-74518284D01*
X131911624Y-74524006D01*
X131911625Y-74524007D01*
X131960244Y-74608218D01*
X131976982Y-74677214D01*
X131960244Y-74734218D01*
X131932821Y-74781716D01*
X131874326Y-74961744D01*
X131854540Y-75150000D01*
X131874326Y-75338256D01*
X131932821Y-75518284D01*
X131936124Y-75524006D01*
X131936125Y-75524007D01*
X131972494Y-75587000D01*
X131989232Y-75655996D01*
X131972494Y-75713000D01*
X131932821Y-75781716D01*
X131874326Y-75961744D01*
X131854540Y-76150000D01*
X131874326Y-76338256D01*
X131932821Y-76518284D01*
X131936124Y-76524006D01*
X131936125Y-76524007D01*
X131972494Y-76587000D01*
X131989232Y-76655996D01*
X131972494Y-76713000D01*
X131932821Y-76781716D01*
X131874326Y-76961744D01*
X131854540Y-77150000D01*
X131855230Y-77156565D01*
X131869417Y-77291545D01*
X131874326Y-77338256D01*
X131932821Y-77518284D01*
X131936124Y-77524006D01*
X131936125Y-77524007D01*
X131972494Y-77587000D01*
X131989232Y-77655996D01*
X131972494Y-77713000D01*
X131932821Y-77781716D01*
X131874326Y-77961744D01*
X131854540Y-78150000D01*
X131874326Y-78338256D01*
X131932821Y-78518284D01*
X131936124Y-78524006D01*
X131936125Y-78524007D01*
X132005405Y-78644004D01*
X132027467Y-78682216D01*
X132031885Y-78687123D01*
X132031886Y-78687124D01*
X132133629Y-78800120D01*
X132154129Y-78822888D01*
X132307270Y-78934151D01*
X132480197Y-79011144D01*
X132578212Y-79031978D01*
X132658897Y-79049128D01*
X132658901Y-79049128D01*
X132665354Y-79050500D01*
X132730631Y-79050500D01*
X132798752Y-79070502D01*
X132845245Y-79124158D01*
X132855941Y-79163330D01*
X132874326Y-79338256D01*
X132932821Y-79518284D01*
X132936124Y-79524006D01*
X132936125Y-79524007D01*
X132972494Y-79587000D01*
X132989232Y-79655996D01*
X132972494Y-79713000D01*
X132932821Y-79781716D01*
X132874326Y-79961744D01*
X132854540Y-80150000D01*
X132874326Y-80338256D01*
X132932821Y-80518284D01*
X132936124Y-80524006D01*
X132936125Y-80524007D01*
X132972494Y-80587000D01*
X132989232Y-80655996D01*
X132972494Y-80713000D01*
X132932821Y-80781716D01*
X132874326Y-80961744D01*
X132854540Y-81150000D01*
X132874326Y-81338256D01*
X132932821Y-81518284D01*
X133027467Y-81682216D01*
X133031885Y-81687123D01*
X133031886Y-81687124D01*
X133070397Y-81729894D01*
X133154129Y-81822888D01*
X133307270Y-81934151D01*
X133480197Y-82011144D01*
X133578212Y-82031978D01*
X133658897Y-82049128D01*
X133658901Y-82049128D01*
X133665354Y-82050500D01*
X133854646Y-82050500D01*
X133861099Y-82049128D01*
X133861103Y-82049128D01*
X133941788Y-82031978D01*
X134039803Y-82011144D01*
X134212730Y-81934151D01*
X134365871Y-81822888D01*
X134449604Y-81729894D01*
X134488114Y-81687124D01*
X134488115Y-81687123D01*
X134492533Y-81682216D01*
X134587179Y-81518284D01*
X134645674Y-81338256D01*
X134665460Y-81150000D01*
X134645674Y-80961744D01*
X134587179Y-80781716D01*
X134547506Y-80713000D01*
X134530768Y-80644004D01*
X134547506Y-80587000D01*
X134583875Y-80524007D01*
X134583876Y-80524006D01*
X134587179Y-80518284D01*
X134645674Y-80338256D01*
X134665460Y-80150000D01*
X134645674Y-79961744D01*
X134587179Y-79781716D01*
X134547506Y-79713000D01*
X134530768Y-79644004D01*
X134547506Y-79587000D01*
X134583875Y-79524007D01*
X134583876Y-79524006D01*
X134587179Y-79518284D01*
X134645674Y-79338256D01*
X134665460Y-79150000D01*
X134657105Y-79070502D01*
X134646364Y-78968307D01*
X134646364Y-78968305D01*
X134645674Y-78961744D01*
X134587179Y-78781716D01*
X134547506Y-78713000D01*
X134530768Y-78644004D01*
X134547506Y-78587000D01*
X134583875Y-78524007D01*
X134583876Y-78524006D01*
X134587179Y-78518284D01*
X134645674Y-78338256D01*
X134665460Y-78150000D01*
X134645674Y-77961744D01*
X134587179Y-77781716D01*
X134492533Y-77617784D01*
X134402943Y-77518284D01*
X134370286Y-77482015D01*
X134370284Y-77482014D01*
X134365871Y-77477112D01*
X134212730Y-77365849D01*
X134039803Y-77288856D01*
X133941788Y-77268022D01*
X133861103Y-77250872D01*
X133861099Y-77250872D01*
X133854646Y-77249500D01*
X133789369Y-77249500D01*
X133721248Y-77229498D01*
X133674755Y-77175842D01*
X133664059Y-77136670D01*
X133646364Y-76968307D01*
X133646364Y-76968305D01*
X133645674Y-76961744D01*
X133587179Y-76781716D01*
X133547506Y-76713000D01*
X133530768Y-76644004D01*
X133547506Y-76587000D01*
X133583875Y-76524007D01*
X133583876Y-76524006D01*
X133587179Y-76518284D01*
X133645674Y-76338256D01*
X133665460Y-76150000D01*
X133645674Y-75961744D01*
X133587179Y-75781716D01*
X133547506Y-75713000D01*
X133530768Y-75644004D01*
X133547506Y-75587000D01*
X133583875Y-75524007D01*
X133583876Y-75524006D01*
X133587179Y-75518284D01*
X133645674Y-75338256D01*
X133665460Y-75150000D01*
X133645674Y-74961744D01*
X133632110Y-74920000D01*
X146029040Y-74920000D01*
X146048826Y-75108256D01*
X146107321Y-75288284D01*
X146201967Y-75452216D01*
X146328629Y-75592888D01*
X146481770Y-75704151D01*
X146654697Y-75781144D01*
X146752712Y-75801978D01*
X146833397Y-75819128D01*
X146833401Y-75819128D01*
X146839854Y-75820500D01*
X147029146Y-75820500D01*
X147035599Y-75819128D01*
X147035603Y-75819128D01*
X147116288Y-75801978D01*
X147214303Y-75781144D01*
X147387230Y-75704151D01*
X147540371Y-75592888D01*
X147667033Y-75452216D01*
X147761679Y-75288284D01*
X147820174Y-75108256D01*
X147839960Y-74920000D01*
X147820174Y-74731744D01*
X147761679Y-74551716D01*
X147738749Y-74511999D01*
X147670336Y-74393505D01*
X147667033Y-74387784D01*
X147662614Y-74382876D01*
X147544786Y-74252015D01*
X147544784Y-74252014D01*
X147540371Y-74247112D01*
X147406707Y-74150000D01*
X147392572Y-74139730D01*
X147392571Y-74139729D01*
X147387230Y-74135849D01*
X147214303Y-74058856D01*
X147116288Y-74038022D01*
X147035603Y-74020872D01*
X147035599Y-74020872D01*
X147029146Y-74019500D01*
X146839854Y-74019500D01*
X146833401Y-74020872D01*
X146833397Y-74020872D01*
X146752712Y-74038022D01*
X146654697Y-74058856D01*
X146481770Y-74135849D01*
X146476429Y-74139729D01*
X146476428Y-74139730D01*
X146462293Y-74150000D01*
X146328629Y-74247112D01*
X146324216Y-74252014D01*
X146324214Y-74252015D01*
X146206386Y-74382876D01*
X146201967Y-74387784D01*
X146198664Y-74393505D01*
X146130252Y-74511999D01*
X146107321Y-74551716D01*
X146048826Y-74731744D01*
X146029040Y-74920000D01*
X133632110Y-74920000D01*
X133587179Y-74781716D01*
X133535256Y-74691782D01*
X133518518Y-74622786D01*
X133535256Y-74565782D01*
X133559375Y-74524007D01*
X133559376Y-74524006D01*
X133562679Y-74518284D01*
X133621174Y-74338256D01*
X133640960Y-74150000D01*
X133631236Y-74057483D01*
X133621864Y-73968307D01*
X133621864Y-73968305D01*
X133621174Y-73961744D01*
X133562679Y-73781716D01*
X133468033Y-73617784D01*
X133341371Y-73477112D01*
X133188230Y-73365849D01*
X133015303Y-73288856D01*
X132917288Y-73268022D01*
X132836603Y-73250872D01*
X132836599Y-73250872D01*
X132830146Y-73249500D01*
X132640854Y-73249500D01*
X132634401Y-73250872D01*
X132634397Y-73250872D01*
X132553712Y-73268022D01*
X132455697Y-73288856D01*
X132282770Y-73365849D01*
X132129629Y-73477112D01*
X132002967Y-73617784D01*
X131908321Y-73781716D01*
X131849826Y-73961744D01*
X131849136Y-73968305D01*
X131849136Y-73968307D01*
X131839764Y-74057483D01*
X131830040Y-74150000D01*
X127060000Y-74150000D01*
X127060000Y-71842611D01*
X141829394Y-71842611D01*
X141847999Y-72011135D01*
X141906266Y-72170356D01*
X141910502Y-72176659D01*
X141910502Y-72176660D01*
X141923574Y-72196113D01*
X142000830Y-72311083D01*
X142006442Y-72316190D01*
X142006445Y-72316193D01*
X142120612Y-72420077D01*
X142120616Y-72420080D01*
X142126233Y-72425191D01*
X142132906Y-72428814D01*
X142132910Y-72428817D01*
X142268558Y-72502467D01*
X142268560Y-72502468D01*
X142275235Y-72506092D01*
X142282584Y-72508020D01*
X142431883Y-72547188D01*
X142431885Y-72547188D01*
X142439233Y-72549116D01*
X142525609Y-72550473D01*
X142601161Y-72551660D01*
X142601164Y-72551660D01*
X142608760Y-72551779D01*
X142616165Y-72550083D01*
X142616166Y-72550083D01*
X142676586Y-72536245D01*
X142774029Y-72513928D01*
X142925498Y-72437747D01*
X143054423Y-72327634D01*
X143058852Y-72321470D01*
X143063998Y-72315874D01*
X143065447Y-72317206D01*
X143113419Y-72279815D01*
X143184123Y-72273372D01*
X143247086Y-72306178D01*
X143248626Y-72307804D01*
X143250830Y-72311083D01*
X143256446Y-72316193D01*
X143256449Y-72316196D01*
X143370612Y-72420077D01*
X143370616Y-72420080D01*
X143376233Y-72425191D01*
X143382906Y-72428814D01*
X143382910Y-72428817D01*
X143518558Y-72502467D01*
X143518560Y-72502468D01*
X143525235Y-72506092D01*
X143532584Y-72508020D01*
X143681883Y-72547188D01*
X143681885Y-72547188D01*
X143689233Y-72549116D01*
X143775609Y-72550473D01*
X143851161Y-72551660D01*
X143851164Y-72551660D01*
X143858760Y-72551779D01*
X143866165Y-72550083D01*
X143866166Y-72550083D01*
X143926586Y-72536245D01*
X144024029Y-72513928D01*
X144175498Y-72437747D01*
X144304423Y-72327634D01*
X144403361Y-72189947D01*
X144411237Y-72170356D01*
X144463766Y-72039687D01*
X144463767Y-72039685D01*
X144466601Y-72032634D01*
X144490490Y-71864778D01*
X144490645Y-71850000D01*
X144488840Y-71835080D01*
X144471188Y-71689220D01*
X144470276Y-71681680D01*
X144410345Y-71523077D01*
X144342408Y-71424229D01*
X144318614Y-71389608D01*
X144318613Y-71389607D01*
X144314312Y-71383349D01*
X144302514Y-71372837D01*
X144193392Y-71275612D01*
X144193388Y-71275610D01*
X144187721Y-71270560D01*
X144037881Y-71191224D01*
X143873441Y-71149919D01*
X143865843Y-71149879D01*
X143865841Y-71149879D01*
X143788668Y-71149475D01*
X143703895Y-71149031D01*
X143696508Y-71150805D01*
X143696504Y-71150805D01*
X143553162Y-71185220D01*
X143539032Y-71188612D01*
X143532288Y-71192093D01*
X143532285Y-71192094D01*
X143527089Y-71194776D01*
X143388369Y-71266375D01*
X143260604Y-71377831D01*
X143256236Y-71384045D01*
X143253585Y-71386990D01*
X143193138Y-71424229D01*
X143122154Y-71422876D01*
X143066704Y-71386829D01*
X143064312Y-71383349D01*
X143011636Y-71336416D01*
X142943392Y-71275612D01*
X142943388Y-71275610D01*
X142937721Y-71270560D01*
X142787881Y-71191224D01*
X142623441Y-71149919D01*
X142615843Y-71149879D01*
X142615841Y-71149879D01*
X142538668Y-71149475D01*
X142453895Y-71149031D01*
X142446508Y-71150805D01*
X142446504Y-71150805D01*
X142303162Y-71185220D01*
X142289032Y-71188612D01*
X142282288Y-71192093D01*
X142282285Y-71192094D01*
X142277089Y-71194776D01*
X142138369Y-71266375D01*
X142010604Y-71377831D01*
X141913113Y-71516547D01*
X141851524Y-71674513D01*
X141829394Y-71842611D01*
X127060000Y-71842611D01*
X127060000Y-69876000D01*
X127080002Y-69807879D01*
X127133658Y-69761386D01*
X127186000Y-69750000D01*
X138551855Y-69750000D01*
X138619976Y-69770002D01*
G37*
%TD.AperFunction*%
%TD*%
M02*
