%TF.GenerationSoftware,KiCad,Pcbnew,6.0.10-86aedd382b~118~ubuntu20.04.1*%
%TF.CreationDate,2023-01-12T10:33:16+01:00*%
%TF.ProjectId,thrust_controller,74687275-7374-45f6-936f-6e74726f6c6c,rev?*%
%TF.SameCoordinates,Original*%
%TF.FileFunction,Copper,L4,Bot*%
%TF.FilePolarity,Positive*%
%FSLAX46Y46*%
G04 Gerber Fmt 4.6, Leading zero omitted, Abs format (unit mm)*
G04 Created by KiCad (PCBNEW 6.0.10-86aedd382b~118~ubuntu20.04.1) date 2023-01-12 10:33:16*
%MOMM*%
%LPD*%
G01*
G04 APERTURE LIST*
G04 Aperture macros list*
%AMRoundRect*
0 Rectangle with rounded corners*
0 $1 Rounding radius*
0 $2 $3 $4 $5 $6 $7 $8 $9 X,Y pos of 4 corners*
0 Add a 4 corners polygon primitive as box body*
4,1,4,$2,$3,$4,$5,$6,$7,$8,$9,$2,$3,0*
0 Add four circle primitives for the rounded corners*
1,1,$1+$1,$2,$3*
1,1,$1+$1,$4,$5*
1,1,$1+$1,$6,$7*
1,1,$1+$1,$8,$9*
0 Add four rect primitives between the rounded corners*
20,1,$1+$1,$2,$3,$4,$5,0*
20,1,$1+$1,$4,$5,$6,$7,0*
20,1,$1+$1,$6,$7,$8,$9,0*
20,1,$1+$1,$8,$9,$2,$3,0*%
G04 Aperture macros list end*
%TA.AperFunction,Profile*%
%ADD10C,0.200000*%
%TD*%
%TA.AperFunction,ComponentPad*%
%ADD11C,6.400000*%
%TD*%
%TA.AperFunction,ComponentPad*%
%ADD12C,1.400000*%
%TD*%
%TA.AperFunction,ComponentPad*%
%ADD13O,1.400000X1.400000*%
%TD*%
%TA.AperFunction,SMDPad,CuDef*%
%ADD14RoundRect,0.250000X0.475000X-0.337500X0.475000X0.337500X-0.475000X0.337500X-0.475000X-0.337500X0*%
%TD*%
%TA.AperFunction,SMDPad,CuDef*%
%ADD15RoundRect,0.250000X-0.475000X0.337500X-0.475000X-0.337500X0.475000X-0.337500X0.475000X0.337500X0*%
%TD*%
%TA.AperFunction,SMDPad,CuDef*%
%ADD16RoundRect,0.500000X-0.500000X-1.500000X0.500000X-1.500000X0.500000X1.500000X-0.500000X1.500000X0*%
%TD*%
%TA.AperFunction,SMDPad,CuDef*%
%ADD17RoundRect,0.425000X0.425000X-1.325000X0.425000X1.325000X-0.425000X1.325000X-0.425000X-1.325000X0*%
%TD*%
%TA.AperFunction,ComponentPad*%
%ADD18C,2.000000*%
%TD*%
%TA.AperFunction,SMDPad,CuDef*%
%ADD19RoundRect,0.500000X0.500000X1.500000X-0.500000X1.500000X-0.500000X-1.500000X0.500000X-1.500000X0*%
%TD*%
%TA.AperFunction,SMDPad,CuDef*%
%ADD20RoundRect,0.127000X-0.127000X0.623000X-0.127000X-0.623000X0.127000X-0.623000X0.127000X0.623000X0*%
%TD*%
%TA.AperFunction,SMDPad,CuDef*%
%ADD21RoundRect,0.250000X-0.337500X-0.475000X0.337500X-0.475000X0.337500X0.475000X-0.337500X0.475000X0*%
%TD*%
%TA.AperFunction,SMDPad,CuDef*%
%ADD22RoundRect,0.150000X-0.150000X-1.200000X0.150000X-1.200000X0.150000X1.200000X-0.150000X1.200000X0*%
%TD*%
%TA.AperFunction,SMDPad,CuDef*%
%ADD23RoundRect,0.500000X-0.500000X-0.850000X0.500000X-0.850000X0.500000X0.850000X-0.500000X0.850000X0*%
%TD*%
%TA.AperFunction,SMDPad,CuDef*%
%ADD24RoundRect,0.127000X-0.623000X-0.127000X0.623000X-0.127000X0.623000X0.127000X-0.623000X0.127000X0*%
%TD*%
%TA.AperFunction,SMDPad,CuDef*%
%ADD25RoundRect,0.150000X1.200000X-0.150000X1.200000X0.150000X-1.200000X0.150000X-1.200000X-0.150000X0*%
%TD*%
%TA.AperFunction,SMDPad,CuDef*%
%ADD26RoundRect,0.500000X0.850000X-0.500000X0.850000X0.500000X-0.850000X0.500000X-0.850000X-0.500000X0*%
%TD*%
%TA.AperFunction,SMDPad,CuDef*%
%ADD27RoundRect,0.150000X-1.200000X0.150000X-1.200000X-0.150000X1.200000X-0.150000X1.200000X0.150000X0*%
%TD*%
%TA.AperFunction,SMDPad,CuDef*%
%ADD28RoundRect,0.500000X-0.850000X0.500000X-0.850000X-0.500000X0.850000X-0.500000X0.850000X0.500000X0*%
%TD*%
%TA.AperFunction,SMDPad,CuDef*%
%ADD29RoundRect,0.250000X0.337500X0.475000X-0.337500X0.475000X-0.337500X-0.475000X0.337500X-0.475000X0*%
%TD*%
%TA.AperFunction,ViaPad*%
%ADD30C,0.800000*%
%TD*%
%TA.AperFunction,ViaPad*%
%ADD31C,0.400000*%
%TD*%
%TA.AperFunction,Conductor*%
%ADD32C,0.400000*%
%TD*%
%TA.AperFunction,Conductor*%
%ADD33C,0.250000*%
%TD*%
%TA.AperFunction,Conductor*%
%ADD34C,0.200000*%
%TD*%
G04 APERTURE END LIST*
D10*
X169350000Y-83700000D02*
G75*
G03*
X169350000Y-83700000I-26180000J0D01*
G01*
D11*
%TO.P,H2,1*%
%TO.N,N/C*%
X163300000Y-75700000D03*
%TD*%
D12*
%TO.P,R6,1*%
%TO.N,Net-(R3-Pad1)*%
X137020000Y-89850000D03*
D13*
%TO.P,R6,2*%
%TO.N,Net-(R3-Pad2)*%
X142100000Y-89850000D03*
%TD*%
D11*
%TO.P,H1,1*%
%TO.N,N/C*%
X123040000Y-75700000D03*
%TD*%
D14*
%TO.P,C13,1*%
%TO.N,+5V*%
X140260000Y-83587500D03*
%TO.P,C13,2*%
%TO.N,GNDA*%
X140260000Y-81512500D03*
%TD*%
D15*
%TO.P,C14,1*%
%TO.N,+3.3V*%
X148260000Y-84812500D03*
%TO.P,C14,2*%
%TO.N,GNDA*%
X148260000Y-86887500D03*
%TD*%
D16*
%TO.P,J2,1,Pin_1*%
%TO.N,+3.3VA*%
X139793334Y-97850000D03*
%TD*%
D17*
%TO.P,J8,1,Pin_1*%
%TO.N,Cmd*%
X154985000Y-80625000D03*
%TO.P,J8,2,Pin_2*%
%TO.N,unconnected-(J8-Pad2)*%
X152445000Y-80625000D03*
%TO.P,J8,3,Pin_3*%
%TO.N,GNDA*%
X149905000Y-80625000D03*
%TD*%
D18*
%TO.P,TP6,1,1*%
%TO.N,GNDA*%
X129370000Y-103560000D03*
%TD*%
D19*
%TO.P,J5,1,Pin_1*%
%TO.N,GNDA*%
X131793334Y-97850000D03*
%TD*%
D20*
%TO.P,U1,1,IN*%
%TO.N,+5V*%
X144009999Y-89187549D03*
%TO.P,U1,2,GND*%
%TO.N,GNDA*%
X144960000Y-89187549D03*
%TO.P,U1,3,\u002AEN*%
X145910001Y-89187549D03*
%TO.P,U1,4,BP*%
%TO.N,Net-(C9-Pad1)*%
X145910001Y-91912451D03*
%TO.P,U1,5,OUT*%
%TO.N,+3.3VA*%
X144009999Y-91912451D03*
%TD*%
D18*
%TO.P,TP1,1,1*%
%TO.N,+3.3VA*%
X138570000Y-107440000D03*
%TD*%
%TO.P,TP7,1,1*%
%TO.N,Cmd*%
X147770000Y-59960000D03*
%TD*%
D21*
%TO.P,C4,1*%
%TO.N,+3.3VA*%
X143922500Y-95550000D03*
%TO.P,C4,2*%
%TO.N,GNDA*%
X145997500Y-95550000D03*
%TD*%
D17*
%TO.P,J1,1,Pin_1*%
%TO.N,GNDA*%
X136385000Y-80625000D03*
%TO.P,J1,2,Pin_2*%
%TO.N,+5V*%
X133845000Y-80625000D03*
%TO.P,J1,3,Pin_3*%
%TO.N,Des*%
X131305000Y-80625000D03*
%TD*%
D22*
%TO.P,J6,1,Pin_1*%
%TO.N,GNDA*%
X141285000Y-75100000D03*
%TO.P,J6,2,Pin_2*%
%TO.N,SWDIO*%
X142535000Y-75100000D03*
%TO.P,J6,3,Pin_3*%
%TO.N,SWCLK*%
X143785000Y-75100000D03*
%TO.P,J6,4,Pin_4*%
%TO.N,+3.3V*%
X145035000Y-75100000D03*
D23*
%TO.P,J6,MP*%
%TO.N,N/C*%
X139435000Y-71900000D03*
X146885000Y-71900000D03*
%TD*%
D24*
%TO.P,U4,1,IN*%
%TO.N,+5V*%
X143097549Y-83400001D03*
%TO.P,U4,2,GND*%
%TO.N,GNDA*%
X143097549Y-82450000D03*
%TO.P,U4,3,\u002AEN*%
X143097549Y-81499999D03*
%TO.P,U4,4,BP*%
%TO.N,Net-(C16-Pad1)*%
X145822451Y-81499999D03*
%TO.P,U4,5,OUT*%
%TO.N,+3.3V*%
X145822451Y-83400001D03*
%TD*%
D19*
%TO.P,J3,1,Pin_1*%
%TO.N,S+*%
X137126666Y-97850000D03*
%TD*%
D18*
%TO.P,TP5,1,1*%
%TO.N,+3.3V*%
X138570000Y-59960000D03*
%TD*%
D25*
%TO.P,J7,1,Pin_1*%
%TO.N,GNDA*%
X134610000Y-90125000D03*
%TO.P,J7,2,Pin_2*%
%TO.N,B*%
X134610000Y-88875000D03*
%TO.P,J7,3,Pin_3*%
%TO.N,A*%
X134610000Y-87625000D03*
%TO.P,J7,4,Pin_4*%
%TO.N,+3.3V*%
X134610000Y-86375000D03*
D26*
%TO.P,J7,MP*%
%TO.N,N/C*%
X131410000Y-84525000D03*
X131410000Y-91975000D03*
%TD*%
D18*
%TO.P,TP4,1,1*%
%TO.N,Ref*%
X156970000Y-103560000D03*
%TD*%
D27*
%TO.P,J9,1,Pin_1*%
%TO.N,GNDA*%
X151710000Y-86375000D03*
%TO.P,J9,2,Pin_2*%
%TO.N,B*%
X151710000Y-87625000D03*
%TO.P,J9,3,Pin_3*%
%TO.N,A*%
X151710000Y-88875000D03*
%TO.P,J9,4,Pin_4*%
%TO.N,+3.3V*%
X151710000Y-90125000D03*
D28*
%TO.P,J9,MP*%
%TO.N,N/C*%
X154910000Y-84525000D03*
X154910000Y-91975000D03*
%TD*%
D21*
%TO.P,C3,1*%
%TO.N,+5V*%
X143222500Y-86350000D03*
%TO.P,C3,2*%
%TO.N,GNDA*%
X145297500Y-86350000D03*
%TD*%
D18*
%TO.P,TP3,1,1*%
%TO.N,Meas*%
X147770000Y-107440000D03*
%TD*%
D15*
%TO.P,C7,1*%
%TO.N,+5V*%
X139560000Y-87612500D03*
%TO.P,C7,2*%
%TO.N,GNDA*%
X139560000Y-89687500D03*
%TD*%
D29*
%TO.P,C5,1*%
%TO.N,+3.3VA*%
X139997500Y-92650000D03*
%TO.P,C5,2*%
%TO.N,GNDA*%
X137922500Y-92650000D03*
%TD*%
D19*
%TO.P,J4,1,Pin_1*%
%TO.N,S-*%
X134460000Y-97850000D03*
%TD*%
D18*
%TO.P,TP2,1,1*%
%TO.N,Des*%
X156970000Y-63840000D03*
%TD*%
D29*
%TO.P,C16,1*%
%TO.N,Net-(C16-Pad1)*%
X145297500Y-78550000D03*
%TO.P,C16,2*%
%TO.N,GNDA*%
X143222500Y-78550000D03*
%TD*%
D18*
%TO.P,TP8,1,1*%
%TO.N,GNDA*%
X129370000Y-63840000D03*
%TD*%
D15*
%TO.P,C9,1*%
%TO.N,Net-(C9-Pad1)*%
X148960000Y-93612500D03*
%TO.P,C9,2*%
%TO.N,GNDA*%
X148960000Y-95687500D03*
%TD*%
D30*
%TO.N,+3.3VA*%
X142297500Y-93987500D03*
X142297500Y-99020000D03*
X130422500Y-95050000D03*
X147460000Y-89750000D03*
X134660000Y-91450000D03*
X143960000Y-93987500D03*
X140635000Y-99020000D03*
X140635000Y-93987500D03*
X143960000Y-99020000D03*
X147260000Y-94550000D03*
%TO.N,GNDA*%
X147260000Y-92912500D03*
X155985000Y-71050000D03*
X137451979Y-77118887D03*
X145310000Y-89609500D03*
X130422500Y-86850500D03*
X149760000Y-79912500D03*
X146000000Y-96570000D03*
X142060000Y-91780000D03*
X137451979Y-75753331D03*
X130279985Y-74650000D03*
X157850000Y-92110000D03*
X145329310Y-86381241D03*
X137451979Y-78484443D03*
X139060000Y-78484443D03*
X130279985Y-76200000D03*
X132500000Y-98160000D03*
X130279985Y-77750000D03*
X151710000Y-86375000D03*
X130279985Y-82910126D03*
X132497500Y-99310000D03*
X137922500Y-92650000D03*
X147344576Y-96570000D03*
X148689152Y-96570000D03*
X149910000Y-86660000D03*
X148260000Y-86887500D03*
X130435000Y-71050000D03*
X157850000Y-89750000D03*
X157850000Y-90930000D03*
X130422500Y-90150000D03*
X149760000Y-78440000D03*
X148260000Y-78440000D03*
X148260000Y-79912500D03*
X137451979Y-79850000D03*
X137480000Y-87924500D03*
X136010000Y-73945000D03*
%TO.N,+5V*%
X132760000Y-78150000D03*
X132760000Y-76150000D03*
X132735500Y-74150000D03*
X133760000Y-80150000D03*
X133760000Y-81150000D03*
X132760000Y-75150000D03*
X133760000Y-79150000D03*
X133760000Y-78150000D03*
X132760000Y-77150000D03*
D31*
%TO.N,S+*%
X135685000Y-95285000D03*
%TO.N,S-*%
X135685000Y-94015000D03*
D30*
%TO.N,+3.3V*%
X148760000Y-84620000D03*
X147760000Y-83620000D03*
X150760000Y-84620000D03*
X134610000Y-86375000D03*
X146934500Y-74920000D03*
X146760000Y-84620000D03*
X145760000Y-83620000D03*
X154960000Y-86450000D03*
X149760000Y-83620000D03*
D31*
%TO.N,Des*%
X140860000Y-68750000D03*
%TO.N,Cmd*%
X139369500Y-69750000D03*
%TO.N,B*%
X129010000Y-89900000D03*
%TO.N,A*%
X127860000Y-89150000D03*
%TO.N,SWDIO*%
X142535000Y-71850000D03*
%TO.N,SWCLK*%
X143785000Y-71850000D03*
%TD*%
D32*
%TO.N,GNDA*%
X134610000Y-90125000D02*
X135635000Y-91150000D01*
X137480000Y-88670000D02*
X138497500Y-89687500D01*
X138097500Y-91150000D02*
X139560000Y-89687500D01*
X137480000Y-87924500D02*
X137480000Y-88670000D01*
X138497500Y-89687500D02*
X139560000Y-89687500D01*
X135635000Y-91150000D02*
X138097500Y-91150000D01*
D33*
%TO.N,Net-(C9-Pad1)*%
X148960000Y-92550000D02*
X148960000Y-93612500D01*
X145910001Y-91912451D02*
X148322451Y-91912451D01*
X148322451Y-91912451D02*
X148960000Y-92550000D01*
D34*
%TO.N,S+*%
X135685000Y-95285000D02*
X136795000Y-95285000D01*
X137126666Y-95616666D02*
X137126666Y-97850000D01*
X136795000Y-95285000D02*
X137126666Y-95616666D01*
%TO.N,S-*%
X134426666Y-94483334D02*
X134426666Y-96050000D01*
X135685000Y-94015000D02*
X134895000Y-94015000D01*
X134895000Y-94015000D02*
X134426666Y-94483334D01*
D32*
%TO.N,+3.3V*%
X154960000Y-88950000D02*
X153785000Y-90125000D01*
X153785000Y-90125000D02*
X151710000Y-90125000D01*
X154960000Y-86450000D02*
X154960000Y-88950000D01*
D33*
%TO.N,Net-(C16-Pad1)*%
X145297500Y-78550000D02*
X145297500Y-79887500D01*
X145822451Y-80412451D02*
X145822451Y-81499999D01*
X145297500Y-79887500D02*
X145822451Y-80412451D01*
%TO.N,Des*%
X140860000Y-68750000D02*
X132960000Y-68750000D01*
X131305000Y-80625000D02*
X131305000Y-70405000D01*
X131305000Y-70405000D02*
X132960000Y-68750000D01*
%TO.N,Cmd*%
X154985000Y-80625000D02*
X154985000Y-71375000D01*
X154985000Y-71375000D02*
X153360000Y-69750000D01*
X153360000Y-69750000D02*
X139369500Y-69750000D01*
%TO.N,B*%
X129010000Y-99300000D02*
X130760000Y-101050000D01*
X129435000Y-88875000D02*
X134610000Y-88875000D01*
X146260000Y-101050000D02*
X150460000Y-96850000D01*
X150460000Y-92457106D02*
X148560000Y-90557106D01*
X129010000Y-89900000D02*
X129010000Y-89300000D01*
X149685000Y-87625000D02*
X151710000Y-87625000D01*
X148560000Y-90557106D02*
X148560000Y-88750000D01*
X150460000Y-96850000D02*
X150460000Y-92457106D01*
X148560000Y-88750000D02*
X149685000Y-87625000D01*
X129010000Y-89900000D02*
X129010000Y-99300000D01*
X129010000Y-89300000D02*
X129435000Y-88875000D01*
X130760000Y-101050000D02*
X146260000Y-101050000D01*
%TO.N,A*%
X149460000Y-89250000D02*
X149835000Y-88875000D01*
X127860000Y-99350000D02*
X130360000Y-101850000D01*
X149835000Y-88875000D02*
X151710000Y-88875000D01*
X151190000Y-97820000D02*
X151190000Y-92110000D01*
X149460000Y-90380000D02*
X149460000Y-89250000D01*
X151190000Y-92110000D02*
X149460000Y-90380000D01*
X127860000Y-88450000D02*
X128685000Y-87625000D01*
X127860000Y-89150000D02*
X127860000Y-88450000D01*
X130360000Y-101850000D02*
X147160000Y-101850000D01*
X147160000Y-101850000D02*
X151190000Y-97820000D01*
X127860000Y-89150000D02*
X127860000Y-99350000D01*
X128685000Y-87625000D02*
X134610000Y-87625000D01*
%TO.N,SWDIO*%
X142535000Y-71850000D02*
X142535000Y-75100000D01*
%TO.N,SWCLK*%
X143785000Y-71850000D02*
X143785000Y-75100000D01*
%TD*%
%TA.AperFunction,Conductor*%
%TO.N,+3.3VA*%
G36*
X141380713Y-90970002D02*
G01*
X141427206Y-91023658D01*
X141437310Y-91093932D01*
X141406228Y-91160310D01*
X141331890Y-91242871D01*
X141331887Y-91242875D01*
X141327467Y-91247784D01*
X141232821Y-91411716D01*
X141174326Y-91591744D01*
X141173636Y-91598305D01*
X141173636Y-91598307D01*
X141165639Y-91674396D01*
X141154540Y-91780000D01*
X141174326Y-91968256D01*
X141232821Y-92148284D01*
X141327467Y-92312216D01*
X141454129Y-92452888D01*
X141607270Y-92564151D01*
X141780197Y-92641144D01*
X141878212Y-92661978D01*
X141958897Y-92679128D01*
X141958901Y-92679128D01*
X141965354Y-92680500D01*
X142154646Y-92680500D01*
X142161099Y-92679128D01*
X142161103Y-92679128D01*
X142241788Y-92661978D01*
X142339803Y-92641144D01*
X142512730Y-92564151D01*
X142665871Y-92452888D01*
X142792533Y-92312216D01*
X142887179Y-92148284D01*
X142945674Y-91968256D01*
X142965460Y-91780000D01*
X142954361Y-91674396D01*
X142946364Y-91598307D01*
X142946364Y-91598305D01*
X142945674Y-91591744D01*
X142887179Y-91411716D01*
X142792533Y-91247784D01*
X142788113Y-91242875D01*
X142788110Y-91242871D01*
X142713772Y-91160310D01*
X142683054Y-91096303D01*
X142691819Y-91025849D01*
X142737282Y-90971318D01*
X142807408Y-90950000D01*
X144434000Y-90950000D01*
X144502121Y-90970002D01*
X144548614Y-91023658D01*
X144560000Y-91076000D01*
X144560000Y-99824000D01*
X144539998Y-99892121D01*
X144486342Y-99938614D01*
X144434000Y-99950000D01*
X138886000Y-99950000D01*
X138817879Y-99929998D01*
X138771386Y-99876342D01*
X138760000Y-99824000D01*
X138760000Y-93738584D01*
X138780002Y-93670463D01*
X138796827Y-93649566D01*
X138847813Y-93598491D01*
X138852984Y-93593311D01*
X138944814Y-93444334D01*
X138999910Y-93278228D01*
X139010500Y-93174866D01*
X139010500Y-92125134D01*
X138999641Y-92020481D01*
X138982218Y-91968256D01*
X138946574Y-91861419D01*
X138944256Y-91854471D01*
X138852166Y-91705655D01*
X138846984Y-91700482D01*
X138796982Y-91650567D01*
X138762903Y-91588284D01*
X138760000Y-91561394D01*
X138760000Y-91530346D01*
X138780002Y-91462225D01*
X138796905Y-91441251D01*
X139251251Y-90986905D01*
X139313563Y-90952879D01*
X139340346Y-90950000D01*
X141312592Y-90950000D01*
X141380713Y-90970002D01*
G37*
%TD.AperFunction*%
%TD*%
%TA.AperFunction,Conductor*%
%TO.N,GNDA*%
G36*
X146309210Y-94570002D02*
G01*
X146355703Y-94623658D01*
X146366398Y-94662828D01*
X146374326Y-94738256D01*
X146432821Y-94918284D01*
X146527467Y-95082216D01*
X146654129Y-95222888D01*
X146807270Y-95334151D01*
X146980197Y-95411144D01*
X147078212Y-95431978D01*
X147158897Y-95449128D01*
X147158901Y-95449128D01*
X147165354Y-95450500D01*
X147354646Y-95450500D01*
X147361099Y-95449128D01*
X147361103Y-95449128D01*
X147441788Y-95431978D01*
X147539803Y-95411144D01*
X147712730Y-95334151D01*
X147865871Y-95222888D01*
X147992533Y-95082216D01*
X148087179Y-94918284D01*
X148138785Y-94759459D01*
X148178857Y-94700854D01*
X148244254Y-94673217D01*
X148298284Y-94678803D01*
X148325238Y-94687743D01*
X148325240Y-94687744D01*
X148331772Y-94689910D01*
X148435134Y-94700500D01*
X149484866Y-94700500D01*
X149488112Y-94700163D01*
X149488116Y-94700163D01*
X149582661Y-94690353D01*
X149582665Y-94690352D01*
X149589519Y-94689641D01*
X149596053Y-94687461D01*
X149596058Y-94687460D01*
X149668624Y-94663250D01*
X149739574Y-94660666D01*
X149800658Y-94696850D01*
X149832482Y-94760314D01*
X149834500Y-94782774D01*
X149834500Y-96538720D01*
X149814498Y-96606841D01*
X149797595Y-96627815D01*
X149042315Y-97383095D01*
X148980003Y-97417121D01*
X148953220Y-97420000D01*
X145486000Y-97420000D01*
X145417879Y-97399998D01*
X145371386Y-97346342D01*
X145360000Y-97294000D01*
X145360000Y-94676000D01*
X145380002Y-94607879D01*
X145433658Y-94561386D01*
X145486000Y-94550000D01*
X146241089Y-94550000D01*
X146309210Y-94570002D01*
G37*
%TD.AperFunction*%
%TD*%
%TA.AperFunction,Conductor*%
%TO.N,+3.3V*%
G36*
X151712121Y-83070002D02*
G01*
X151758614Y-83123658D01*
X151770000Y-83176000D01*
X151770000Y-85024000D01*
X151749998Y-85092121D01*
X151696342Y-85138614D01*
X151644000Y-85150000D01*
X145853531Y-85150000D01*
X145813863Y-85143593D01*
X145794759Y-85137256D01*
X145794757Y-85137255D01*
X145788228Y-85135090D01*
X145684866Y-85124500D01*
X145186000Y-85124500D01*
X145117879Y-85104498D01*
X145071386Y-85050842D01*
X145060000Y-84998500D01*
X145060000Y-83176000D01*
X145080002Y-83107879D01*
X145133658Y-83061386D01*
X145186000Y-83050000D01*
X151644000Y-83050000D01*
X151712121Y-83070002D01*
G37*
%TD.AperFunction*%
%TD*%
%TA.AperFunction,Conductor*%
%TO.N,GNDA*%
G36*
X146122121Y-85670002D02*
G01*
X146168614Y-85723658D01*
X146180000Y-85776000D01*
X146180000Y-90024000D01*
X146159998Y-90092121D01*
X146106342Y-90138614D01*
X146054000Y-90150000D01*
X144886000Y-90150000D01*
X144817879Y-90129998D01*
X144771386Y-90076342D01*
X144760000Y-90024000D01*
X144760000Y-89926556D01*
X144761476Y-89910261D01*
X144761699Y-89909492D01*
X144764499Y-89873915D01*
X144764499Y-88501183D01*
X144761699Y-88465606D01*
X144761476Y-88464837D01*
X144760000Y-88448542D01*
X144760000Y-85776000D01*
X144780002Y-85707879D01*
X144833658Y-85661386D01*
X144886000Y-85650000D01*
X146054000Y-85650000D01*
X146122121Y-85670002D01*
G37*
%TD.AperFunction*%
%TD*%
%TA.AperFunction,Conductor*%
%TO.N,GNDA*%
G36*
X151092121Y-77570002D02*
G01*
X151138614Y-77623658D01*
X151150000Y-77676000D01*
X151150000Y-78954438D01*
X151145707Y-78987047D01*
X151100859Y-79154422D01*
X151094500Y-79235222D01*
X151094500Y-82014778D01*
X151094693Y-82017226D01*
X151094693Y-82017235D01*
X151100405Y-82089812D01*
X151100859Y-82095578D01*
X151102353Y-82101152D01*
X151131891Y-82211388D01*
X151130201Y-82282365D01*
X151090407Y-82341161D01*
X151025143Y-82369109D01*
X151010184Y-82370000D01*
X146882393Y-82370000D01*
X146814272Y-82349998D01*
X146767779Y-82296342D01*
X146757675Y-82226068D01*
X146787169Y-82161488D01*
X146818254Y-82135546D01*
X146826286Y-82130796D01*
X146833107Y-82126762D01*
X146945214Y-82014655D01*
X147025919Y-81878190D01*
X147037447Y-81838512D01*
X147068356Y-81732119D01*
X147070151Y-81725942D01*
X147070655Y-81719537D01*
X147070656Y-81719532D01*
X147072758Y-81692822D01*
X147072758Y-81692813D01*
X147072951Y-81690365D01*
X147072951Y-81309633D01*
X147072758Y-81307176D01*
X147070656Y-81280466D01*
X147070655Y-81280461D01*
X147070151Y-81274056D01*
X147025919Y-81121808D01*
X146945214Y-80985343D01*
X146833107Y-80873236D01*
X146696642Y-80792531D01*
X146689031Y-80790320D01*
X146689029Y-80790319D01*
X146544394Y-80748299D01*
X146544787Y-80746945D01*
X146487895Y-80718315D01*
X146451798Y-80657179D01*
X146447951Y-80626280D01*
X146447951Y-80490154D01*
X146448468Y-80479194D01*
X146450124Y-80471784D01*
X146448013Y-80404610D01*
X146447951Y-80400652D01*
X146447951Y-80373101D01*
X146447455Y-80369178D01*
X146447448Y-80369063D01*
X146446528Y-80357377D01*
X146445409Y-80321750D01*
X146445160Y-80313824D01*
X146439614Y-80294735D01*
X146435607Y-80275389D01*
X146433115Y-80255659D01*
X146417067Y-80215128D01*
X146413232Y-80203927D01*
X146401069Y-80162061D01*
X146390951Y-80144952D01*
X146382256Y-80127206D01*
X146374937Y-80108719D01*
X146349320Y-80073460D01*
X146342805Y-80063541D01*
X146324661Y-80032861D01*
X146324658Y-80032857D01*
X146320621Y-80026031D01*
X146306571Y-80011981D01*
X146293730Y-79996947D01*
X146286705Y-79987278D01*
X146282045Y-79980864D01*
X146248462Y-79953082D01*
X146239682Y-79945092D01*
X146096905Y-79802315D01*
X146062879Y-79740003D01*
X146060000Y-79713220D01*
X146060000Y-79712143D01*
X146080002Y-79644022D01*
X146104294Y-79617198D01*
X146104345Y-79617166D01*
X146227984Y-79493311D01*
X146319814Y-79344334D01*
X146374910Y-79178228D01*
X146385500Y-79074866D01*
X146385500Y-78025134D01*
X146374641Y-77920481D01*
X146346478Y-77836064D01*
X146321574Y-77761419D01*
X146319256Y-77754471D01*
X146311725Y-77742302D01*
X146292888Y-77673853D01*
X146314048Y-77606083D01*
X146368489Y-77560511D01*
X146418870Y-77550000D01*
X151024000Y-77550000D01*
X151092121Y-77570002D01*
G37*
%TD.AperFunction*%
%TD*%
%TA.AperFunction,Conductor*%
%TO.N,+5V*%
G36*
X134702121Y-73570002D02*
G01*
X134748614Y-73623658D01*
X134760000Y-73676000D01*
X134760000Y-82950000D01*
X141907940Y-82950000D01*
X141976061Y-82970002D01*
X141997035Y-82986905D01*
X142086893Y-83076763D01*
X142223358Y-83157468D01*
X142230969Y-83159679D01*
X142230971Y-83159680D01*
X142279291Y-83173718D01*
X142375606Y-83201700D01*
X142382011Y-83202204D01*
X142382016Y-83202205D01*
X142408726Y-83204307D01*
X142408735Y-83204307D01*
X142411183Y-83204500D01*
X143783915Y-83204500D01*
X143786363Y-83204307D01*
X143786372Y-83204307D01*
X143813082Y-83202205D01*
X143813087Y-83202204D01*
X143819492Y-83201700D01*
X143915807Y-83173718D01*
X143964127Y-83159680D01*
X143964129Y-83159679D01*
X143971740Y-83157468D01*
X144061308Y-83104498D01*
X144069861Y-83099440D01*
X144138678Y-83081981D01*
X144206009Y-83104498D01*
X144250478Y-83159843D01*
X144260000Y-83207894D01*
X144260000Y-85581097D01*
X144253593Y-85620765D01*
X144225017Y-85706919D01*
X144220090Y-85721772D01*
X144209500Y-85825134D01*
X144209500Y-86874866D01*
X144209837Y-86878112D01*
X144209837Y-86878116D01*
X144217519Y-86952147D01*
X144220359Y-86979519D01*
X144222540Y-86986055D01*
X144222540Y-86986057D01*
X144253524Y-87078927D01*
X144260000Y-87118803D01*
X144260000Y-88272509D01*
X144251596Y-88313086D01*
X144252532Y-88313358D01*
X144208300Y-88465606D01*
X144207796Y-88472011D01*
X144207795Y-88472016D01*
X144205856Y-88496654D01*
X144205500Y-88501183D01*
X144205500Y-89873915D01*
X144205693Y-89876363D01*
X144205693Y-89876372D01*
X144208300Y-89909492D01*
X144206612Y-89909625D01*
X144200043Y-89971972D01*
X144155611Y-90027347D01*
X144083532Y-90050000D01*
X143429299Y-90050000D01*
X143361178Y-90029998D01*
X143314685Y-89976342D01*
X143303869Y-89913941D01*
X143303991Y-89913098D01*
X143305643Y-89850000D01*
X143285454Y-89630289D01*
X143225565Y-89417936D01*
X143127980Y-89220053D01*
X142995967Y-89043267D01*
X142833949Y-88893499D01*
X142647350Y-88775764D01*
X142442421Y-88694006D01*
X142436761Y-88692880D01*
X142436757Y-88692879D01*
X142231691Y-88652089D01*
X142231688Y-88652089D01*
X142226024Y-88650962D01*
X142220249Y-88650886D01*
X142220245Y-88650886D01*
X142109504Y-88649437D01*
X142005406Y-88648074D01*
X141999709Y-88649053D01*
X141999708Y-88649053D01*
X141793654Y-88684459D01*
X141793653Y-88684459D01*
X141787957Y-88685438D01*
X141580957Y-88761804D01*
X141391341Y-88874614D01*
X141225457Y-89020090D01*
X141088863Y-89193360D01*
X141074819Y-89220053D01*
X141020082Y-89324089D01*
X140970662Y-89375062D01*
X140901530Y-89391224D01*
X140834634Y-89367445D01*
X140791213Y-89311274D01*
X140783247Y-89278425D01*
X140783087Y-89276877D01*
X140776711Y-89215426D01*
X140775353Y-89202339D01*
X140775352Y-89202335D01*
X140774641Y-89195481D01*
X140719256Y-89029471D01*
X140627166Y-88880655D01*
X140503311Y-88757016D01*
X140354334Y-88665186D01*
X140311222Y-88650886D01*
X140194759Y-88612256D01*
X140194757Y-88612255D01*
X140188228Y-88610090D01*
X140084866Y-88599500D01*
X139035134Y-88599500D01*
X139031888Y-88599837D01*
X139031884Y-88599837D01*
X138937339Y-88609647D01*
X138937335Y-88609648D01*
X138930481Y-88610359D01*
X138923945Y-88612540D01*
X138923943Y-88612540D01*
X138843590Y-88639348D01*
X138764471Y-88665744D01*
X138734228Y-88684459D01*
X138665188Y-88727182D01*
X138596736Y-88746020D01*
X138528966Y-88724859D01*
X138509790Y-88709133D01*
X138297311Y-88496654D01*
X138263285Y-88434342D01*
X138268350Y-88363527D01*
X138277286Y-88344560D01*
X138307179Y-88292784D01*
X138365674Y-88112756D01*
X138366619Y-88103770D01*
X138384770Y-87931065D01*
X138385460Y-87924500D01*
X138382196Y-87893441D01*
X138366364Y-87742807D01*
X138366364Y-87742805D01*
X138365674Y-87736244D01*
X138307179Y-87556216D01*
X138212533Y-87392284D01*
X138085871Y-87251612D01*
X137932730Y-87140349D01*
X137759803Y-87063356D01*
X137661788Y-87042522D01*
X137581103Y-87025372D01*
X137581099Y-87025372D01*
X137574646Y-87024000D01*
X137385354Y-87024000D01*
X137378901Y-87025372D01*
X137378897Y-87025372D01*
X137298212Y-87042522D01*
X137200197Y-87063356D01*
X137027270Y-87140349D01*
X136874129Y-87251612D01*
X136747467Y-87392284D01*
X136744167Y-87398000D01*
X136744164Y-87398004D01*
X136695619Y-87482088D01*
X136644237Y-87531081D01*
X136574523Y-87544517D01*
X136508612Y-87518131D01*
X136467430Y-87460299D01*
X136460500Y-87419088D01*
X136460500Y-87409306D01*
X136460308Y-87406860D01*
X136460307Y-87406847D01*
X136458103Y-87378850D01*
X136457598Y-87372431D01*
X136411744Y-87214602D01*
X136329004Y-87074696D01*
X136329003Y-87074693D01*
X136328081Y-87073135D01*
X136328332Y-87072986D01*
X136304050Y-87011141D01*
X136317951Y-86941518D01*
X136326085Y-86928861D01*
X136328081Y-86926865D01*
X136411744Y-86785398D01*
X136457598Y-86627569D01*
X136458633Y-86614416D01*
X136460307Y-86593153D01*
X136460308Y-86593140D01*
X136460500Y-86590694D01*
X136460500Y-86159306D01*
X136460308Y-86156860D01*
X136460307Y-86156847D01*
X136458103Y-86128850D01*
X136457598Y-86122431D01*
X136411744Y-85964602D01*
X136328081Y-85823135D01*
X136211865Y-85706919D01*
X136070398Y-85623256D01*
X136062786Y-85621045D01*
X136062785Y-85621044D01*
X135918754Y-85579199D01*
X135918755Y-85579199D01*
X135912569Y-85577402D01*
X135899416Y-85576367D01*
X135878153Y-85574693D01*
X135878140Y-85574692D01*
X135875694Y-85574500D01*
X135052791Y-85574500D01*
X135001546Y-85563608D01*
X134889803Y-85513856D01*
X134791788Y-85493022D01*
X134711103Y-85475872D01*
X134711099Y-85475872D01*
X134704646Y-85474500D01*
X134515354Y-85474500D01*
X134508901Y-85475872D01*
X134508897Y-85475872D01*
X134428212Y-85493022D01*
X134330197Y-85513856D01*
X134218454Y-85563608D01*
X134167209Y-85574500D01*
X133344306Y-85574500D01*
X133330317Y-85575601D01*
X133317630Y-85576599D01*
X133248150Y-85562002D01*
X133197592Y-85512159D01*
X133182006Y-85442894D01*
X133190756Y-85404196D01*
X133190784Y-85404127D01*
X133193741Y-85398470D01*
X133249766Y-85203087D01*
X133260500Y-85082816D01*
X133260500Y-83967184D01*
X133249766Y-83846913D01*
X133193741Y-83651530D01*
X133099573Y-83471404D01*
X132971109Y-83313891D01*
X132966169Y-83309862D01*
X132818540Y-83189459D01*
X132818539Y-83189458D01*
X132813596Y-83185427D01*
X132633470Y-83091259D01*
X132438087Y-83035234D01*
X132406455Y-83032411D01*
X132320609Y-83024749D01*
X132320603Y-83024749D01*
X132317816Y-83024500D01*
X132184592Y-83024500D01*
X132116471Y-83004498D01*
X132069978Y-82950842D01*
X132059874Y-82880568D01*
X132089368Y-82815988D01*
X132127389Y-82786233D01*
X132230959Y-82733462D01*
X132230962Y-82733460D01*
X132236840Y-82730465D01*
X132241969Y-82726312D01*
X132241973Y-82726309D01*
X132382901Y-82612187D01*
X132388032Y-82608032D01*
X132447775Y-82534256D01*
X132506309Y-82461973D01*
X132506312Y-82461969D01*
X132510465Y-82456840D01*
X132580523Y-82319345D01*
X132595794Y-82289373D01*
X132595795Y-82289369D01*
X132598788Y-82283496D01*
X132649141Y-82095578D01*
X132655500Y-82014778D01*
X132655500Y-79235222D01*
X132650149Y-79167222D01*
X132649594Y-79160175D01*
X132649594Y-79160172D01*
X132649141Y-79154422D01*
X132598788Y-78966504D01*
X132540816Y-78852727D01*
X132513462Y-78799041D01*
X132513460Y-78799038D01*
X132510465Y-78793160D01*
X132506312Y-78788031D01*
X132506309Y-78788027D01*
X132392187Y-78647099D01*
X132388032Y-78641968D01*
X132381481Y-78636663D01*
X132241973Y-78523691D01*
X132241969Y-78523688D01*
X132236840Y-78519535D01*
X132230962Y-78516540D01*
X132230959Y-78516538D01*
X132069379Y-78434209D01*
X132069375Y-78434207D01*
X132063496Y-78431212D01*
X132023886Y-78420598D01*
X131963266Y-78383648D01*
X131932245Y-78319787D01*
X131930500Y-78298893D01*
X131930500Y-73676000D01*
X131950502Y-73607879D01*
X132004158Y-73561386D01*
X132056500Y-73550000D01*
X134634000Y-73550000D01*
X134702121Y-73570002D01*
G37*
%TD.AperFunction*%
%TD*%
%TA.AperFunction,Conductor*%
%TO.N,GNDA*%
G36*
X138356137Y-73570002D02*
G01*
X138367650Y-73578356D01*
X138381404Y-73589573D01*
X138561530Y-73683741D01*
X138756913Y-73739766D01*
X138788545Y-73742589D01*
X138874391Y-73750251D01*
X138874397Y-73750251D01*
X138877184Y-73750500D01*
X139992816Y-73750500D01*
X139995603Y-73750251D01*
X139995609Y-73750251D01*
X140081455Y-73742589D01*
X140113087Y-73739766D01*
X140308470Y-73683741D01*
X140488596Y-73589573D01*
X140502348Y-73578357D01*
X140567779Y-73550803D01*
X140581984Y-73550000D01*
X141641471Y-73550000D01*
X141709592Y-73570002D01*
X141756085Y-73623658D01*
X141766189Y-73693932D01*
X141762468Y-73711153D01*
X141751109Y-73750251D01*
X141737402Y-73797431D01*
X141736897Y-73803850D01*
X141734693Y-73831847D01*
X141734692Y-73831860D01*
X141734500Y-73834306D01*
X141734500Y-76365694D01*
X141734692Y-76368140D01*
X141734693Y-76368153D01*
X141736367Y-76389416D01*
X141737402Y-76402569D01*
X141783256Y-76560398D01*
X141787291Y-76567220D01*
X141787291Y-76567221D01*
X141842454Y-76660497D01*
X141860000Y-76724636D01*
X141860000Y-76750000D01*
X141873547Y-76750000D01*
X141886783Y-76752879D01*
X141885936Y-76756774D01*
X141930985Y-76770002D01*
X141951959Y-76786905D01*
X141983135Y-76818081D01*
X142124602Y-76901744D01*
X142132214Y-76903955D01*
X142132215Y-76903956D01*
X142236951Y-76934385D01*
X142282431Y-76947598D01*
X142295584Y-76948633D01*
X142316847Y-76950307D01*
X142316860Y-76950308D01*
X142319306Y-76950500D01*
X142750694Y-76950500D01*
X142753140Y-76950308D01*
X142753153Y-76950307D01*
X142774416Y-76948633D01*
X142787569Y-76947598D01*
X142833049Y-76934385D01*
X142937785Y-76903956D01*
X142937786Y-76903955D01*
X142945398Y-76901744D01*
X143085304Y-76819004D01*
X143085307Y-76819003D01*
X143086865Y-76818081D01*
X143087014Y-76818332D01*
X143148859Y-76794050D01*
X143218482Y-76807951D01*
X143231139Y-76816085D01*
X143233135Y-76818081D01*
X143374602Y-76901744D01*
X143382214Y-76903955D01*
X143382215Y-76903956D01*
X143486951Y-76934385D01*
X143532431Y-76947598D01*
X143545584Y-76948633D01*
X143566847Y-76950307D01*
X143566860Y-76950308D01*
X143569306Y-76950500D01*
X143934000Y-76950500D01*
X144002121Y-76970502D01*
X144048614Y-77024158D01*
X144060000Y-77076500D01*
X144060000Y-82324000D01*
X144039998Y-82392121D01*
X143986342Y-82438614D01*
X143934000Y-82450000D01*
X135586000Y-82450000D01*
X135517879Y-82429998D01*
X135471386Y-82376342D01*
X135460000Y-82324000D01*
X135460000Y-73676000D01*
X135480002Y-73607879D01*
X135533658Y-73561386D01*
X135586000Y-73550000D01*
X138288016Y-73550000D01*
X138356137Y-73570002D01*
G37*
%TD.AperFunction*%
%TD*%
%TA.AperFunction,Conductor*%
%TO.N,+3.3V*%
G36*
X145671263Y-73460002D02*
G01*
X145682778Y-73468357D01*
X145802501Y-73566000D01*
X145831404Y-73589573D01*
X146011530Y-73683741D01*
X146206913Y-73739766D01*
X146238545Y-73742589D01*
X146324391Y-73750251D01*
X146324397Y-73750251D01*
X146327184Y-73750500D01*
X147442816Y-73750500D01*
X147445603Y-73750251D01*
X147445609Y-73750251D01*
X147531455Y-73742589D01*
X147563087Y-73739766D01*
X147758470Y-73683741D01*
X147764128Y-73680783D01*
X147764131Y-73680782D01*
X147865624Y-73627722D01*
X147935260Y-73613887D01*
X148001321Y-73639897D01*
X148042833Y-73697492D01*
X148050000Y-73739383D01*
X148050000Y-76724000D01*
X148029998Y-76792121D01*
X147976342Y-76838614D01*
X147924000Y-76850000D01*
X144856000Y-76850000D01*
X144787879Y-76829998D01*
X144741386Y-76776342D01*
X144730000Y-76724000D01*
X144730000Y-73566000D01*
X144750002Y-73497879D01*
X144803658Y-73451386D01*
X144856000Y-73440000D01*
X145603142Y-73440000D01*
X145671263Y-73460002D01*
G37*
%TD.AperFunction*%
%TD*%
%TA.AperFunction,Conductor*%
%TO.N,GNDA*%
G36*
X149387134Y-85820081D02*
G01*
X152934304Y-85820229D01*
X153002424Y-85840234D01*
X153048915Y-85893892D01*
X153060299Y-85946250D01*
X153060288Y-86007478D01*
X153060159Y-86698523D01*
X153040144Y-86766640D01*
X152986480Y-86813123D01*
X152934159Y-86824500D01*
X150444306Y-86824500D01*
X150441860Y-86824692D01*
X150441847Y-86824693D01*
X150420584Y-86826367D01*
X150407431Y-86827402D01*
X150361951Y-86840615D01*
X150257215Y-86871044D01*
X150257214Y-86871045D01*
X150249602Y-86873256D01*
X150108135Y-86956919D01*
X150102459Y-86962595D01*
X150102390Y-86962632D01*
X150096269Y-86967381D01*
X150095503Y-86966393D01*
X150040147Y-86996621D01*
X150013364Y-86999500D01*
X149762698Y-86999500D01*
X149751737Y-86998983D01*
X149744332Y-86997328D01*
X149682473Y-86999272D01*
X149677176Y-86999438D01*
X149673219Y-86999500D01*
X149645650Y-86999500D01*
X149641715Y-86999997D01*
X149641605Y-87000004D01*
X149629934Y-87000922D01*
X149598866Y-87001898D01*
X149586373Y-87002291D01*
X149567284Y-87007837D01*
X149547938Y-87011844D01*
X149528208Y-87014336D01*
X149487677Y-87030384D01*
X149476476Y-87034219D01*
X149434610Y-87046382D01*
X149417497Y-87056502D01*
X149399752Y-87065195D01*
X149381268Y-87072514D01*
X149346003Y-87098136D01*
X149336095Y-87104643D01*
X149305402Y-87122794D01*
X149305397Y-87122798D01*
X149298579Y-87126830D01*
X149284526Y-87140883D01*
X149269493Y-87153723D01*
X149253413Y-87165406D01*
X149248360Y-87171514D01*
X149225635Y-87198984D01*
X149217645Y-87207764D01*
X148912314Y-87513095D01*
X148850002Y-87547121D01*
X148823219Y-87550000D01*
X147586000Y-87550000D01*
X147517879Y-87529998D01*
X147471386Y-87476342D01*
X147460000Y-87424000D01*
X147460000Y-86007478D01*
X147480002Y-85939357D01*
X147533658Y-85892864D01*
X147603932Y-85882760D01*
X147623319Y-85887332D01*
X147625243Y-85887744D01*
X147631772Y-85889910D01*
X147735134Y-85900500D01*
X148784866Y-85900500D01*
X148788112Y-85900163D01*
X148788116Y-85900163D01*
X148882661Y-85890353D01*
X148882665Y-85890352D01*
X148889519Y-85889641D01*
X148896055Y-85887460D01*
X148896057Y-85887460D01*
X149048588Y-85836572D01*
X149048590Y-85836571D01*
X149055529Y-85834256D01*
X149059681Y-85831687D01*
X149111870Y-85820069D01*
X149387134Y-85820081D01*
G37*
%TD.AperFunction*%
%TD*%
M02*
