%TF.GenerationSoftware,KiCad,Pcbnew,6.0.10-86aedd382b~118~ubuntu20.04.1*%
%TF.CreationDate,2023-01-12T10:33:16+01:00*%
%TF.ProjectId,thrust_controller,74687275-7374-45f6-936f-6e74726f6c6c,rev?*%
%TF.SameCoordinates,Original*%
%TF.FileFunction,Soldermask,Top*%
%TF.FilePolarity,Negative*%
%FSLAX46Y46*%
G04 Gerber Fmt 4.6, Leading zero omitted, Abs format (unit mm)*
G04 Created by KiCad (PCBNEW 6.0.10-86aedd382b~118~ubuntu20.04.1) date 2023-01-12 10:33:16*
%MOMM*%
%LPD*%
G01*
G04 APERTURE LIST*
G04 Aperture macros list*
%AMRoundRect*
0 Rectangle with rounded corners*
0 $1 Rounding radius*
0 $2 $3 $4 $5 $6 $7 $8 $9 X,Y pos of 4 corners*
0 Add a 4 corners polygon primitive as box body*
4,1,4,$2,$3,$4,$5,$6,$7,$8,$9,$2,$3,0*
0 Add four circle primitives for the rounded corners*
1,1,$1+$1,$2,$3*
1,1,$1+$1,$4,$5*
1,1,$1+$1,$6,$7*
1,1,$1+$1,$8,$9*
0 Add four rect primitives between the rounded corners*
20,1,$1+$1,$2,$3,$4,$5,0*
20,1,$1+$1,$4,$5,$6,$7,0*
20,1,$1+$1,$6,$7,$8,$9,0*
20,1,$1+$1,$8,$9,$2,$3,0*%
G04 Aperture macros list end*
%TA.AperFunction,Profile*%
%ADD10C,0.200000*%
%TD*%
%ADD11RoundRect,0.250000X-0.325000X-0.450000X0.325000X-0.450000X0.325000X0.450000X-0.325000X0.450000X0*%
%ADD12RoundRect,0.250000X0.337500X0.475000X-0.337500X0.475000X-0.337500X-0.475000X0.337500X-0.475000X0*%
%ADD13RoundRect,0.250000X-0.337500X-0.475000X0.337500X-0.475000X0.337500X0.475000X-0.337500X0.475000X0*%
%ADD14RoundRect,0.250000X-0.350000X-0.450000X0.350000X-0.450000X0.350000X0.450000X-0.350000X0.450000X0*%
%ADD15RoundRect,0.250000X0.475000X-0.337500X0.475000X0.337500X-0.475000X0.337500X-0.475000X-0.337500X0*%
%ADD16RoundRect,0.250000X-0.475000X0.337500X-0.475000X-0.337500X0.475000X-0.337500X0.475000X0.337500X0*%
%ADD17C,6.400000*%
%ADD18RoundRect,0.100000X-0.900000X-0.100000X0.900000X-0.100000X0.900000X0.100000X-0.900000X0.100000X0*%
%ADD19RoundRect,0.139500X0.860500X0.139500X-0.860500X0.139500X-0.860500X-0.139500X0.860500X-0.139500X0*%
%ADD20C,1.400000*%
%ADD21O,1.400000X1.400000*%
%ADD22RoundRect,0.250000X0.325000X0.450000X-0.325000X0.450000X-0.325000X-0.450000X0.325000X-0.450000X0*%
%ADD23RoundRect,0.133150X0.866850X0.133150X-0.866850X0.133150X-0.866850X-0.133150X0.866850X-0.133150X0*%
%ADD24RoundRect,0.150000X-1.100000X-0.150000X1.100000X-0.150000X1.100000X0.150000X-1.100000X0.150000X0*%
%ADD25C,2.000000*%
G04 APERTURE END LIST*
D10*
X169350000Y-83700000D02*
G75*
G03*
X169350000Y-83700000I-26180000J0D01*
G01*
D11*
%TO.C,D1*%
X130435000Y-71050000D03*
X132485000Y-71050000D03*
%TD*%
D12*
%TO.C,C21*%
X132497500Y-74650000D03*
X130422500Y-74650000D03*
%TD*%
D13*
%TO.C,C11*%
X130422500Y-93250000D03*
X132497500Y-93250000D03*
%TD*%
D14*
%TO.C,R1*%
X147460000Y-89750000D03*
X149460000Y-89750000D03*
%TD*%
D12*
%TO.C,C6*%
X132497500Y-80850000D03*
X130422500Y-80850000D03*
%TD*%
D15*
%TO.C,C19*%
X148260000Y-81987500D03*
X148260000Y-79912500D03*
%TD*%
D16*
%TO.C,C15*%
X148260000Y-84812500D03*
X148260000Y-86887500D03*
%TD*%
D17*
%TO.C,H2*%
X163300000Y-75700000D03*
%TD*%
D15*
%TO.C,C1*%
X143960000Y-93987500D03*
X143960000Y-91912500D03*
%TD*%
D18*
%TO.C,U6*%
X137447500Y-81225000D03*
X137447500Y-81875000D03*
X137447500Y-82525000D03*
X137447500Y-83175000D03*
X137447500Y-83825000D03*
X137447500Y-84475000D03*
X137447500Y-85125000D03*
X137447500Y-85775000D03*
X137447500Y-86425000D03*
X137447500Y-87075000D03*
X143172500Y-87075000D03*
X143172500Y-86425000D03*
X143172500Y-85775000D03*
X143172500Y-85125000D03*
X143172500Y-84475000D03*
X143172500Y-83825000D03*
X143172500Y-83175000D03*
X143172500Y-82525000D03*
X143172500Y-81875000D03*
X143172500Y-81225000D03*
%TD*%
D15*
%TO.C,C17*%
X154460000Y-81987500D03*
X154460000Y-79912500D03*
%TD*%
%TO.C,C2*%
X147260000Y-94987500D03*
X147260000Y-92912500D03*
%TD*%
D19*
%TO.C,U2*%
X155781348Y-96455000D03*
X155781348Y-95185000D03*
X155781348Y-93915000D03*
X155781348Y-92645000D03*
X150338652Y-92645000D03*
X150338652Y-93915000D03*
X150338652Y-95185000D03*
X150338652Y-96455000D03*
%TD*%
D15*
%TO.C,C18*%
X151360000Y-81987500D03*
X151360000Y-79912500D03*
%TD*%
D14*
%TO.C,R5*%
X135260000Y-71050000D03*
X137260000Y-71050000D03*
%TD*%
D20*
%TO.C,R6*%
X137020000Y-89850000D03*
D21*
X142100000Y-89850000D03*
%TD*%
D14*
%TO.C,R4*%
X153960000Y-89750000D03*
X155960000Y-89750000D03*
%TD*%
D12*
%TO.C,C20*%
X132497500Y-87050000D03*
X130422500Y-87050000D03*
%TD*%
%TO.C,C8*%
X132497500Y-77750000D03*
X130422500Y-77750000D03*
%TD*%
%TO.C,C12*%
X132497500Y-90150000D03*
X130422500Y-90150000D03*
%TD*%
D13*
%TO.C,C10*%
X130422500Y-96350000D03*
X132497500Y-96350000D03*
%TD*%
D17*
%TO.C,H1*%
X123040000Y-75700000D03*
%TD*%
D14*
%TO.C,R3*%
X138560000Y-89850000D03*
X140560000Y-89850000D03*
%TD*%
D12*
%TO.C,C22*%
X132497500Y-83950000D03*
X130422500Y-83950000D03*
%TD*%
D22*
%TO.C,D2*%
X155985000Y-71050000D03*
X153935000Y-71050000D03*
%TD*%
D23*
%TO.C,U5*%
X140881348Y-77755000D03*
X140881348Y-76485000D03*
X140881348Y-75215000D03*
X140881348Y-73945000D03*
X135438652Y-73945000D03*
X135438652Y-75215000D03*
X135438652Y-76485000D03*
X135438652Y-77755000D03*
%TD*%
D24*
%TO.C,U3*%
X135685000Y-92745000D03*
X135685000Y-94015000D03*
X135685000Y-95285000D03*
X135685000Y-96555000D03*
X140635000Y-96555000D03*
X140635000Y-95285000D03*
X140635000Y-94015000D03*
X140635000Y-92745000D03*
%TD*%
D14*
%TO.C,R2*%
X149160000Y-71050000D03*
X151160000Y-71050000D03*
%TD*%
D25*
%TO.C,TP6*%
X129370000Y-103560000D03*
%TD*%
%TO.C,TP1*%
X138570000Y-107440000D03*
%TD*%
%TO.C,TP7*%
X147770000Y-59960000D03*
%TD*%
%TO.C,TP5*%
X138570000Y-59960000D03*
%TD*%
%TO.C,TP4*%
X156970000Y-103560000D03*
%TD*%
%TO.C,TP3*%
X147770000Y-107440000D03*
%TD*%
%TO.C,TP2*%
X156970000Y-63840000D03*
%TD*%
%TO.C,TP8*%
X129370000Y-63840000D03*
%TD*%
M02*
